<?xml version="1.0" encoding="utf-8"?>
<svg xmlns="http://www.w3.org/2000/svg" xmlns:xlink="http://www.w3.org/1999/xlink" width="1000" height="250" viewBox="0 0 4000 1000">
<defs>
  <clipPath id="clip510">
    <rect x="0" y="0" width="4000" height="1000"/>
  </clipPath>
</defs>
<path clip-path="url(#clip510)" d="
M0 1000 L4000 1000 L4000 0 L0 0  Z
  " fill="#ffffff" fill-rule="evenodd" fill-opacity="1"/>
<defs>
  <clipPath id="clip511">
    <rect x="800" y="0" width="2801" height="1000"/>
  </clipPath>
</defs>
<path clip-path="url(#clip510)" d="
M206.166 880.48 L1953 880.48 L1953 85.6721 L206.166 85.6721  Z
  " fill="#ffffff" fill-rule="evenodd" fill-opacity="1"/>
<defs>
  <clipPath id="clip512">
    <rect x="206" y="85" width="1748" height="796"/>
  </clipPath>
</defs>
<polyline clip-path="url(#clip512)" style="stroke:#000000; stroke-linecap:round; stroke-linejoin:round; stroke-width:2; stroke-opacity:0.1; fill:none" points="
  418.916,880.48 418.916,85.6721 
  "/>
<polyline clip-path="url(#clip512)" style="stroke:#000000; stroke-linecap:round; stroke-linejoin:round; stroke-width:2; stroke-opacity:0.1; fill:none" points="
  748.837,880.48 748.837,85.6721 
  "/>
<polyline clip-path="url(#clip512)" style="stroke:#000000; stroke-linecap:round; stroke-linejoin:round; stroke-width:2; stroke-opacity:0.1; fill:none" points="
  1078.76,880.48 1078.76,85.6721 
  "/>
<polyline clip-path="url(#clip512)" style="stroke:#000000; stroke-linecap:round; stroke-linejoin:round; stroke-width:2; stroke-opacity:0.1; fill:none" points="
  1408.68,880.48 1408.68,85.6721 
  "/>
<polyline clip-path="url(#clip512)" style="stroke:#000000; stroke-linecap:round; stroke-linejoin:round; stroke-width:2; stroke-opacity:0.1; fill:none" points="
  1738.6,880.48 1738.6,85.6721 
  "/>
<polyline clip-path="url(#clip510)" style="stroke:#000000; stroke-linecap:round; stroke-linejoin:round; stroke-width:4; stroke-opacity:1; fill:none" points="
  206.166,880.48 1953,880.48 
  "/>
<polyline clip-path="url(#clip510)" style="stroke:#000000; stroke-linecap:round; stroke-linejoin:round; stroke-width:4; stroke-opacity:1; fill:none" points="
  418.916,880.48 418.916,861.582 
  "/>
<polyline clip-path="url(#clip510)" style="stroke:#000000; stroke-linecap:round; stroke-linejoin:round; stroke-width:4; stroke-opacity:1; fill:none" points="
  748.837,880.48 748.837,861.582 
  "/>
<polyline clip-path="url(#clip510)" style="stroke:#000000; stroke-linecap:round; stroke-linejoin:round; stroke-width:4; stroke-opacity:1; fill:none" points="
  1078.76,880.48 1078.76,861.582 
  "/>
<polyline clip-path="url(#clip510)" style="stroke:#000000; stroke-linecap:round; stroke-linejoin:round; stroke-width:4; stroke-opacity:1; fill:none" points="
  1408.68,880.48 1408.68,861.582 
  "/>
<polyline clip-path="url(#clip510)" style="stroke:#000000; stroke-linecap:round; stroke-linejoin:round; stroke-width:4; stroke-opacity:1; fill:none" points="
  1738.6,880.48 1738.6,861.582 
  "/>
<path clip-path="url(#clip510)" d="M389.24 936.536 Q386.092 936.536 384.24 938.689 Q382.411 940.842 382.411 944.592 Q382.411 948.319 384.24 950.495 Q386.092 952.647 389.24 952.647 Q392.388 952.647 394.217 950.495 Q396.069 948.319 396.069 944.592 Q396.069 940.842 394.217 938.689 Q392.388 936.536 389.24 936.536 M398.522 921.884 L398.522 926.143 Q396.763 925.31 394.958 924.87 Q393.175 924.43 391.416 924.43 Q386.786 924.43 384.333 927.555 Q381.902 930.68 381.555 936.999 Q382.921 934.986 384.981 933.921 Q387.041 932.833 389.518 932.833 Q394.726 932.833 397.735 936.004 Q400.768 939.152 400.768 944.592 Q400.768 949.916 397.62 953.134 Q394.472 956.351 389.24 956.351 Q383.245 956.351 380.073 951.768 Q376.902 947.161 376.902 938.435 Q376.902 930.24 380.791 925.379 Q384.68 920.495 391.231 920.495 Q392.99 920.495 394.772 920.842 Q396.578 921.189 398.522 921.884 Z" fill="#000000" fill-rule="evenodd" fill-opacity="1" /><path clip-path="url(#clip510)" d="M418.823 924.199 Q415.212 924.199 413.383 927.763 Q411.578 931.305 411.578 938.435 Q411.578 945.541 413.383 949.106 Q415.212 952.647 418.823 952.647 Q422.457 952.647 424.263 949.106 Q426.092 945.541 426.092 938.435 Q426.092 931.305 424.263 927.763 Q422.457 924.199 418.823 924.199 M418.823 920.495 Q424.633 920.495 427.689 925.101 Q430.768 929.685 430.768 938.435 Q430.768 947.161 427.689 951.768 Q424.633 956.351 418.823 956.351 Q413.013 956.351 409.934 951.768 Q406.879 947.161 406.879 938.435 Q406.879 929.685 409.934 925.101 Q413.013 920.495 418.823 920.495 Z" fill="#000000" fill-rule="evenodd" fill-opacity="1" /><path clip-path="url(#clip510)" d="M448.985 924.199 Q445.374 924.199 443.545 927.763 Q441.74 931.305 441.74 938.435 Q441.74 945.541 443.545 949.106 Q445.374 952.647 448.985 952.647 Q452.619 952.647 454.425 949.106 Q456.254 945.541 456.254 938.435 Q456.254 931.305 454.425 927.763 Q452.619 924.199 448.985 924.199 M448.985 920.495 Q454.795 920.495 457.851 925.101 Q460.929 929.685 460.929 938.435 Q460.929 947.161 457.851 951.768 Q454.795 956.351 448.985 956.351 Q443.175 956.351 440.096 951.768 Q437.041 947.161 437.041 938.435 Q437.041 929.685 440.096 925.101 Q443.175 920.495 448.985 920.495 Z" fill="#000000" fill-rule="evenodd" fill-opacity="1" /><path clip-path="url(#clip510)" d="M718.629 939.268 Q715.295 939.268 713.374 941.05 Q711.476 942.833 711.476 945.958 Q711.476 949.083 713.374 950.865 Q715.295 952.647 718.629 952.647 Q721.962 952.647 723.883 950.865 Q725.805 949.06 725.805 945.958 Q725.805 942.833 723.883 941.05 Q721.985 939.268 718.629 939.268 M713.953 937.277 Q710.943 936.536 709.254 934.476 Q707.587 932.416 707.587 929.453 Q707.587 925.31 710.527 922.902 Q713.49 920.495 718.629 920.495 Q723.791 920.495 726.73 922.902 Q729.67 925.31 729.67 929.453 Q729.67 932.416 727.98 934.476 Q726.314 936.536 723.328 937.277 Q726.707 938.064 728.582 940.356 Q730.48 942.648 730.48 945.958 Q730.48 950.981 727.402 953.666 Q724.346 956.351 718.629 956.351 Q712.911 956.351 709.832 953.666 Q706.777 950.981 706.777 945.958 Q706.777 942.648 708.675 940.356 Q710.573 938.064 713.953 937.277 M712.24 929.893 Q712.24 932.578 713.906 934.083 Q715.596 935.587 718.629 935.587 Q721.638 935.587 723.328 934.083 Q725.041 932.578 725.041 929.893 Q725.041 927.208 723.328 925.703 Q721.638 924.199 718.629 924.199 Q715.596 924.199 713.906 925.703 Q712.24 927.208 712.24 929.893 Z" fill="#000000" fill-rule="evenodd" fill-opacity="1" /><path clip-path="url(#clip510)" d="M748.791 924.199 Q745.179 924.199 743.351 927.763 Q741.545 931.305 741.545 938.435 Q741.545 945.541 743.351 949.106 Q745.179 952.647 748.791 952.647 Q752.425 952.647 754.23 949.106 Q756.059 945.541 756.059 938.435 Q756.059 931.305 754.23 927.763 Q752.425 924.199 748.791 924.199 M748.791 920.495 Q754.601 920.495 757.656 925.101 Q760.735 929.685 760.735 938.435 Q760.735 947.161 757.656 951.768 Q754.601 956.351 748.791 956.351 Q742.98 956.351 739.902 951.768 Q736.846 947.161 736.846 938.435 Q736.846 929.685 739.902 925.101 Q742.98 920.495 748.791 920.495 Z" fill="#000000" fill-rule="evenodd" fill-opacity="1" /><path clip-path="url(#clip510)" d="M778.952 924.199 Q775.341 924.199 773.513 927.763 Q771.707 931.305 771.707 938.435 Q771.707 945.541 773.513 949.106 Q775.341 952.647 778.952 952.647 Q782.587 952.647 784.392 949.106 Q786.221 945.541 786.221 938.435 Q786.221 931.305 784.392 927.763 Q782.587 924.199 778.952 924.199 M778.952 920.495 Q784.763 920.495 787.818 925.101 Q790.897 929.685 790.897 938.435 Q790.897 947.161 787.818 951.768 Q784.763 956.351 778.952 956.351 Q773.142 956.351 770.064 951.768 Q767.008 947.161 767.008 938.435 Q767.008 929.685 770.064 925.101 Q773.142 920.495 778.952 920.495 Z" fill="#000000" fill-rule="evenodd" fill-opacity="1" /><path clip-path="url(#clip510)" d="M1023.28 951.745 L1030.92 951.745 L1030.92 925.379 L1022.61 927.046 L1022.61 922.787 L1030.88 921.12 L1035.55 921.12 L1035.55 951.745 L1043.19 951.745 L1043.19 955.68 L1023.28 955.68 L1023.28 951.745 Z" fill="#000000" fill-rule="evenodd" fill-opacity="1" /><path clip-path="url(#clip510)" d="M1062.64 924.199 Q1059.02 924.199 1057.2 927.763 Q1055.39 931.305 1055.39 938.435 Q1055.39 945.541 1057.2 949.106 Q1059.02 952.647 1062.64 952.647 Q1066.27 952.647 1068.07 949.106 Q1069.9 945.541 1069.9 938.435 Q1069.9 931.305 1068.07 927.763 Q1066.27 924.199 1062.64 924.199 M1062.64 920.495 Q1068.45 920.495 1071.5 925.101 Q1074.58 929.685 1074.58 938.435 Q1074.58 947.161 1071.5 951.768 Q1068.45 956.351 1062.64 956.351 Q1056.83 956.351 1053.75 951.768 Q1050.69 947.161 1050.69 938.435 Q1050.69 929.685 1053.75 925.101 Q1056.83 920.495 1062.64 920.495 Z" fill="#000000" fill-rule="evenodd" fill-opacity="1" /><path clip-path="url(#clip510)" d="M1092.8 924.199 Q1089.19 924.199 1087.36 927.763 Q1085.55 931.305 1085.55 938.435 Q1085.55 945.541 1087.36 949.106 Q1089.19 952.647 1092.8 952.647 Q1096.43 952.647 1098.24 949.106 Q1100.07 945.541 1100.07 938.435 Q1100.07 931.305 1098.24 927.763 Q1096.43 924.199 1092.8 924.199 M1092.8 920.495 Q1098.61 920.495 1101.66 925.101 Q1104.74 929.685 1104.74 938.435 Q1104.74 947.161 1101.66 951.768 Q1098.61 956.351 1092.8 956.351 Q1086.99 956.351 1083.91 951.768 Q1080.85 947.161 1080.85 938.435 Q1080.85 929.685 1083.91 925.101 Q1086.99 920.495 1092.8 920.495 Z" fill="#000000" fill-rule="evenodd" fill-opacity="1" /><path clip-path="url(#clip510)" d="M1122.96 924.199 Q1119.35 924.199 1117.52 927.763 Q1115.71 931.305 1115.71 938.435 Q1115.71 945.541 1117.52 949.106 Q1119.35 952.647 1122.96 952.647 Q1126.59 952.647 1128.4 949.106 Q1130.23 945.541 1130.23 938.435 Q1130.23 931.305 1128.4 927.763 Q1126.59 924.199 1122.96 924.199 M1122.96 920.495 Q1128.77 920.495 1131.82 925.101 Q1134.9 929.685 1134.9 938.435 Q1134.9 947.161 1131.82 951.768 Q1128.77 956.351 1122.96 956.351 Q1117.15 956.351 1114.07 951.768 Q1111.01 947.161 1111.01 938.435 Q1111.01 929.685 1114.07 925.101 Q1117.15 920.495 1122.96 920.495 Z" fill="#000000" fill-rule="evenodd" fill-opacity="1" /><path clip-path="url(#clip510)" d="M1353.2 951.745 L1360.84 951.745 L1360.84 925.379 L1352.53 927.046 L1352.53 922.787 L1360.8 921.12 L1365.47 921.12 L1365.47 951.745 L1373.11 951.745 L1373.11 955.68 L1353.2 955.68 L1353.2 951.745 Z" fill="#000000" fill-rule="evenodd" fill-opacity="1" /><path clip-path="url(#clip510)" d="M1386.58 951.745 L1402.9 951.745 L1402.9 955.68 L1380.96 955.68 L1380.96 951.745 Q1383.62 948.99 1388.2 944.36 Q1392.81 939.708 1393.99 938.365 Q1396.24 935.842 1397.12 934.106 Q1398.02 932.347 1398.02 930.657 Q1398.02 927.902 1396.07 926.166 Q1394.15 924.43 1391.05 924.43 Q1388.85 924.43 1386.4 925.194 Q1383.97 925.958 1381.19 927.509 L1381.19 922.787 Q1384.01 921.652 1386.47 921.074 Q1388.92 920.495 1390.96 920.495 Q1396.33 920.495 1399.52 923.18 Q1402.72 925.865 1402.72 930.356 Q1402.72 932.486 1401.91 934.407 Q1401.12 936.305 1399.01 938.898 Q1398.44 939.569 1395.33 942.786 Q1392.23 945.981 1386.58 951.745 Z" fill="#000000" fill-rule="evenodd" fill-opacity="1" /><path clip-path="url(#clip510)" d="M1422.72 924.199 Q1419.11 924.199 1417.28 927.763 Q1415.47 931.305 1415.47 938.435 Q1415.47 945.541 1417.28 949.106 Q1419.11 952.647 1422.72 952.647 Q1426.35 952.647 1428.16 949.106 Q1429.99 945.541 1429.99 938.435 Q1429.99 931.305 1428.16 927.763 Q1426.35 924.199 1422.72 924.199 M1422.72 920.495 Q1428.53 920.495 1431.58 925.101 Q1434.66 929.685 1434.66 938.435 Q1434.66 947.161 1431.58 951.768 Q1428.53 956.351 1422.72 956.351 Q1416.91 956.351 1413.83 951.768 Q1410.77 947.161 1410.77 938.435 Q1410.77 929.685 1413.83 925.101 Q1416.91 920.495 1422.72 920.495 Z" fill="#000000" fill-rule="evenodd" fill-opacity="1" /><path clip-path="url(#clip510)" d="M1452.88 924.199 Q1449.27 924.199 1447.44 927.763 Q1445.63 931.305 1445.63 938.435 Q1445.63 945.541 1447.44 949.106 Q1449.27 952.647 1452.88 952.647 Q1456.51 952.647 1458.32 949.106 Q1460.15 945.541 1460.15 938.435 Q1460.15 931.305 1458.32 927.763 Q1456.51 924.199 1452.88 924.199 M1452.88 920.495 Q1458.69 920.495 1461.75 925.101 Q1464.82 929.685 1464.82 938.435 Q1464.82 947.161 1461.75 951.768 Q1458.69 956.351 1452.88 956.351 Q1447.07 956.351 1443.99 951.768 Q1440.94 947.161 1440.94 938.435 Q1440.94 929.685 1443.99 925.101 Q1447.07 920.495 1452.88 920.495 Z" fill="#000000" fill-rule="evenodd" fill-opacity="1" /><path clip-path="url(#clip510)" d="M1683.13 951.745 L1690.76 951.745 L1690.76 925.379 L1682.45 927.046 L1682.45 922.787 L1690.72 921.12 L1695.39 921.12 L1695.39 951.745 L1703.03 951.745 L1703.03 955.68 L1683.13 955.68 L1683.13 951.745 Z" fill="#000000" fill-rule="evenodd" fill-opacity="1" /><path clip-path="url(#clip510)" d="M1725.32 925.194 L1713.52 943.643 L1725.32 943.643 L1725.32 925.194 M1724.1 921.12 L1729.98 921.12 L1729.98 943.643 L1734.91 943.643 L1734.91 947.532 L1729.98 947.532 L1729.98 955.68 L1725.32 955.68 L1725.32 947.532 L1709.72 947.532 L1709.72 943.018 L1724.1 921.12 Z" fill="#000000" fill-rule="evenodd" fill-opacity="1" /><path clip-path="url(#clip510)" d="M1752.64 924.199 Q1749.03 924.199 1747.2 927.763 Q1745.39 931.305 1745.39 938.435 Q1745.39 945.541 1747.2 949.106 Q1749.03 952.647 1752.64 952.647 Q1756.27 952.647 1758.08 949.106 Q1759.91 945.541 1759.91 938.435 Q1759.91 931.305 1758.08 927.763 Q1756.27 924.199 1752.64 924.199 M1752.64 920.495 Q1758.45 920.495 1761.5 925.101 Q1764.58 929.685 1764.58 938.435 Q1764.58 947.161 1761.5 951.768 Q1758.45 956.351 1752.64 956.351 Q1746.83 956.351 1743.75 951.768 Q1740.69 947.161 1740.69 938.435 Q1740.69 929.685 1743.75 925.101 Q1746.83 920.495 1752.64 920.495 Z" fill="#000000" fill-rule="evenodd" fill-opacity="1" /><path clip-path="url(#clip510)" d="M1782.8 924.199 Q1779.19 924.199 1777.36 927.763 Q1775.56 931.305 1775.56 938.435 Q1775.56 945.541 1777.36 949.106 Q1779.19 952.647 1782.8 952.647 Q1786.44 952.647 1788.24 949.106 Q1790.07 945.541 1790.07 938.435 Q1790.07 931.305 1788.24 927.763 Q1786.44 924.199 1782.8 924.199 M1782.8 920.495 Q1788.61 920.495 1791.67 925.101 Q1794.75 929.685 1794.75 938.435 Q1794.75 947.161 1791.67 951.768 Q1788.61 956.351 1782.8 956.351 Q1776.99 956.351 1773.91 951.768 Q1770.86 947.161 1770.86 938.435 Q1770.86 929.685 1773.91 925.101 Q1776.99 920.495 1782.8 920.495 Z" fill="#000000" fill-rule="evenodd" fill-opacity="1" /><path clip-path="url(#clip510)" d="M947.303 1001.82 L953.733 1001.82 L953.733 1049.34 L947.303 1049.34 L947.303 1001.82 Z" fill="#000000" fill-rule="evenodd" fill-opacity="1" /><path clip-path="url(#clip510)" d="M972.066 1003.57 L972.066 1013.7 L984.129 1013.7 L984.129 1018.25 L972.066 1018.25 L972.066 1037.6 Q972.066 1041.96 973.243 1043.2 Q974.453 1044.44 978.113 1044.44 L984.129 1044.44 L984.129 1049.34 L978.113 1049.34 Q971.334 1049.34 968.756 1046.83 Q966.178 1044.28 966.178 1037.6 L966.178 1018.25 L961.881 1018.25 L961.881 1013.7 L966.178 1013.7 L966.178 1003.57 L972.066 1003.57 Z" fill="#000000" fill-rule="evenodd" fill-opacity="1" /><path clip-path="url(#clip510)" d="M1022.32 1030.06 L1022.32 1032.92 L995.396 1032.92 Q995.778 1038.97 999.025 1042.15 Q1002.3 1045.3 1008.13 1045.3 Q1011.5 1045.3 1014.65 1044.47 Q1017.84 1043.65 1020.95 1041.99 L1020.95 1047.53 Q1017.8 1048.87 1014.49 1049.57 Q1011.18 1050.27 1007.78 1050.27 Q999.247 1050.27 994.25 1045.3 Q989.285 1040.34 989.285 1031.87 Q989.285 1023.12 993.996 1017.99 Q998.738 1012.84 1006.76 1012.84 Q1013.95 1012.84 1018.12 1017.48 Q1022.32 1022.1 1022.32 1030.06 M1016.47 1028.34 Q1016.4 1023.53 1013.76 1020.67 Q1011.15 1017.8 1006.82 1017.8 Q1001.92 1017.8 998.961 1020.57 Q996.033 1023.34 995.587 1028.37 L1016.47 1028.34 Z" fill="#000000" fill-rule="evenodd" fill-opacity="1" /><path clip-path="url(#clip510)" d="M1052.59 1019.17 Q1051.61 1018.6 1050.43 1018.34 Q1049.28 1018.06 1047.88 1018.06 Q1042.92 1018.06 1040.24 1021.3 Q1037.6 1024.52 1037.6 1030.57 L1037.6 1049.34 L1031.71 1049.34 L1031.71 1013.7 L1037.6 1013.7 L1037.6 1019.23 Q1039.45 1015.99 1042.41 1014.43 Q1045.37 1012.84 1049.6 1012.84 Q1050.2 1012.84 1050.94 1012.93 Q1051.67 1013 1052.56 1013.15 L1052.59 1019.17 Z" fill="#000000" fill-rule="evenodd" fill-opacity="1" /><path clip-path="url(#clip510)" d="M1074.94 1031.42 Q1067.84 1031.42 1065.1 1033.05 Q1062.36 1034.67 1062.36 1038.59 Q1062.36 1041.7 1064.4 1043.55 Q1066.47 1045.37 1070 1045.37 Q1074.87 1045.37 1077.8 1041.93 Q1080.76 1038.46 1080.76 1032.73 L1080.76 1031.42 L1074.94 1031.42 M1086.62 1029.01 L1086.62 1049.34 L1080.76 1049.34 L1080.76 1043.93 Q1078.76 1047.18 1075.76 1048.74 Q1072.77 1050.27 1068.44 1050.27 Q1062.97 1050.27 1059.72 1047.21 Q1056.51 1044.12 1056.51 1038.97 Q1056.51 1032.95 1060.52 1029.9 Q1064.56 1026.84 1072.55 1026.84 L1080.76 1026.84 L1080.76 1026.27 Q1080.76 1022.23 1078.09 1020.03 Q1075.44 1017.8 1070.64 1017.8 Q1067.58 1017.8 1064.69 1018.53 Q1061.79 1019.27 1059.12 1020.73 L1059.12 1015.32 Q1062.33 1014.08 1065.36 1013.47 Q1068.38 1012.84 1071.24 1012.84 Q1078.98 1012.84 1082.8 1016.85 Q1086.62 1020.86 1086.62 1029.01 Z" fill="#000000" fill-rule="evenodd" fill-opacity="1" /><path clip-path="url(#clip510)" d="M1104.47 1003.57 L1104.47 1013.7 L1116.54 1013.7 L1116.54 1018.25 L1104.47 1018.25 L1104.47 1037.6 Q1104.47 1041.96 1105.65 1043.2 Q1106.86 1044.44 1110.52 1044.44 L1116.54 1044.44 L1116.54 1049.34 L1110.52 1049.34 Q1103.74 1049.34 1101.16 1046.83 Q1098.58 1044.28 1098.58 1037.6 L1098.58 1018.25 L1094.29 1018.25 L1094.29 1013.7 L1098.58 1013.7 L1098.58 1003.57 L1104.47 1003.57 Z" fill="#000000" fill-rule="evenodd" fill-opacity="1" /><path clip-path="url(#clip510)" d="M1124.24 1013.7 L1130.09 1013.7 L1130.09 1049.34 L1124.24 1049.34 L1124.24 1013.7 M1124.24 999.819 L1130.09 999.819 L1130.09 1007.23 L1124.24 1007.23 L1124.24 999.819 Z" fill="#000000" fill-rule="evenodd" fill-opacity="1" /><path clip-path="url(#clip510)" d="M1156.16 1017.8 Q1151.45 1017.8 1148.71 1021.49 Q1145.98 1025.15 1145.98 1031.55 Q1145.98 1037.95 1148.68 1041.64 Q1151.42 1045.3 1156.16 1045.3 Q1160.84 1045.3 1163.58 1041.61 Q1166.32 1037.92 1166.32 1031.55 Q1166.32 1025.22 1163.58 1021.53 Q1160.84 1017.8 1156.16 1017.8 M1156.16 1012.84 Q1163.8 1012.84 1168.16 1017.8 Q1172.52 1022.77 1172.52 1031.55 Q1172.52 1040.3 1168.16 1045.3 Q1163.8 1050.27 1156.16 1050.27 Q1148.49 1050.27 1144.13 1045.3 Q1139.8 1040.3 1139.8 1031.55 Q1139.8 1022.77 1144.13 1017.8 Q1148.49 1012.84 1156.16 1012.84 Z" fill="#000000" fill-rule="evenodd" fill-opacity="1" /><path clip-path="url(#clip510)" d="M1211.86 1027.83 L1211.86 1049.34 L1206.01 1049.34 L1206.01 1028.02 Q1206.01 1022.96 1204.03 1020.44 Q1202.06 1017.93 1198.11 1017.93 Q1193.37 1017.93 1190.63 1020.95 Q1187.9 1023.98 1187.9 1029.2 L1187.9 1049.34 L1182.01 1049.34 L1182.01 1013.7 L1187.9 1013.7 L1187.9 1019.23 Q1190 1016.02 1192.83 1014.43 Q1195.69 1012.84 1199.42 1012.84 Q1205.56 1012.84 1208.71 1016.66 Q1211.86 1020.44 1211.86 1027.83 Z" fill="#000000" fill-rule="evenodd" fill-opacity="1" /><polyline clip-path="url(#clip512)" style="stroke:#000000; stroke-linecap:round; stroke-linejoin:round; stroke-width:2; stroke-opacity:0.1; fill:none" points="
  206.166,835.052 1953,835.052 
  "/>
<polyline clip-path="url(#clip512)" style="stroke:#000000; stroke-linecap:round; stroke-linejoin:round; stroke-width:2; stroke-opacity:0.1; fill:none" points="
  206.166,642.905 1953,642.905 
  "/>
<polyline clip-path="url(#clip512)" style="stroke:#000000; stroke-linecap:round; stroke-linejoin:round; stroke-width:2; stroke-opacity:0.1; fill:none" points="
  206.166,450.757 1953,450.757 
  "/>
<polyline clip-path="url(#clip512)" style="stroke:#000000; stroke-linecap:round; stroke-linejoin:round; stroke-width:2; stroke-opacity:0.1; fill:none" points="
  206.166,258.61 1953,258.61 
  "/>
<polyline clip-path="url(#clip510)" style="stroke:#000000; stroke-linecap:round; stroke-linejoin:round; stroke-width:4; stroke-opacity:1; fill:none" points="
  206.166,880.48 206.166,85.6721 
  "/>
<polyline clip-path="url(#clip510)" style="stroke:#000000; stroke-linecap:round; stroke-linejoin:round; stroke-width:4; stroke-opacity:1; fill:none" points="
  206.166,835.052 225.064,835.052 
  "/>
<polyline clip-path="url(#clip510)" style="stroke:#000000; stroke-linecap:round; stroke-linejoin:round; stroke-width:4; stroke-opacity:1; fill:none" points="
  206.166,642.905 225.064,642.905 
  "/>
<polyline clip-path="url(#clip510)" style="stroke:#000000; stroke-linecap:round; stroke-linejoin:round; stroke-width:4; stroke-opacity:1; fill:none" points="
  206.166,450.757 225.064,450.757 
  "/>
<polyline clip-path="url(#clip510)" style="stroke:#000000; stroke-linecap:round; stroke-linejoin:round; stroke-width:4; stroke-opacity:1; fill:none" points="
  206.166,258.61 225.064,258.61 
  "/>
<path clip-path="url(#clip510)" d="M90.5879 820.851 Q86.9768 820.851 85.1481 824.416 Q83.3425 827.957 83.3425 835.087 Q83.3425 842.193 85.1481 845.758 Q86.9768 849.3 90.5879 849.3 Q94.2221 849.3 96.0276 845.758 Q97.8563 842.193 97.8563 835.087 Q97.8563 827.957 96.0276 824.416 Q94.2221 820.851 90.5879 820.851 M90.5879 817.147 Q96.398 817.147 99.4536 821.754 Q102.532 826.337 102.532 835.087 Q102.532 843.814 99.4536 848.42 Q96.398 853.004 90.5879 853.004 Q84.7777 853.004 81.699 848.42 Q78.6435 843.814 78.6435 835.087 Q78.6435 826.337 81.699 821.754 Q84.7777 817.147 90.5879 817.147 Z" fill="#000000" fill-rule="evenodd" fill-opacity="1" /><path clip-path="url(#clip510)" d="M110.75 846.453 L115.634 846.453 L115.634 852.332 L110.75 852.332 L110.75 846.453 Z" fill="#000000" fill-rule="evenodd" fill-opacity="1" /><path clip-path="url(#clip510)" d="M129.847 848.397 L146.166 848.397 L146.166 852.332 L124.222 852.332 L124.222 848.397 Q126.884 845.642 131.467 841.013 Q136.074 836.36 137.254 835.017 Q139.5 832.494 140.379 830.758 Q141.282 828.999 141.282 827.309 Q141.282 824.555 139.338 822.818 Q137.416 821.082 134.314 821.082 Q132.115 821.082 129.662 821.846 Q127.231 822.61 124.453 824.161 L124.453 819.439 Q127.277 818.305 129.731 817.726 Q132.185 817.147 134.222 817.147 Q139.592 817.147 142.787 819.832 Q145.981 822.518 145.981 827.008 Q145.981 829.138 145.171 831.059 Q144.384 832.957 142.277 835.55 Q141.699 836.221 138.597 839.439 Q135.495 842.633 129.847 848.397 Z" fill="#000000" fill-rule="evenodd" fill-opacity="1" /><path clip-path="url(#clip510)" d="M88.5045 628.703 Q84.8934 628.703 83.0648 632.268 Q81.2592 635.81 81.2592 642.939 Q81.2592 650.046 83.0648 653.611 Q84.8934 657.152 88.5045 657.152 Q92.1388 657.152 93.9443 653.611 Q95.773 650.046 95.773 642.939 Q95.773 635.81 93.9443 632.268 Q92.1388 628.703 88.5045 628.703 M88.5045 625 Q94.3147 625 97.3702 629.606 Q100.449 634.189 100.449 642.939 Q100.449 651.666 97.3702 656.273 Q94.3147 660.856 88.5045 660.856 Q82.6944 660.856 79.6157 656.273 Q76.5602 651.666 76.5602 642.939 Q76.5602 634.189 79.6157 629.606 Q82.6944 625 88.5045 625 Z" fill="#000000" fill-rule="evenodd" fill-opacity="1" /><path clip-path="url(#clip510)" d="M108.666 654.305 L113.551 654.305 L113.551 660.185 L108.666 660.185 L108.666 654.305 Z" fill="#000000" fill-rule="evenodd" fill-opacity="1" /><path clip-path="url(#clip510)" d="M136.583 629.699 L124.777 648.148 L136.583 648.148 L136.583 629.699 M135.356 625.625 L141.236 625.625 L141.236 648.148 L146.166 648.148 L146.166 652.037 L141.236 652.037 L141.236 660.185 L136.583 660.185 L136.583 652.037 L120.981 652.037 L120.981 647.523 L135.356 625.625 Z" fill="#000000" fill-rule="evenodd" fill-opacity="1" /><path clip-path="url(#clip510)" d="M88.8286 436.556 Q85.2175 436.556 83.3888 440.121 Q81.5833 443.662 81.5833 450.792 Q81.5833 457.898 83.3888 461.463 Q85.2175 465.005 88.8286 465.005 Q92.4629 465.005 94.2684 461.463 Q96.0971 457.898 96.0971 450.792 Q96.0971 443.662 94.2684 440.121 Q92.4629 436.556 88.8286 436.556 M88.8286 432.852 Q94.6388 432.852 97.6943 437.459 Q100.773 442.042 100.773 450.792 Q100.773 459.519 97.6943 464.125 Q94.6388 468.708 88.8286 468.708 Q83.0185 468.708 79.9398 464.125 Q76.8842 459.519 76.8842 450.792 Q76.8842 442.042 79.9398 437.459 Q83.0185 432.852 88.8286 432.852 Z" fill="#000000" fill-rule="evenodd" fill-opacity="1" /><path clip-path="url(#clip510)" d="M108.991 462.158 L113.875 462.158 L113.875 468.037 L108.991 468.037 L108.991 462.158 Z" fill="#000000" fill-rule="evenodd" fill-opacity="1" /><path clip-path="url(#clip510)" d="M134.639 448.894 Q131.49 448.894 129.639 451.046 Q127.81 453.199 127.81 456.949 Q127.81 460.676 129.639 462.852 Q131.49 465.005 134.639 465.005 Q137.787 465.005 139.615 462.852 Q141.467 460.676 141.467 456.949 Q141.467 453.199 139.615 451.046 Q137.787 448.894 134.639 448.894 M143.921 434.241 L143.921 438.5 Q142.162 437.667 140.356 437.227 Q138.574 436.787 136.814 436.787 Q132.185 436.787 129.731 439.912 Q127.301 443.037 126.953 449.357 Q128.319 447.343 130.379 446.278 Q132.439 445.19 134.916 445.19 Q140.125 445.19 143.134 448.361 Q146.166 451.509 146.166 456.949 Q146.166 462.273 143.018 465.491 Q139.87 468.708 134.639 468.708 Q128.643 468.708 125.472 464.125 Q122.301 459.519 122.301 450.792 Q122.301 442.597 126.19 437.736 Q130.078 432.852 136.629 432.852 Q138.389 432.852 140.171 433.199 Q141.976 433.547 143.921 434.241 Z" fill="#000000" fill-rule="evenodd" fill-opacity="1" /><path clip-path="url(#clip510)" d="M89.0832 244.408 Q85.4721 244.408 83.6435 247.973 Q81.8379 251.515 81.8379 258.644 Q81.8379 265.751 83.6435 269.316 Q85.4721 272.857 89.0832 272.857 Q92.7175 272.857 94.523 269.316 Q96.3517 265.751 96.3517 258.644 Q96.3517 251.515 94.523 247.973 Q92.7175 244.408 89.0832 244.408 M89.0832 240.705 Q94.8934 240.705 97.9489 245.311 Q101.028 249.894 101.028 258.644 Q101.028 267.371 97.9489 271.978 Q94.8934 276.561 89.0832 276.561 Q83.2731 276.561 80.1944 271.978 Q77.1389 267.371 77.1389 258.644 Q77.1389 249.894 80.1944 245.311 Q83.2731 240.705 89.0832 240.705 Z" fill="#000000" fill-rule="evenodd" fill-opacity="1" /><path clip-path="url(#clip510)" d="M109.245 270.01 L114.129 270.01 L114.129 275.89 L109.245 275.89 L109.245 270.01 Z" fill="#000000" fill-rule="evenodd" fill-opacity="1" /><path clip-path="url(#clip510)" d="M134.314 259.478 Q130.981 259.478 129.06 261.26 Q127.162 263.042 127.162 266.167 Q127.162 269.292 129.06 271.075 Q130.981 272.857 134.314 272.857 Q137.648 272.857 139.569 271.075 Q141.49 269.269 141.49 266.167 Q141.49 263.042 139.569 261.26 Q137.671 259.478 134.314 259.478 M129.639 257.487 Q126.629 256.746 124.94 254.686 Q123.273 252.626 123.273 249.663 Q123.273 245.519 126.213 243.112 Q129.176 240.705 134.314 240.705 Q139.476 240.705 142.416 243.112 Q145.356 245.519 145.356 249.663 Q145.356 252.626 143.666 254.686 Q142 256.746 139.014 257.487 Q142.393 258.274 144.268 260.566 Q146.166 262.857 146.166 266.167 Q146.166 271.191 143.088 273.876 Q140.032 276.561 134.314 276.561 Q128.597 276.561 125.518 273.876 Q122.463 271.191 122.463 266.167 Q122.463 262.857 124.361 260.566 Q126.259 258.274 129.639 257.487 M127.926 250.103 Q127.926 252.788 129.592 254.293 Q131.282 255.797 134.314 255.797 Q137.324 255.797 139.014 254.293 Q140.726 252.788 140.726 250.103 Q140.726 247.418 139.014 245.913 Q137.324 244.408 134.314 244.408 Q131.282 244.408 129.592 245.913 Q127.926 247.418 127.926 250.103 Z" fill="#000000" fill-rule="evenodd" fill-opacity="1" /><path clip-path="url(#clip510)" d="M-43.6562 670.196 L-37.386 670.196 Q-39.1366 673.856 -39.996 677.103 Q-40.8553 680.349 -40.8553 683.373 Q-40.8553 688.625 -38.8183 691.489 Q-36.7813 694.322 -33.0255 694.322 Q-29.8745 694.322 -28.2512 692.444 Q-26.6598 690.534 -25.6731 685.251 L-24.8774 681.368 Q-23.5088 674.174 -20.0395 670.769 Q-16.602 667.331 -10.8092 667.331 Q-3.90241 667.331 -0.337611 671.978 Q3.22718 676.593 3.22718 685.537 Q3.22718 688.911 2.4633 692.731 Q1.69942 696.518 0.203474 700.592 L-6.41686 700.592 Q-4.22069 696.677 -3.10669 692.922 Q-1.99269 689.166 -1.99269 685.537 Q-1.99269 680.031 -4.15703 677.039 Q-6.32138 674.047 -10.3318 674.047 Q-13.8329 674.047 -15.8063 676.212 Q-17.7796 678.344 -18.7663 683.246 L-19.5302 687.161 Q-20.9625 694.354 -24.018 697.568 Q-27.0736 700.783 -32.5163 700.783 Q-38.8183 700.783 -42.4468 696.359 Q-46.0752 691.903 -46.0752 684.105 Q-46.0752 680.763 -45.4705 677.294 Q-44.8657 673.824 -43.6562 670.196 Z" fill="#000000" fill-rule="evenodd" fill-opacity="1" /><path clip-path="url(#clip510)" d="M-15.6153 641.359 Q-15.6153 648.457 -13.9921 651.194 Q-12.3688 653.932 -8.45389 653.932 Q-5.33469 653.932 -3.48864 651.895 Q-1.67441 649.826 -1.67441 646.293 Q-1.67441 641.423 -5.11189 638.495 Q-8.5812 635.535 -14.3103 635.535 L-15.6153 635.535 L-15.6153 641.359 M-18.0343 629.678 L2.30416 629.678 L2.30416 635.535 L-3.10669 635.535 Q0.139817 637.54 1.69942 640.532 Q3.22718 643.524 3.22718 647.852 Q3.22718 653.327 0.171646 656.573 Q-2.91572 659.788 -8.07194 659.788 Q-14.0875 659.788 -17.1431 655.778 Q-20.1986 651.735 -20.1986 643.746 L-20.1986 635.535 L-20.7715 635.535 Q-24.8138 635.535 -27.0099 638.208 Q-29.2379 640.85 -29.2379 645.656 Q-29.2379 648.712 -28.5059 651.608 Q-27.7738 654.504 -26.3097 657.178 L-31.7205 657.178 Q-32.9619 653.963 -33.5666 650.94 Q-34.2032 647.916 -34.2032 645.051 Q-34.2032 637.317 -30.1928 633.498 Q-26.1824 629.678 -18.0343 629.678 Z" fill="#000000" fill-rule="evenodd" fill-opacity="1" /><path clip-path="url(#clip510)" d="M-26.5007 589.861 Q-30.4474 587.665 -32.3253 584.609 Q-34.2032 581.553 -34.2032 577.416 Q-34.2032 571.846 -30.2883 568.822 Q-26.4052 565.798 -19.2119 565.798 L2.30416 565.798 L2.30416 571.687 L-19.021 571.687 Q-24.1454 571.687 -26.628 573.501 Q-29.1106 575.315 -29.1106 579.039 Q-29.1106 583.59 -26.0869 586.232 Q-23.0632 588.874 -17.8433 588.874 L2.30416 588.874 L2.30416 594.762 L-19.021 594.762 Q-24.1772 594.762 -26.628 596.577 Q-29.1106 598.391 -29.1106 602.178 Q-29.1106 606.666 -26.0551 609.308 Q-23.0314 611.95 -17.8433 611.95 L2.30416 611.95 L2.30416 617.838 L-33.3438 617.838 L-33.3438 611.95 L-27.8056 611.95 Q-31.084 609.945 -32.6436 607.144 Q-34.2032 604.343 -34.2032 600.491 Q-34.2032 596.608 -32.2298 593.903 Q-30.2564 591.166 -26.5007 589.861 Z" fill="#000000" fill-rule="evenodd" fill-opacity="1" /><path clip-path="url(#clip510)" d="M-3.04304 548.452 L15.8631 548.452 L15.8631 554.34 L-33.3438 554.34 L-33.3438 548.452 L-27.9329 548.452 Q-31.1158 546.606 -32.6436 543.805 Q-34.2032 540.972 -34.2032 537.057 Q-34.2032 530.564 -29.0469 526.522 Q-23.8907 522.448 -15.488 522.448 Q-7.08526 522.448 -1.92904 526.522 Q3.22718 530.564 3.22718 537.057 Q3.22718 540.972 1.69942 543.805 Q0.139817 546.606 -3.04304 548.452 M-15.488 528.527 Q-21.9492 528.527 -25.6095 531.201 Q-29.3016 533.842 -29.3016 538.489 Q-29.3016 543.136 -25.6095 545.81 Q-21.9492 548.452 -15.488 548.452 Q-9.0268 548.452 -5.33469 545.81 Q-1.67441 543.136 -1.67441 538.489 Q-1.67441 533.842 -5.33469 531.201 Q-9.0268 528.527 -15.488 528.527 Z" fill="#000000" fill-rule="evenodd" fill-opacity="1" /><path clip-path="url(#clip510)" d="M-47.221 512.74 L-47.221 506.884 L2.30416 506.884 L2.30416 512.74 L-47.221 512.74 Z" fill="#000000" fill-rule="evenodd" fill-opacity="1" /><path clip-path="url(#clip510)" d="M-16.9839 464.138 L-14.1194 464.138 L-14.1194 491.065 Q-8.07194 490.683 -4.88909 487.436 Q-1.73807 484.158 -1.73807 478.334 Q-1.73807 474.96 -2.56561 471.809 Q-3.39315 468.626 -5.04823 465.507 L0.489931 465.507 Q1.82673 468.658 2.52696 471.968 Q3.22718 475.278 3.22718 478.684 Q3.22718 487.214 -1.73807 492.211 Q-6.70332 497.176 -15.1697 497.176 Q-23.9226 497.176 -29.0469 492.465 Q-34.2032 487.723 -34.2032 479.702 Q-34.2032 472.509 -29.5562 468.339 Q-24.9411 464.138 -16.9839 464.138 M-18.7027 469.994 Q-23.5088 470.058 -26.3734 472.7 Q-29.2379 475.31 -29.2379 479.639 Q-29.2379 484.54 -26.4688 487.5 Q-23.6998 490.428 -18.6708 490.874 L-18.7027 469.994 Z" fill="#000000" fill-rule="evenodd" fill-opacity="1" /><path clip-path="url(#clip510)" d="M-33.3438 438.007 L-33.3438 431.8 L-3.42498 420.66 L-33.3438 409.52 L-33.3438 403.314 L2.30416 416.682 L2.30416 424.639 L-33.3438 438.007 Z" fill="#000000" fill-rule="evenodd" fill-opacity="1" /><path clip-path="url(#clip510)" d="M-15.6153 379.029 Q-15.6153 386.126 -13.9921 388.864 Q-12.3688 391.601 -8.45389 391.601 Q-5.33469 391.601 -3.48864 389.564 Q-1.67441 387.495 -1.67441 383.962 Q-1.67441 379.092 -5.11189 376.164 Q-8.5812 373.204 -14.3103 373.204 L-15.6153 373.204 L-15.6153 379.029 M-18.0343 367.347 L2.30416 367.347 L2.30416 373.204 L-3.10669 373.204 Q0.139817 375.209 1.69942 378.201 Q3.22718 381.193 3.22718 385.522 Q3.22718 390.996 0.171646 394.243 Q-2.91572 397.457 -8.07194 397.457 Q-14.0875 397.457 -17.1431 393.447 Q-20.1986 389.405 -20.1986 381.416 L-20.1986 373.204 L-20.7715 373.204 Q-24.8138 373.204 -27.0099 375.877 Q-29.2379 378.519 -29.2379 383.325 Q-29.2379 386.381 -28.5059 389.277 Q-27.7738 392.174 -26.3097 394.847 L-31.7205 394.847 Q-32.9619 391.633 -33.5666 388.609 Q-34.2032 385.585 -34.2032 382.721 Q-34.2032 374.986 -30.1928 371.167 Q-26.1824 367.347 -18.0343 367.347 Z" fill="#000000" fill-rule="evenodd" fill-opacity="1" /><path clip-path="url(#clip510)" d="M-47.221 355.284 L-47.221 349.428 L2.30416 349.428 L2.30416 355.284 L-47.221 355.284 Z" fill="#000000" fill-rule="evenodd" fill-opacity="1" /><path clip-path="url(#clip510)" d="M-11.7641 337.779 L-33.3438 337.779 L-33.3438 331.922 L-11.9869 331.922 Q-6.92612 331.922 -4.37983 329.949 Q-1.86538 327.976 -1.86538 324.029 Q-1.86538 319.286 -4.88909 316.549 Q-7.9128 313.78 -13.1327 313.78 L-33.3438 313.78 L-33.3438 307.924 L2.30416 307.924 L2.30416 313.78 L-3.17035 313.78 Q0.0761602 315.913 1.66759 318.745 Q3.22718 321.546 3.22718 325.27 Q3.22718 331.413 -0.592239 334.596 Q-4.41166 337.779 -11.7641 337.779 M-34.2032 323.042 L-34.2032 323.042 Z" fill="#000000" fill-rule="evenodd" fill-opacity="1" /><path clip-path="url(#clip510)" d="M-16.9839 265.369 L-14.1194 265.369 L-14.1194 292.296 Q-8.07194 291.914 -4.88909 288.667 Q-1.73807 285.389 -1.73807 279.564 Q-1.73807 276.191 -2.56561 273.039 Q-3.39315 269.857 -5.04823 266.737 L0.489931 266.737 Q1.82673 269.888 2.52696 273.199 Q3.22718 276.509 3.22718 279.914 Q3.22718 288.445 -1.73807 293.442 Q-6.70332 298.407 -15.1697 298.407 Q-23.9226 298.407 -29.0469 293.696 Q-34.2032 288.954 -34.2032 280.933 Q-34.2032 273.74 -29.5562 269.57 Q-24.9411 265.369 -16.9839 265.369 M-18.7027 271.225 Q-23.5088 271.289 -26.3734 273.931 Q-29.2379 276.541 -29.2379 280.869 Q-29.2379 285.771 -26.4688 288.731 Q-23.6998 291.659 -18.6708 292.105 L-18.7027 271.225 Z" fill="#000000" fill-rule="evenodd" fill-opacity="1" /><path clip-path="url(#clip510)" d="M1092.46 43.8146 L1066.66 43.8146 Q1067.27 55.9268 1070.06 61.0714 Q1073.55 67.3908 1079.58 67.3908 Q1085.66 67.3908 1089.02 61.0309 Q1091.98 55.4407 1092.46 43.8146 M1092.34 36.928 Q1091.21 25.4235 1089.02 21.3726 Q1085.54 14.9721 1079.58 14.9721 Q1073.38 14.9721 1070.1 21.2916 Q1067.51 26.3957 1066.74 36.928 L1092.34 36.928 M1079.58 8.89579 Q1089.3 8.89579 1094.85 17.4837 Q1100.4 26.0311 1100.4 41.1815 Q1100.4 56.2914 1094.85 64.8793 Q1089.3 73.5077 1079.58 73.5077 Q1069.82 73.5077 1064.31 64.8793 Q1058.76 56.2914 1058.76 41.1815 Q1058.76 26.0311 1064.31 17.4837 Q1069.82 8.89579 1079.58 8.89579 Z" fill="#000000" fill-rule="evenodd" fill-opacity="1" /><polyline clip-path="url(#clip512)" style="stroke:#009af9; stroke-linecap:round; stroke-linejoin:round; stroke-width:4; stroke-opacity:1; fill:none" points="
  255.605,536.708 257.255,408.295 258.904,408.295 260.554,408.295 262.203,408.295 263.853,408.295 265.503,533.673 267.152,269.113 268.802,463.143 270.451,463.143 
  272.101,463.143 273.751,347.031 275.4,367.686 277.05,586.27 278.699,586.27 280.349,389.098 281.999,291.046 283.648,543.048 285.298,329.859 286.947,329.859 
  288.597,183.686 290.247,258.653 291.896,258.653 293.546,297.732 295.195,297.732 296.845,297.732 298.495,297.732 300.144,297.732 301.794,472.321 303.443,683.839 
  305.093,683.839 306.743,307.787 308.392,567.213 310.042,567.213 311.691,567.213 313.341,588.74 314.991,588.74 316.64,237.27 318.29,729.115 319.94,686.875 
  321.589,228.751 323.239,237.769 324.888,406.818 326.538,259.438 328.188,259.438 329.837,523.545 331.487,396.885 333.136,396.885 334.786,389.816 336.436,389.816 
  338.085,488.747 339.735,234.642 341.384,523.79 343.034,371.182 344.684,479.451 346.333,479.451 347.983,341.073 349.632,460.088 351.282,212.905 352.932,397.217 
  354.581,397.217 356.231,430.604 357.88,152.936 359.53,781.248 361.18,857.985 362.829,272.218 364.479,342.985 366.128,609.948 367.778,609.948 369.428,422.121 
  371.077,422.121 372.727,377.879 374.376,601.273 376.026,425.361 377.676,285.483 379.325,402.332 380.975,402.332 382.625,402.332 384.274,395.604 385.924,395.604 
  387.573,272.676 389.223,272.676 390.873,313.142 392.522,313.142 394.172,513.258 395.821,309.166 397.471,309.166 399.121,323.774 400.77,323.774 402.42,323.774 
  404.069,323.774 405.719,552.996 407.369,346.828 409.018,364.634 410.668,364.634 412.317,457.898 413.967,457.898 415.617,366.471 417.266,366.471 418.916,483.867 
  420.565,577.236 422.215,577.236 423.865,359.545 425.514,178.163 427.164,494.743 428.813,610.287 430.463,610.287 432.113,334.486 433.762,334.486 435.412,296.251 
  437.061,597.48 438.711,395.983 440.361,525.01 442.01,525.01 443.66,455.27 445.309,455.27 446.959,455.27 448.609,455.27 450.258,455.27 451.908,154.779 
  453.558,339.954 455.207,371.088 456.857,493.608 458.506,493.608 460.156,353.324 461.806,420.234 463.455,405.884 465.105,470.316 466.754,470.316 468.404,494.348 
  470.054,453.88 471.703,221.346 473.353,221.346 475.002,496.733 476.652,444.799 478.302,219.999 479.951,341.185 481.601,373.933 483.25,373.933 484.9,373.933 
  486.55,373.933 488.199,373.933 489.849,373.933 491.498,373.933 493.148,277.024 494.798,277.024 496.447,277.024 498.097,366.952 499.746,661.299 501.396,661.299 
  503.046,379.001 504.695,322.145 506.345,415.434 507.994,415.434 509.644,328.062 511.294,390.6 512.943,649.778 514.593,420.492 516.243,381.563 517.892,381.563 
  519.542,228.029 521.191,704.136 522.841,207.428 524.491,207.428 526.14,601.686 527.79,320.586 529.439,320.586 531.089,320.586 532.739,361.338 534.388,361.338 
  536.038,257.973 537.687,257.973 539.337,257.973 540.987,257.973 542.636,518.037 544.286,518.037 545.935,178.709 547.585,696.717 549.235,229.875 550.884,195.088 
  552.534,600.217 554.183,327.795 555.833,219.459 557.483,193.347 559.132,457.555 560.782,523.683 562.431,367.325 564.081,401.287 565.731,226.89 567.38,734.911 
  569.03,421.253 570.679,382.047 572.329,382.047 573.979,214.34 575.628,656.376 577.278,237.205 578.928,413.501 580.577,451.375 582.227,340.718 583.876,549.395 
  585.526,549.395 587.176,680.507 588.825,209.79 590.475,387.239 592.124,387.239 593.774,455.321 595.424,455.321 597.073,414.616 598.723,264.616 600.372,527.111 
  602.022,410.196 603.672,272.56 605.321,468.923 606.971,468.923 608.62,317.477 610.27,317.477 611.92,201.826 613.569,345.564 615.219,407.538 616.868,407.538 
  618.518,321.876 620.168,301.603 621.817,515.102 623.467,636.772 625.116,313.098 626.766,561.014 628.416,561.014 630.065,527.424 631.715,363.638 633.364,285.521 
  635.014,108.167 636.664,582.003 638.313,258.883 639.963,258.883 641.612,588.91 643.262,588.91 644.912,339.956 646.561,287.047 648.211,263.626 649.861,361.06 
  651.51,491.044 653.16,211.023 654.809,399.915 656.459,421.026 658.109,337.671 659.758,337.671 661.408,337.671 663.057,630.955 664.707,519.968 666.357,275.941 
  668.006,275.941 669.656,437.948 671.305,437.948 672.955,281.288 674.605,377.477 676.254,455.557 677.904,455.557 679.553,455.557 681.203,432.771 682.853,432.771 
  684.502,112.851 686.152,337.252 687.801,749.849 689.451,628.69 691.101,186.747 692.75,751.625 694.4,417.868 696.049,646.448 697.699,300.63 699.349,535.598 
  700.998,462.362 702.648,439.915 704.297,547.743 705.947,547.743 707.597,547.743 709.246,657.379 710.896,292.844 712.546,292.844 714.195,292.844 715.845,254.307 
  717.494,245.104 719.144,271.121 720.794,271.121 722.443,429.111 724.093,429.111 725.742,429.111 727.392,429.111 729.042,429.111 730.691,252.016 732.341,420.412 
  733.99,441.909 735.64,441.909 737.29,261.165 738.939,400.892 740.589,447.187 742.238,263.302 743.888,178.132 745.538,507.194 747.187,603.238 748.837,517.56 
  750.486,410.694 752.136,517.636 753.786,505.508 755.435,471.7 757.085,471.7 758.734,479.516 760.384,479.516 762.034,660.622 763.683,345.003 765.333,345.003 
  766.982,345.003 768.632,304.748 770.282,304.748 771.931,304.748 773.581,380.068 775.23,455.547 776.88,566.313 778.53,404.935 780.179,341.929 781.829,297.19 
  783.479,353.877 785.128,344.103 786.778,278.819 788.427,605.784 790.077,285.86 791.727,285.86 793.376,285.86 795.026,298.748 796.675,513.511 798.325,699.143 
  799.975,295.616 801.624,295.616 803.274,408.141 804.923,408.141 806.573,497.299 808.223,401.331 809.872,380.245 811.522,380.245 813.171,380.245 814.821,341.865 
  816.471,174.69 818.12,163.778 819.77,689.611 821.419,498.53 823.069,282.996 824.719,518.531 826.368,418.903 828.018,355.503 829.667,408.101 831.317,358.887 
  832.967,451.584 834.616,197.484 836.266,300.389 837.915,578.324 839.565,591.645 841.215,326.035 842.864,500.794 844.514,544.606 846.164,476.808 847.813,476.808 
  849.463,476.808 851.112,620.154 852.762,500.288 854.412,528.897 856.061,135.473 857.711,502.775 859.36,163.998 861.01,153.167 862.66,552.727 864.309,552.727 
  865.959,239.193 867.608,230.383 869.258,693.162 870.908,603.615 872.557,309.836 874.207,309.836 875.856,223.496 877.506,223.496 879.156,409.923 880.805,409.923 
  882.455,474.533 884.104,474.533 885.754,474.533 887.404,339.75 889.053,339.75 890.703,339.75 892.352,339.75 894.002,334.637 895.652,655.986 897.301,655.986 
  898.951,274.492 900.6,274.492 902.25,456.331 903.9,456.331 905.549,456.331 907.199,249.881 908.848,680.786 910.498,680.786 912.148,680.786 913.797,680.786 
  915.447,680.786 917.097,501.427 918.746,338.649 920.396,235.209 922.045,703.471 923.695,703.471 925.345,182.206 926.994,351.222 928.644,317.855 930.293,518.483 
  931.943,478.352 933.593,545.928 935.242,141.589 936.892,156.005 938.541,603.22 940.191,459.803 941.841,459.803 943.49,340.941 945.14,240.112 946.789,386.004 
  948.439,420.587 950.089,432.113 951.738,432.113 953.388,432.113 955.037,365.619 956.687,365.619 958.337,387.941 959.986,387.941 961.636,411.306 963.285,411.306 
  964.935,245.418 966.585,245.418 968.234,245.418 969.884,288.188 971.533,227.417 973.183,356.816 974.833,356.816 976.482,486.919 978.132,486.919 979.782,486.919 
  981.431,486.919 983.081,486.919 984.73,460.442 986.38,480.139 988.03,480.139 989.679,651.586 991.329,235.875 992.978,144.891 994.628,363.465 996.278,245.695 
  997.927,306.483 999.577,498.397 1001.23,428.845 1002.88,371.865 1004.53,334.958 1006.18,552.656 1007.82,552.656 1009.47,552.656 1011.12,548.359 1012.77,444.775 
  1014.42,478.568 1016.07,478.568 1017.72,482.232 1019.37,482.232 1021.02,579.367 1022.67,286.627 1024.32,359.823 1025.97,589.968 1027.62,589.968 1029.27,356.653 
  1030.92,356.653 1032.57,393.344 1034.22,336.419 1035.87,336.419 1037.52,471.683 1039.17,514.553 1040.82,514.553 1042.47,624.99 1044.12,283.63 1045.77,552.415 
  1047.42,318.046 1049.06,269.039 1050.71,324.963 1052.36,480.937 1054.01,486.264 1055.66,486.264 1057.31,486.264 1058.96,323.405 1060.61,323.405 1062.26,254.641 
  1063.91,266.744 1065.56,266.744 1067.21,511.794 1068.86,511.794 1070.51,167.131 1072.16,801.287 1073.81,487.646 1075.46,134.765 1077.11,307.359 1078.76,307.359 
  1080.41,307.359 1082.06,546.624 1083.71,546.624 1085.36,546.624 1087.01,352.327 1088.66,352.327 1090.31,409.199 1091.95,409.199 1093.6,570.544 1095.25,570.544 
  1096.9,236.94 1098.55,262.246 1100.2,529.357 1101.85,503.587 1103.5,503.587 1105.15,494.403 1106.8,503.78 1108.45,564.806 1110.1,495.03 1111.75,611.358 
  1113.4,214.476 1115.05,223.948 1116.7,228.056 1118.35,365.946 1120,114.781 1121.65,530.79 1123.3,326.739 1124.95,326.739 1126.6,326.739 1128.25,326.739 
  1129.9,326.739 1131.55,628.083 1133.19,198.241 1134.84,446.983 1136.49,625.042 1138.14,308.149 1139.79,308.149 1141.44,598.152 1143.09,547.77 1144.74,549.031 
  1146.39,549.031 1148.04,295.711 1149.69,232.716 1151.34,568.459 1152.99,577.827 1154.64,490.846 1156.29,490.846 1157.94,349.196 1159.59,349.196 1161.24,349.196 
  1162.89,508.16 1164.54,349.834 1166.19,349.834 1167.84,349.834 1169.49,638.498 1171.14,638.498 1172.79,177.323 1174.43,196.617 1176.08,616.499 1177.73,555.223 
  1179.38,445.649 1181.03,445.649 1182.68,491.947 1184.33,491.947 1185.98,491.947 1187.63,227.477 1189.28,227.477 1190.93,227.477 1192.58,619.935 1194.23,239.377 
  1195.88,440.593 1197.53,440.593 1199.18,440.593 1200.83,393.186 1202.48,393.186 1204.13,354.087 1205.78,256.405 1207.43,617.117 1209.08,356.407 1210.73,527.345 
  1212.38,527.345 1214.03,453.091 1215.68,322.061 1217.32,329.348 1218.97,329.348 1220.62,283.626 1222.27,427.289 1223.92,427.289 1225.57,297.95 1227.22,517.789 
  1228.87,497.116 1230.52,497.116 1232.17,192.329 1233.82,492.23 1235.47,492.23 1237.12,492.23 1238.77,492.23 1240.42,599.546 1242.07,495.736 1243.72,448.191 
  1245.37,276.628 1247.02,437.205 1248.67,437.205 1250.32,437.205 1251.97,732.84 1253.62,236.238 1255.27,291.773 1256.92,291.773 1258.56,536.473 1260.21,221.921 
  1261.86,257.811 1263.51,379.581 1265.16,275.57 1266.81,427.56 1268.46,513.794 1270.11,397.139 1271.76,310.845 1273.41,524.381 1275.06,524.381 1276.71,410.414 
  1278.36,410.414 1280.01,410.414 1281.66,464.394 1283.31,496.531 1284.96,656.843 1286.61,577.141 1288.26,317.996 1289.91,521.964 1291.56,420.361 1293.21,396.699 
  1294.86,424.594 1296.51,378.703 1298.16,378.703 1299.8,378.703 1301.45,619.803 1303.1,237.164 1304.75,656.939 1306.4,656.939 1308.05,656.939 1309.7,269.878 
  1311.35,315.912 1313,315.912 1314.65,266.089 1316.3,566.325 1317.95,566.325 1319.6,523.077 1321.25,581.509 1322.9,581.509 1324.55,306.288 1326.2,344.178 
  1327.85,640.205 1329.5,420.074 1331.15,420.074 1332.8,420.074 1334.45,420.074 1336.1,384.72 1337.75,384.72 1339.4,247.307 1341.05,469.319 1342.69,434.968 
  1344.34,300.278 1345.99,383.527 1347.64,383.527 1349.29,383.527 1350.94,475.142 1352.59,540.004 1354.24,540.004 1355.89,200.543 1357.54,349.13 1359.19,328.18 
  1360.84,328.18 1362.49,151.985 1364.14,679.786 1365.79,261.663 1367.44,532.692 1369.09,294.773 1370.74,294.773 1372.39,295.521 1374.04,505.434 1375.69,485.176 
  1377.34,485.176 1378.99,251.661 1380.64,192.62 1382.29,362.596 1383.93,312.976 1385.58,398.043 1387.23,323.798 1388.88,323.798 1390.53,278.505 1392.18,278.505 
  1393.83,391.44 1395.48,436.765 1397.13,197.716 1398.78,660.834 1400.43,127.162 1402.08,406.379 1403.73,406.379 1405.38,293.329 1407.03,293.329 1408.68,293.329 
  1410.33,293.329 1411.98,550.11 1413.63,479.405 1415.28,215.921 1416.93,404.015 1418.58,450.179 1420.23,505.949 1421.88,505.949 1423.53,505.949 1425.17,298.273 
  1426.82,387.194 1428.47,387.194 1430.12,257.331 1431.77,328.386 1433.42,279.087 1435.07,402.727 1436.72,402.727 1438.37,404.09 1440.02,539.807 1441.67,278.788 
  1443.32,278.788 1444.97,278.788 1446.62,278.788 1448.27,185.153 1449.92,715.707 1451.57,715.707 1453.22,390.718 1454.87,486.945 1456.52,486.945 1458.17,305.118 
  1459.82,305.118 1461.47,305.783 1463.12,305.783 1464.77,575.043 1466.41,575.043 1468.06,575.043 1469.71,233.31 1471.36,392.836 1473.01,392.836 1474.66,439.499 
  1476.31,439.499 1477.96,374.223 1479.61,374.223 1481.26,374.223 1482.91,418.83 1484.56,418.83 1486.21,518.112 1487.86,518.112 1489.51,518.112 1491.16,518.112 
  1492.81,518.112 1494.46,386.478 1496.11,294.489 1497.76,459.363 1499.41,459.363 1501.06,459.363 1502.71,459.363 1504.36,420.552 1506.01,223.846 1507.66,325.017 
  1509.3,235.069 1510.95,579.662 1512.6,579.662 1514.25,367.21 1515.9,428.879 1517.55,428.879 1519.2,429.608 1520.85,429.608 1522.5,429.608 1524.15,322.719 
  1525.8,463.037 1527.45,463.037 1529.1,463.037 1530.75,131.515 1532.4,264.217 1534.05,264.217 1535.7,341.048 1537.35,341.048 1539,566.559 1540.65,566.559 
  1542.3,384.864 1543.95,587.482 1545.6,587.482 1547.25,310.535 1548.9,499.193 1550.54,517.384 1552.19,517.384 1553.84,517.384 1555.49,517.384 1557.14,330.698 
  1558.79,523.7 1560.44,321.303 1562.09,321.303 1563.74,297.575 1565.39,638.559 1567.04,403.059 1568.69,403.059 1570.34,418.843 1571.99,265.877 1573.64,265.877 
  1575.29,643.699 1576.94,435.739 1578.59,275.582 1580.24,578.682 1581.89,200.508 1583.54,131.489 1585.19,447.02 1586.84,447.02 1588.49,426.5 1590.14,285.432 
  1591.78,373.538 1593.43,392.382 1595.08,392.382 1596.73,518.15 1598.38,518.15 1600.03,208.032 1601.68,389.094 1603.33,389.094 1604.98,389.094 1606.63,297.541 
  1608.28,457.178 1609.93,457.178 1611.58,457.178 1613.23,457.178 1614.88,457.178 1616.53,227.15 1618.18,791.149 1619.83,319.656 1621.48,319.656 1623.13,355.563 
  1624.78,543.086 1626.43,377.323 1628.08,249.384 1629.73,601.299 1631.38,601.299 1633.03,601.299 1634.67,408.754 1636.32,408.754 1637.97,457.218 1639.62,457.218 
  1641.27,535.358 1642.92,535.358 1644.57,535.358 1646.22,341.95 1647.87,341.95 1649.52,341.95 1651.17,341.95 1652.82,259.19 1654.47,449.309 1656.12,449.309 
  1657.77,190.611 1659.42,480.147 1661.07,480.147 1662.72,480.147 1664.37,284.03 1666.02,284.03 1667.67,284.03 1669.32,670.038 1670.97,512.561 1672.62,269.486 
  1674.27,347.462 1675.91,393.612 1677.56,451.117 1679.21,337.177 1680.86,496.272 1682.51,496.272 1684.16,496.272 1685.81,496.272 1687.46,355.411 1689.11,355.411 
  1690.76,703.197 1692.41,270.713 1694.06,412.608 1695.71,412.608 1697.36,412.608 1699.01,412.608 1700.66,258.57 1702.31,258.57 1703.96,240.949 1705.61,362.773 
  1707.26,362.773 1708.91,362.773 1710.56,539.867 1712.21,762.062 1713.86,267.154 1715.51,456.976 1717.15,490.111 1718.8,333.822 1720.45,333.822 1722.1,333.822 
  1723.75,659.479 1725.4,659.479 1727.05,403.347 1728.7,144.371 1730.35,509.354 1732,509.354 1733.65,570.187 1735.3,522.366 1736.95,337.481 1738.6,337.481 
  1740.25,262.274 1741.9,265.299 1743.55,427.26 1745.2,427.26 1746.85,427.26 1748.5,427.26 1750.15,645.36 1751.8,216.274 1753.45,546.607 1755.1,349.852 
  1756.75,331.009 1758.4,468.4 1760.04,434.415 1761.69,434.415 1763.34,388.97 1764.99,372.097 1766.64,372.097 1768.29,362.152 1769.94,656.266 1771.59,549.366 
  1773.24,549.366 1774.89,549.366 1776.54,285.845 1778.19,285.845 1779.84,458.33 1781.49,418.622 1783.14,533.496 1784.79,533.496 1786.44,192.887 1788.09,207.965 
  1789.74,207.965 1791.39,675.13 1793.04,234.546 1794.69,725.05 1796.34,178.42 1797.99,609.631 1799.64,352.497 1801.28,144.838 1802.93,683.965 1804.58,317.269 
  1806.23,317.269 1807.88,436.53 1809.53,366.96 1811.18,366.96 1812.83,439.194 1814.48,197.603 1816.13,701.247 1817.78,294.527 1819.43,345.951 1821.08,345.951 
  1822.73,345.951 1824.38,393.958 1826.03,429.329 1827.68,429.329 1829.33,429.329 1830.98,429.329 1832.63,359.287 1834.28,383.845 1835.93,383.845 1837.58,331.875 
  1839.23,331.875 1840.88,376.715 1842.52,469.197 1844.17,435.749 1845.82,214.79 1847.47,190.94 1849.12,429.187 1850.77,429.187 1852.42,475.365 1854.07,475.365 
  1855.72,535.766 1857.37,273.645 1859.02,273.645 1860.67,519.934 1862.32,501.068 1863.97,477.832 1865.62,311.54 1867.27,311.54 1868.92,344.096 1870.57,246.34 
  1872.22,365.067 1873.87,365.067 1875.52,408.4 1877.17,408.4 1878.82,408.4 1880.47,512.726 1882.12,259.681 1883.77,540.793 1885.41,540.793 1887.06,332.431 
  1888.71,550.037 1890.36,352.077 1892.01,276.974 1893.66,570.983 1895.31,778.355 1896.96,237.787 1898.61,418.291 1900.26,418.291 1901.91,418.291 1903.56,418.291 
  
  "/>
<path clip-path="url(#clip510)" d="
M2205.92 880.48 L3952.76 880.48 L3952.76 85.6721 L2205.92 85.6721  Z
  " fill="#ffffff" fill-rule="evenodd" fill-opacity="1"/>
<defs>
  <clipPath id="clip513">
    <rect x="2205" y="85" width="1748" height="796"/>
  </clipPath>
</defs>
<polyline clip-path="url(#clip513)" style="stroke:#000000; stroke-linecap:round; stroke-linejoin:round; stroke-width:2; stroke-opacity:0.1; fill:none" points="
  2305.51,880.48 2305.51,85.6721 
  "/>
<polyline clip-path="url(#clip513)" style="stroke:#000000; stroke-linecap:round; stroke-linejoin:round; stroke-width:2; stroke-opacity:0.1; fill:none" points="
  2727.95,880.48 2727.95,85.6721 
  "/>
<polyline clip-path="url(#clip513)" style="stroke:#000000; stroke-linecap:round; stroke-linejoin:round; stroke-width:2; stroke-opacity:0.1; fill:none" points="
  3150.39,880.48 3150.39,85.6721 
  "/>
<polyline clip-path="url(#clip513)" style="stroke:#000000; stroke-linecap:round; stroke-linejoin:round; stroke-width:2; stroke-opacity:0.1; fill:none" points="
  3572.84,880.48 3572.84,85.6721 
  "/>
<polyline clip-path="url(#clip510)" style="stroke:#000000; stroke-linecap:round; stroke-linejoin:round; stroke-width:4; stroke-opacity:1; fill:none" points="
  2205.92,880.48 3952.76,880.48 
  "/>
<polyline clip-path="url(#clip510)" style="stroke:#000000; stroke-linecap:round; stroke-linejoin:round; stroke-width:4; stroke-opacity:1; fill:none" points="
  2305.51,880.48 2305.51,861.582 
  "/>
<polyline clip-path="url(#clip510)" style="stroke:#000000; stroke-linecap:round; stroke-linejoin:round; stroke-width:4; stroke-opacity:1; fill:none" points="
  2727.95,880.48 2727.95,861.582 
  "/>
<polyline clip-path="url(#clip510)" style="stroke:#000000; stroke-linecap:round; stroke-linejoin:round; stroke-width:4; stroke-opacity:1; fill:none" points="
  3150.39,880.48 3150.39,861.582 
  "/>
<polyline clip-path="url(#clip510)" style="stroke:#000000; stroke-linecap:round; stroke-linejoin:round; stroke-width:4; stroke-opacity:1; fill:none" points="
  3572.84,880.48 3572.84,861.582 
  "/>
<path clip-path="url(#clip510)" d="M2283.69 924.199 Q2280.08 924.199 2278.25 927.763 Q2276.45 931.305 2276.45 938.435 Q2276.45 945.541 2278.25 949.106 Q2280.08 952.647 2283.69 952.647 Q2287.33 952.647 2289.13 949.106 Q2290.96 945.541 2290.96 938.435 Q2290.96 931.305 2289.13 927.763 Q2287.33 924.199 2283.69 924.199 M2283.69 920.495 Q2289.5 920.495 2292.56 925.101 Q2295.64 929.685 2295.64 938.435 Q2295.64 947.161 2292.56 951.768 Q2289.5 956.351 2283.69 956.351 Q2277.88 956.351 2274.8 951.768 Q2271.75 947.161 2271.75 938.435 Q2271.75 929.685 2274.8 925.101 Q2277.88 920.495 2283.69 920.495 Z" fill="#000000" fill-rule="evenodd" fill-opacity="1" /><path clip-path="url(#clip510)" d="M2303.85 949.8 L2308.74 949.8 L2308.74 955.68 L2303.85 955.68 L2303.85 949.8 Z" fill="#000000" fill-rule="evenodd" fill-opacity="1" /><path clip-path="url(#clip510)" d="M2322.95 951.745 L2339.27 951.745 L2339.27 955.68 L2317.33 955.68 L2317.33 951.745 Q2319.99 948.99 2324.57 944.36 Q2329.18 939.708 2330.36 938.365 Q2332.6 935.842 2333.48 934.106 Q2334.39 932.347 2334.39 930.657 Q2334.39 927.902 2332.44 926.166 Q2330.52 924.43 2327.42 924.43 Q2325.22 924.43 2322.76 925.194 Q2320.33 925.958 2317.56 927.509 L2317.56 922.787 Q2320.38 921.652 2322.83 921.074 Q2325.29 920.495 2327.33 920.495 Q2332.7 920.495 2335.89 923.18 Q2339.08 925.865 2339.08 930.356 Q2339.08 932.486 2338.27 934.407 Q2337.49 936.305 2335.38 938.898 Q2334.8 939.569 2331.7 942.786 Q2328.6 945.981 2322.95 951.745 Z" fill="#000000" fill-rule="evenodd" fill-opacity="1" /><path clip-path="url(#clip510)" d="M2705.09 924.199 Q2701.48 924.199 2699.65 927.763 Q2697.85 931.305 2697.85 938.435 Q2697.85 945.541 2699.65 949.106 Q2701.48 952.647 2705.09 952.647 Q2708.73 952.647 2710.53 949.106 Q2712.36 945.541 2712.36 938.435 Q2712.36 931.305 2710.53 927.763 Q2708.73 924.199 2705.09 924.199 M2705.09 920.495 Q2710.9 920.495 2713.96 925.101 Q2717.04 929.685 2717.04 938.435 Q2717.04 947.161 2713.96 951.768 Q2710.9 956.351 2705.09 956.351 Q2699.28 956.351 2696.2 951.768 Q2693.15 947.161 2693.15 938.435 Q2693.15 929.685 2696.2 925.101 Q2699.28 920.495 2705.09 920.495 Z" fill="#000000" fill-rule="evenodd" fill-opacity="1" /><path clip-path="url(#clip510)" d="M2725.25 949.8 L2730.14 949.8 L2730.14 955.68 L2725.25 955.68 L2725.25 949.8 Z" fill="#000000" fill-rule="evenodd" fill-opacity="1" /><path clip-path="url(#clip510)" d="M2753.17 925.194 L2741.37 943.643 L2753.17 943.643 L2753.17 925.194 M2751.94 921.12 L2757.82 921.12 L2757.82 943.643 L2762.75 943.643 L2762.75 947.532 L2757.82 947.532 L2757.82 955.68 L2753.17 955.68 L2753.17 947.532 L2737.57 947.532 L2737.57 943.018 L2751.94 921.12 Z" fill="#000000" fill-rule="evenodd" fill-opacity="1" /><path clip-path="url(#clip510)" d="M3127.7 924.199 Q3124.09 924.199 3122.26 927.763 Q3120.45 931.305 3120.45 938.435 Q3120.45 945.541 3122.26 949.106 Q3124.09 952.647 3127.7 952.647 Q3131.33 952.647 3133.14 949.106 Q3134.97 945.541 3134.97 938.435 Q3134.97 931.305 3133.14 927.763 Q3131.33 924.199 3127.7 924.199 M3127.7 920.495 Q3133.51 920.495 3136.56 925.101 Q3139.64 929.685 3139.64 938.435 Q3139.64 947.161 3136.56 951.768 Q3133.51 956.351 3127.7 956.351 Q3121.89 956.351 3118.81 951.768 Q3115.75 947.161 3115.75 938.435 Q3115.75 929.685 3118.81 925.101 Q3121.89 920.495 3127.7 920.495 Z" fill="#000000" fill-rule="evenodd" fill-opacity="1" /><path clip-path="url(#clip510)" d="M3147.86 949.8 L3152.74 949.8 L3152.74 955.68 L3147.86 955.68 L3147.86 949.8 Z" fill="#000000" fill-rule="evenodd" fill-opacity="1" /><path clip-path="url(#clip510)" d="M3173.51 936.536 Q3170.36 936.536 3168.51 938.689 Q3166.68 940.842 3166.68 944.592 Q3166.68 948.319 3168.51 950.495 Q3170.36 952.647 3173.51 952.647 Q3176.66 952.647 3178.48 950.495 Q3180.34 948.319 3180.34 944.592 Q3180.34 940.842 3178.48 938.689 Q3176.66 936.536 3173.51 936.536 M3182.79 921.884 L3182.79 926.143 Q3181.03 925.31 3179.22 924.87 Q3177.44 924.43 3175.68 924.43 Q3171.05 924.43 3168.6 927.555 Q3166.17 930.68 3165.82 936.999 Q3167.19 934.986 3169.25 933.921 Q3171.31 932.833 3173.78 932.833 Q3178.99 932.833 3182 936.004 Q3185.03 939.152 3185.03 944.592 Q3185.03 949.916 3181.89 953.134 Q3178.74 956.351 3173.51 956.351 Q3167.51 956.351 3164.34 951.768 Q3161.17 947.161 3161.17 938.435 Q3161.17 930.24 3165.06 925.379 Q3168.95 920.495 3175.5 920.495 Q3177.26 920.495 3179.04 920.842 Q3180.84 921.189 3182.79 921.884 Z" fill="#000000" fill-rule="evenodd" fill-opacity="1" /><path clip-path="url(#clip510)" d="M3550.27 924.199 Q3546.66 924.199 3544.83 927.763 Q3543.02 931.305 3543.02 938.435 Q3543.02 945.541 3544.83 949.106 Q3546.66 952.647 3550.27 952.647 Q3553.9 952.647 3555.71 949.106 Q3557.54 945.541 3557.54 938.435 Q3557.54 931.305 3555.71 927.763 Q3553.9 924.199 3550.27 924.199 M3550.27 920.495 Q3556.08 920.495 3559.13 925.101 Q3562.21 929.685 3562.21 938.435 Q3562.21 947.161 3559.13 951.768 Q3556.08 956.351 3550.27 956.351 Q3544.46 956.351 3541.38 951.768 Q3538.32 947.161 3538.32 938.435 Q3538.32 929.685 3541.38 925.101 Q3544.46 920.495 3550.27 920.495 Z" fill="#000000" fill-rule="evenodd" fill-opacity="1" /><path clip-path="url(#clip510)" d="M3570.43 949.8 L3575.31 949.8 L3575.31 955.68 L3570.43 955.68 L3570.43 949.8 Z" fill="#000000" fill-rule="evenodd" fill-opacity="1" /><path clip-path="url(#clip510)" d="M3595.5 939.268 Q3592.17 939.268 3590.24 941.05 Q3588.35 942.833 3588.35 945.958 Q3588.35 949.083 3590.24 950.865 Q3592.17 952.647 3595.5 952.647 Q3598.83 952.647 3600.75 950.865 Q3602.67 949.06 3602.67 945.958 Q3602.67 942.833 3600.75 941.05 Q3598.85 939.268 3595.5 939.268 M3590.82 937.277 Q3587.81 936.536 3586.12 934.476 Q3584.46 932.416 3584.46 929.453 Q3584.46 925.31 3587.4 922.902 Q3590.36 920.495 3595.5 920.495 Q3600.66 920.495 3603.6 922.902 Q3606.54 925.31 3606.54 929.453 Q3606.54 932.416 3604.85 934.476 Q3603.18 936.536 3600.2 937.277 Q3603.58 938.064 3605.45 940.356 Q3607.35 942.648 3607.35 945.958 Q3607.35 950.981 3604.27 953.666 Q3601.22 956.351 3595.5 956.351 Q3589.78 956.351 3586.7 953.666 Q3583.65 950.981 3583.65 945.958 Q3583.65 942.648 3585.54 940.356 Q3587.44 938.064 3590.82 937.277 M3589.11 929.893 Q3589.11 932.578 3590.78 934.083 Q3592.47 935.587 3595.5 935.587 Q3598.51 935.587 3600.2 934.083 Q3601.91 932.578 3601.91 929.893 Q3601.91 927.208 3600.2 925.703 Q3598.51 924.199 3595.5 924.199 Q3592.47 924.199 3590.78 925.703 Q3589.11 927.208 3589.11 929.893 Z" fill="#000000" fill-rule="evenodd" fill-opacity="1" /><path clip-path="url(#clip510)" d="M2892.22 1003.38 L2892.22 1009.65 Q2888.56 1007.9 2885.31 1007.04 Q2882.07 1006.18 2879.04 1006.18 Q2873.79 1006.18 2870.93 1008.22 Q2868.09 1010.26 2868.09 1014.01 Q2868.09 1017.17 2869.97 1018.79 Q2871.88 1020.38 2877.16 1021.37 L2881.05 1022.16 Q2888.24 1023.53 2891.65 1027 Q2895.08 1030.44 2895.08 1036.23 Q2895.08 1043.14 2890.44 1046.7 Q2885.82 1050.27 2876.88 1050.27 Q2873.5 1050.27 2869.69 1049.5 Q2865.9 1048.74 2861.82 1047.24 L2861.82 1040.62 Q2865.74 1042.82 2869.49 1043.93 Q2873.25 1045.05 2876.88 1045.05 Q2882.38 1045.05 2885.38 1042.88 Q2888.37 1040.72 2888.37 1036.71 Q2888.37 1033.21 2886.2 1031.23 Q2884.07 1029.26 2879.17 1028.27 L2875.26 1027.51 Q2868.06 1026.08 2864.85 1023.02 Q2861.63 1019.97 2861.63 1014.52 Q2861.63 1008.22 2866.06 1004.59 Q2870.51 1000.96 2878.31 1000.96 Q2881.65 1000.96 2885.12 1001.57 Q2888.59 1002.17 2892.22 1003.38 Z" fill="#000000" fill-rule="evenodd" fill-opacity="1" /><path clip-path="url(#clip510)" d="M2921.06 1031.42 Q2913.96 1031.42 2911.22 1033.05 Q2908.48 1034.67 2908.48 1038.59 Q2908.48 1041.7 2910.52 1043.55 Q2912.59 1045.37 2916.12 1045.37 Q2920.99 1045.37 2923.92 1041.93 Q2926.88 1038.46 2926.88 1032.73 L2926.88 1031.42 L2921.06 1031.42 M2932.74 1029.01 L2932.74 1049.34 L2926.88 1049.34 L2926.88 1043.93 Q2924.88 1047.18 2921.88 1048.74 Q2918.89 1050.27 2914.56 1050.27 Q2909.09 1050.27 2905.84 1047.21 Q2902.63 1044.12 2902.63 1038.97 Q2902.63 1032.95 2906.64 1029.9 Q2910.68 1026.84 2918.67 1026.84 L2926.88 1026.84 L2926.88 1026.27 Q2926.88 1022.23 2924.21 1020.03 Q2921.57 1017.8 2916.76 1017.8 Q2913.7 1017.8 2910.81 1018.53 Q2907.91 1019.27 2905.24 1020.73 L2905.24 1015.32 Q2908.45 1014.08 2911.48 1013.47 Q2914.5 1012.84 2917.36 1012.84 Q2925.1 1012.84 2928.92 1016.85 Q2932.74 1020.86 2932.74 1029.01 Z" fill="#000000" fill-rule="evenodd" fill-opacity="1" /><path clip-path="url(#clip510)" d="M2972.55 1020.54 Q2974.75 1016.59 2977.81 1014.71 Q2980.86 1012.84 2985 1012.84 Q2990.57 1012.84 2993.59 1016.75 Q2996.62 1020.63 2996.62 1027.83 L2996.62 1049.34 L2990.73 1049.34 L2990.73 1028.02 Q2990.73 1022.89 2988.91 1020.41 Q2987.1 1017.93 2983.38 1017.93 Q2978.83 1017.93 2976.18 1020.95 Q2973.54 1023.98 2973.54 1029.2 L2973.54 1049.34 L2967.65 1049.34 L2967.65 1028.02 Q2967.65 1022.86 2965.84 1020.41 Q2964.02 1017.93 2960.24 1017.93 Q2955.75 1017.93 2953.11 1020.98 Q2950.47 1024.01 2950.47 1029.2 L2950.47 1049.34 L2944.58 1049.34 L2944.58 1013.7 L2950.47 1013.7 L2950.47 1019.23 Q2952.47 1015.96 2955.27 1014.4 Q2958.07 1012.84 2961.92 1012.84 Q2965.81 1012.84 2968.51 1014.81 Q2971.25 1016.78 2972.55 1020.54 Z" fill="#000000" fill-rule="evenodd" fill-opacity="1" /><path clip-path="url(#clip510)" d="M3013.96 1044 L3013.96 1062.9 L3008.08 1062.9 L3008.08 1013.7 L3013.96 1013.7 L3013.96 1019.11 Q3015.81 1015.92 3018.61 1014.4 Q3021.44 1012.84 3025.36 1012.84 Q3031.85 1012.84 3035.89 1017.99 Q3039.97 1023.15 3039.97 1031.55 Q3039.97 1039.95 3035.89 1045.11 Q3031.85 1050.27 3025.36 1050.27 Q3021.44 1050.27 3018.61 1048.74 Q3015.81 1047.18 3013.96 1044 M3033.89 1031.55 Q3033.89 1025.09 3031.21 1021.43 Q3028.57 1017.74 3023.93 1017.74 Q3019.28 1017.74 3016.61 1021.43 Q3013.96 1025.09 3013.96 1031.55 Q3013.96 1038.01 3016.61 1041.7 Q3019.28 1045.37 3023.93 1045.37 Q3028.57 1045.37 3031.21 1041.7 Q3033.89 1038.01 3033.89 1031.55 Z" fill="#000000" fill-rule="evenodd" fill-opacity="1" /><path clip-path="url(#clip510)" d="M3049.68 999.819 L3055.53 999.819 L3055.53 1049.34 L3049.68 1049.34 L3049.68 999.819 Z" fill="#000000" fill-rule="evenodd" fill-opacity="1" /><path clip-path="url(#clip510)" d="M3098.28 1030.06 L3098.28 1032.92 L3071.35 1032.92 Q3071.73 1038.97 3074.98 1042.15 Q3078.26 1045.3 3084.08 1045.3 Q3087.46 1045.3 3090.61 1044.47 Q3093.79 1043.65 3096.91 1041.99 L3096.91 1047.53 Q3093.76 1048.87 3090.45 1049.57 Q3087.14 1050.27 3083.73 1050.27 Q3075.2 1050.27 3070.2 1045.3 Q3065.24 1040.34 3065.24 1031.87 Q3065.24 1023.12 3069.95 1017.99 Q3074.69 1012.84 3082.71 1012.84 Q3089.91 1012.84 3094.08 1017.48 Q3098.28 1022.1 3098.28 1030.06 M3092.42 1028.34 Q3092.36 1023.53 3089.72 1020.67 Q3087.11 1017.8 3082.78 1017.8 Q3077.88 1017.8 3074.92 1020.57 Q3071.99 1023.34 3071.54 1028.37 L3092.42 1028.34 Z" fill="#000000" fill-rule="evenodd" fill-opacity="1" /><path clip-path="url(#clip510)" d="M3124.41 1013.7 L3130.62 1013.7 L3141.76 1043.61 L3152.9 1013.7 L3159.1 1013.7 L3145.73 1049.34 L3137.78 1049.34 L3124.41 1013.7 Z" fill="#000000" fill-rule="evenodd" fill-opacity="1" /><path clip-path="url(#clip510)" d="M3183.39 1031.42 Q3176.29 1031.42 3173.55 1033.05 Q3170.81 1034.67 3170.81 1038.59 Q3170.81 1041.7 3172.85 1043.55 Q3174.92 1045.37 3178.45 1045.37 Q3183.32 1045.37 3186.25 1041.93 Q3189.21 1038.46 3189.21 1032.73 L3189.21 1031.42 L3183.39 1031.42 M3195.07 1029.01 L3195.07 1049.34 L3189.21 1049.34 L3189.21 1043.93 Q3187.21 1047.18 3184.21 1048.74 Q3181.22 1050.27 3176.89 1050.27 Q3171.42 1050.27 3168.17 1047.21 Q3164.96 1044.12 3164.96 1038.97 Q3164.96 1032.95 3168.97 1029.9 Q3173.01 1026.84 3181 1026.84 L3189.21 1026.84 L3189.21 1026.27 Q3189.21 1022.23 3186.54 1020.03 Q3183.9 1017.8 3179.09 1017.8 Q3176.03 1017.8 3173.14 1018.53 Q3170.24 1019.27 3167.57 1020.73 L3167.57 1015.32 Q3170.78 1014.08 3173.81 1013.47 Q3176.83 1012.84 3179.69 1012.84 Q3187.43 1012.84 3191.25 1016.85 Q3195.07 1020.86 3195.07 1029.01 Z" fill="#000000" fill-rule="evenodd" fill-opacity="1" /><path clip-path="url(#clip510)" d="M3207.13 999.819 L3212.99 999.819 L3212.99 1049.34 L3207.13 1049.34 L3207.13 999.819 Z" fill="#000000" fill-rule="evenodd" fill-opacity="1" /><path clip-path="url(#clip510)" d="M3224.64 1035.28 L3224.64 1013.7 L3230.49 1013.7 L3230.49 1035.05 Q3230.49 1040.11 3232.47 1042.66 Q3234.44 1045.17 3238.39 1045.17 Q3243.13 1045.17 3245.87 1042.15 Q3248.64 1039.13 3248.64 1033.91 L3248.64 1013.7 L3254.49 1013.7 L3254.49 1049.34 L3248.64 1049.34 L3248.64 1043.87 Q3246.5 1047.12 3243.67 1048.71 Q3240.87 1050.27 3237.15 1050.27 Q3231 1050.27 3227.82 1046.45 Q3224.64 1042.63 3224.64 1035.28 M3239.37 1012.84 L3239.37 1012.84 Z" fill="#000000" fill-rule="evenodd" fill-opacity="1" /><path clip-path="url(#clip510)" d="M3297.05 1030.06 L3297.05 1032.92 L3270.12 1032.92 Q3270.5 1038.97 3273.75 1042.15 Q3277.03 1045.3 3282.85 1045.3 Q3286.23 1045.3 3289.38 1044.47 Q3292.56 1043.65 3295.68 1041.99 L3295.68 1047.53 Q3292.53 1048.87 3289.22 1049.57 Q3285.91 1050.27 3282.5 1050.27 Q3273.97 1050.27 3268.97 1045.3 Q3264.01 1040.34 3264.01 1031.87 Q3264.01 1023.12 3268.72 1017.99 Q3273.46 1012.84 3281.48 1012.84 Q3288.68 1012.84 3292.85 1017.48 Q3297.05 1022.1 3297.05 1030.06 M3291.19 1028.34 Q3291.13 1023.53 3288.48 1020.67 Q3285.87 1017.8 3281.55 1017.8 Q3276.64 1017.8 3273.68 1020.57 Q3270.76 1023.34 3270.31 1028.37 L3291.19 1028.34 Z" fill="#000000" fill-rule="evenodd" fill-opacity="1" /><polyline clip-path="url(#clip513)" style="stroke:#000000; stroke-linecap:round; stroke-linejoin:round; stroke-width:2; stroke-opacity:0.1; fill:none" points="
  2205.92,862.747 3952.76,862.747 
  "/>
<polyline clip-path="url(#clip513)" style="stroke:#000000; stroke-linecap:round; stroke-linejoin:round; stroke-width:2; stroke-opacity:0.1; fill:none" points="
  2205.92,722.937 3952.76,722.937 
  "/>
<polyline clip-path="url(#clip513)" style="stroke:#000000; stroke-linecap:round; stroke-linejoin:round; stroke-width:2; stroke-opacity:0.1; fill:none" points="
  2205.92,583.128 3952.76,583.128 
  "/>
<polyline clip-path="url(#clip513)" style="stroke:#000000; stroke-linecap:round; stroke-linejoin:round; stroke-width:2; stroke-opacity:0.1; fill:none" points="
  2205.92,443.318 3952.76,443.318 
  "/>
<polyline clip-path="url(#clip513)" style="stroke:#000000; stroke-linecap:round; stroke-linejoin:round; stroke-width:2; stroke-opacity:0.1; fill:none" points="
  2205.92,303.509 3952.76,303.509 
  "/>
<polyline clip-path="url(#clip513)" style="stroke:#000000; stroke-linecap:round; stroke-linejoin:round; stroke-width:2; stroke-opacity:0.1; fill:none" points="
  2205.92,163.7 3952.76,163.7 
  "/>
<polyline clip-path="url(#clip510)" style="stroke:#000000; stroke-linecap:round; stroke-linejoin:round; stroke-width:4; stroke-opacity:1; fill:none" points="
  2205.92,880.48 2205.92,85.6721 
  "/>
<polyline clip-path="url(#clip510)" style="stroke:#000000; stroke-linecap:round; stroke-linejoin:round; stroke-width:4; stroke-opacity:1; fill:none" points="
  2205.92,862.747 2224.82,862.747 
  "/>
<polyline clip-path="url(#clip510)" style="stroke:#000000; stroke-linecap:round; stroke-linejoin:round; stroke-width:4; stroke-opacity:1; fill:none" points="
  2205.92,722.937 2224.82,722.937 
  "/>
<polyline clip-path="url(#clip510)" style="stroke:#000000; stroke-linecap:round; stroke-linejoin:round; stroke-width:4; stroke-opacity:1; fill:none" points="
  2205.92,583.128 2224.82,583.128 
  "/>
<polyline clip-path="url(#clip510)" style="stroke:#000000; stroke-linecap:round; stroke-linejoin:round; stroke-width:4; stroke-opacity:1; fill:none" points="
  2205.92,443.318 2224.82,443.318 
  "/>
<polyline clip-path="url(#clip510)" style="stroke:#000000; stroke-linecap:round; stroke-linejoin:round; stroke-width:4; stroke-opacity:1; fill:none" points="
  2205.92,303.509 2224.82,303.509 
  "/>
<polyline clip-path="url(#clip510)" style="stroke:#000000; stroke-linecap:round; stroke-linejoin:round; stroke-width:4; stroke-opacity:1; fill:none" points="
  2205.92,163.7 2224.82,163.7 
  "/>
<path clip-path="url(#clip510)" d="M2088.75 848.545 Q2085.14 848.545 2083.31 852.11 Q2081.5 855.652 2081.5 862.781 Q2081.5 869.888 2083.31 873.453 Q2085.14 876.994 2088.75 876.994 Q2092.38 876.994 2094.19 873.453 Q2096.02 869.888 2096.02 862.781 Q2096.02 855.652 2094.19 852.11 Q2092.38 848.545 2088.75 848.545 M2088.75 844.842 Q2094.56 844.842 2097.61 849.448 Q2100.69 854.031 2100.69 862.781 Q2100.69 871.508 2097.61 876.115 Q2094.56 880.698 2088.75 880.698 Q2082.94 880.698 2079.86 876.115 Q2076.8 871.508 2076.8 862.781 Q2076.8 854.031 2079.86 849.448 Q2082.94 844.842 2088.75 844.842 Z" fill="#000000" fill-rule="evenodd" fill-opacity="1" /><path clip-path="url(#clip510)" d="M2108.91 874.147 L2113.79 874.147 L2113.79 880.027 L2108.91 880.027 L2108.91 874.147 Z" fill="#000000" fill-rule="evenodd" fill-opacity="1" /><path clip-path="url(#clip510)" d="M2133.98 848.545 Q2130.37 848.545 2128.54 852.11 Q2126.73 855.652 2126.73 862.781 Q2126.73 869.888 2128.54 873.453 Q2130.37 876.994 2133.98 876.994 Q2137.61 876.994 2139.42 873.453 Q2141.25 869.888 2141.25 862.781 Q2141.25 855.652 2139.42 852.11 Q2137.61 848.545 2133.98 848.545 M2133.98 844.842 Q2139.79 844.842 2142.84 849.448 Q2145.92 854.031 2145.92 862.781 Q2145.92 871.508 2142.84 876.115 Q2139.79 880.698 2133.98 880.698 Q2128.17 880.698 2125.09 876.115 Q2122.03 871.508 2122.03 862.781 Q2122.03 854.031 2125.09 849.448 Q2128.17 844.842 2133.98 844.842 Z" fill="#000000" fill-rule="evenodd" fill-opacity="1" /><path clip-path="url(#clip510)" d="M2089.74 708.736 Q2086.13 708.736 2084.3 712.301 Q2082.5 715.842 2082.5 722.972 Q2082.5 730.078 2084.3 733.643 Q2086.13 737.185 2089.74 737.185 Q2093.38 737.185 2095.18 733.643 Q2097.01 730.078 2097.01 722.972 Q2097.01 715.842 2095.18 712.301 Q2093.38 708.736 2089.74 708.736 M2089.74 705.032 Q2095.55 705.032 2098.61 709.639 Q2101.69 714.222 2101.69 722.972 Q2101.69 731.699 2098.61 736.305 Q2095.55 740.889 2089.74 740.889 Q2083.93 740.889 2080.85 736.305 Q2077.8 731.699 2077.8 722.972 Q2077.8 714.222 2080.85 709.639 Q2083.93 705.032 2089.74 705.032 Z" fill="#000000" fill-rule="evenodd" fill-opacity="1" /><path clip-path="url(#clip510)" d="M2109.9 734.338 L2114.79 734.338 L2114.79 740.217 L2109.9 740.217 L2109.9 734.338 Z" fill="#000000" fill-rule="evenodd" fill-opacity="1" /><path clip-path="url(#clip510)" d="M2125.02 705.657 L2143.38 705.657 L2143.38 709.592 L2129.3 709.592 L2129.3 718.065 Q2130.32 717.717 2131.34 717.555 Q2132.36 717.37 2133.38 717.37 Q2139.16 717.37 2142.54 720.541 Q2145.92 723.713 2145.92 729.129 Q2145.92 734.708 2142.45 737.81 Q2138.98 740.889 2132.66 740.889 Q2130.48 740.889 2128.21 740.518 Q2125.97 740.148 2123.56 739.407 L2123.56 734.708 Q2125.65 735.842 2127.87 736.398 Q2130.09 736.953 2132.57 736.953 Q2136.57 736.953 2138.91 734.847 Q2141.25 732.74 2141.25 729.129 Q2141.25 725.518 2138.91 723.412 Q2136.57 721.305 2132.57 721.305 Q2130.69 721.305 2128.82 721.722 Q2126.96 722.139 2125.02 723.018 L2125.02 705.657 Z" fill="#000000" fill-rule="evenodd" fill-opacity="1" /><path clip-path="url(#clip510)" d="M2079.56 596.473 L2087.2 596.473 L2087.2 570.107 L2078.89 571.774 L2078.89 567.514 L2087.15 565.848 L2091.83 565.848 L2091.83 596.473 L2099.47 596.473 L2099.47 600.408 L2079.56 600.408 L2079.56 596.473 Z" fill="#000000" fill-rule="evenodd" fill-opacity="1" /><path clip-path="url(#clip510)" d="M2108.91 594.528 L2113.79 594.528 L2113.79 600.408 L2108.91 600.408 L2108.91 594.528 Z" fill="#000000" fill-rule="evenodd" fill-opacity="1" /><path clip-path="url(#clip510)" d="M2133.98 568.927 Q2130.37 568.927 2128.54 572.491 Q2126.73 576.033 2126.73 583.163 Q2126.73 590.269 2128.54 593.834 Q2130.37 597.375 2133.98 597.375 Q2137.61 597.375 2139.42 593.834 Q2141.25 590.269 2141.25 583.163 Q2141.25 576.033 2139.42 572.491 Q2137.61 568.927 2133.98 568.927 M2133.98 565.223 Q2139.79 565.223 2142.84 569.829 Q2145.92 574.413 2145.92 583.163 Q2145.92 591.889 2142.84 596.496 Q2139.79 601.079 2133.98 601.079 Q2128.17 601.079 2125.09 596.496 Q2122.03 591.889 2122.03 583.163 Q2122.03 574.413 2125.09 569.829 Q2128.17 565.223 2133.98 565.223 Z" fill="#000000" fill-rule="evenodd" fill-opacity="1" /><path clip-path="url(#clip510)" d="M2080.55 456.663 L2088.19 456.663 L2088.19 430.298 L2079.88 431.964 L2079.88 427.705 L2088.15 426.038 L2092.82 426.038 L2092.82 456.663 L2100.46 456.663 L2100.46 460.598 L2080.55 460.598 L2080.55 456.663 Z" fill="#000000" fill-rule="evenodd" fill-opacity="1" /><path clip-path="url(#clip510)" d="M2109.9 454.719 L2114.79 454.719 L2114.79 460.598 L2109.9 460.598 L2109.9 454.719 Z" fill="#000000" fill-rule="evenodd" fill-opacity="1" /><path clip-path="url(#clip510)" d="M2125.02 426.038 L2143.38 426.038 L2143.38 429.974 L2129.3 429.974 L2129.3 438.446 Q2130.32 438.099 2131.34 437.937 Q2132.36 437.751 2133.38 437.751 Q2139.16 437.751 2142.54 440.923 Q2145.92 444.094 2145.92 449.511 Q2145.92 455.089 2142.45 458.191 Q2138.98 461.27 2132.66 461.27 Q2130.48 461.27 2128.21 460.899 Q2125.97 460.529 2123.56 459.788 L2123.56 455.089 Q2125.65 456.223 2127.87 456.779 Q2130.09 457.335 2132.57 457.335 Q2136.57 457.335 2138.91 455.228 Q2141.25 453.122 2141.25 449.511 Q2141.25 445.899 2138.91 443.793 Q2136.57 441.686 2132.57 441.686 Q2130.69 441.686 2128.82 442.103 Q2126.96 442.52 2125.02 443.399 L2125.02 426.038 Z" fill="#000000" fill-rule="evenodd" fill-opacity="1" /><path clip-path="url(#clip510)" d="M2082.78 316.854 L2099.09 316.854 L2099.09 320.789 L2077.15 320.789 L2077.15 316.854 Q2079.81 314.099 2084.4 309.47 Q2089 304.817 2090.18 303.474 Q2092.43 300.951 2093.31 299.215 Q2094.21 297.456 2094.21 295.766 Q2094.21 293.011 2092.27 291.275 Q2090.34 289.539 2087.24 289.539 Q2085.04 289.539 2082.59 290.303 Q2080.16 291.067 2077.38 292.618 L2077.38 287.896 Q2080.21 286.761 2082.66 286.183 Q2085.11 285.604 2087.15 285.604 Q2092.52 285.604 2095.72 288.289 Q2098.91 290.974 2098.91 295.465 Q2098.91 297.595 2098.1 299.516 Q2097.31 301.414 2095.21 304.007 Q2094.63 304.678 2091.53 307.896 Q2088.42 311.09 2082.78 316.854 Z" fill="#000000" fill-rule="evenodd" fill-opacity="1" /><path clip-path="url(#clip510)" d="M2108.91 314.909 L2113.79 314.909 L2113.79 320.789 L2108.91 320.789 L2108.91 314.909 Z" fill="#000000" fill-rule="evenodd" fill-opacity="1" /><path clip-path="url(#clip510)" d="M2133.98 289.308 Q2130.37 289.308 2128.54 292.873 Q2126.73 296.414 2126.73 303.544 Q2126.73 310.65 2128.54 314.215 Q2130.37 317.757 2133.98 317.757 Q2137.61 317.757 2139.42 314.215 Q2141.25 310.65 2141.25 303.544 Q2141.25 296.414 2139.42 292.873 Q2137.61 289.308 2133.98 289.308 M2133.98 285.604 Q2139.79 285.604 2142.84 290.211 Q2145.92 294.794 2145.92 303.544 Q2145.92 312.271 2142.84 316.877 Q2139.79 321.46 2133.98 321.46 Q2128.17 321.46 2125.09 316.877 Q2122.03 312.271 2122.03 303.544 Q2122.03 294.794 2125.09 290.211 Q2128.17 285.604 2133.98 285.604 Z" fill="#000000" fill-rule="evenodd" fill-opacity="1" /><path clip-path="url(#clip510)" d="M2083.77 177.044 L2100.09 177.044 L2100.09 180.98 L2078.15 180.98 L2078.15 177.044 Q2080.81 174.29 2085.39 169.66 Q2090 165.008 2091.18 163.665 Q2093.42 161.142 2094.3 159.406 Q2095.21 157.646 2095.21 155.957 Q2095.21 153.202 2093.26 151.466 Q2091.34 149.73 2088.24 149.73 Q2086.04 149.73 2083.59 150.494 Q2081.16 151.258 2078.38 152.809 L2078.38 148.086 Q2081.2 146.952 2083.66 146.373 Q2086.11 145.795 2088.15 145.795 Q2093.52 145.795 2096.71 148.48 Q2099.9 151.165 2099.9 155.656 Q2099.9 157.785 2099.09 159.707 Q2098.31 161.605 2096.2 164.197 Q2095.62 164.869 2092.52 168.086 Q2089.42 171.281 2083.77 177.044 Z" fill="#000000" fill-rule="evenodd" fill-opacity="1" /><path clip-path="url(#clip510)" d="M2109.9 175.1 L2114.79 175.1 L2114.79 180.98 L2109.9 180.98 L2109.9 175.1 Z" fill="#000000" fill-rule="evenodd" fill-opacity="1" /><path clip-path="url(#clip510)" d="M2125.02 146.42 L2143.38 146.42 L2143.38 150.355 L2129.3 150.355 L2129.3 158.827 Q2130.32 158.48 2131.34 158.318 Q2132.36 158.133 2133.38 158.133 Q2139.16 158.133 2142.54 161.304 Q2145.92 164.475 2145.92 169.892 Q2145.92 175.47 2142.45 178.572 Q2138.98 181.651 2132.66 181.651 Q2130.48 181.651 2128.21 181.281 Q2125.97 180.91 2123.56 180.169 L2123.56 175.47 Q2125.65 176.605 2127.87 177.16 Q2130.09 177.716 2132.57 177.716 Q2136.57 177.716 2138.91 175.609 Q2141.25 173.503 2141.25 169.892 Q2141.25 166.281 2138.91 164.174 Q2136.57 162.068 2132.57 162.068 Q2130.69 162.068 2128.82 162.484 Q2126.96 162.901 2125.02 163.781 L2125.02 146.42 Z" fill="#000000" fill-rule="evenodd" fill-opacity="1" /><path clip-path="url(#clip510)" d="M1960.31 596.386 L1997.26 596.386 L1997.26 588.619 Q1997.26 578.784 1992.81 574.233 Q1988.35 569.65 1978.74 569.65 Q1969.19 569.65 1964.77 574.233 Q1960.31 578.784 1960.31 588.619 L1960.31 596.386 M1955.03 602.815 L1955.03 589.606 Q1955.03 575.793 1960.79 569.331 Q1966.52 562.87 1978.74 562.87 Q1991.03 562.87 1996.79 569.363 Q2002.55 575.856 2002.55 589.606 L2002.55 602.815 L1955.03 602.815 Z" fill="#000000" fill-rule="evenodd" fill-opacity="1" /><path clip-path="url(#clip510)" d="M1983.26 522.384 L1986.12 522.384 L1986.12 549.311 Q1992.17 548.929 1995.35 545.683 Q1998.5 542.404 1998.5 536.58 Q1998.5 533.206 1997.68 530.055 Q1996.85 526.872 1995.19 523.753 L2000.73 523.753 Q2002.07 526.904 2002.77 530.214 Q2003.47 533.524 2003.47 536.93 Q2003.47 545.46 1998.5 550.457 Q1993.54 555.422 1985.07 555.422 Q1976.32 555.422 1971.2 550.712 Q1966.04 545.969 1966.04 537.948 Q1966.04 530.755 1970.69 526.586 Q1975.3 522.384 1983.26 522.384 M1981.54 528.241 Q1976.73 528.304 1973.87 530.946 Q1971.01 533.556 1971.01 537.885 Q1971.01 542.786 1973.77 545.746 Q1976.54 548.675 1981.57 549.12 L1981.54 528.241 Z" fill="#000000" fill-rule="evenodd" fill-opacity="1" /><path clip-path="url(#clip510)" d="M1981.03 483.14 L2002.55 483.14 L2002.55 488.996 L1981.22 488.996 Q1976.16 488.996 1973.65 490.969 Q1971.13 492.943 1971.13 496.89 Q1971.13 501.632 1974.16 504.369 Q1977.18 507.107 1982.4 507.107 L2002.55 507.107 L2002.55 512.995 L1966.9 512.995 L1966.9 507.107 L1972.44 507.107 Q1969.22 505.006 1967.63 502.173 Q1966.04 499.309 1966.04 495.585 Q1966.04 489.442 1969.86 486.291 Q1973.65 483.14 1981.03 483.14 Z" fill="#000000" fill-rule="evenodd" fill-opacity="1" /><path clip-path="url(#clip510)" d="M1967.95 448.733 L1973.49 448.733 Q1972.21 451.216 1971.58 453.889 Q1970.94 456.563 1970.94 459.427 Q1970.94 463.788 1972.28 465.984 Q1973.62 468.148 1976.29 468.148 Q1978.33 468.148 1979.5 466.589 Q1980.65 465.029 1981.7 460.319 L1982.15 458.313 Q1983.48 452.075 1985.93 449.465 Q1988.35 446.823 1992.71 446.823 Q1997.68 446.823 2000.57 450.77 Q2003.47 454.685 2003.47 461.56 Q2003.47 464.424 2002.9 467.544 Q2002.36 470.631 2001.24 474.069 L1995.19 474.069 Q1996.88 470.822 1997.74 467.671 Q1998.57 464.52 1998.57 461.433 Q1998.57 457.295 1997.17 455.067 Q1995.74 452.839 1993.16 452.839 Q1990.77 452.839 1989.5 454.462 Q1988.22 456.054 1987.05 461.496 L1986.57 463.533 Q1985.42 468.976 1983.07 471.395 Q1980.68 473.814 1976.54 473.814 Q1971.51 473.814 1968.78 470.249 Q1966.04 466.684 1966.04 460.128 Q1966.04 456.881 1966.52 454.017 Q1966.99 451.152 1967.95 448.733 Z" fill="#000000" fill-rule="evenodd" fill-opacity="1" /><path clip-path="url(#clip510)" d="M1966.9 437.498 L1966.9 431.641 L2002.55 431.641 L2002.55 437.498 L1966.9 437.498 M1953.02 437.498 L1953.02 431.641 L1960.44 431.641 L1960.44 437.498 L1953.02 437.498 Z" fill="#000000" fill-rule="evenodd" fill-opacity="1" /><path clip-path="url(#clip510)" d="M1956.78 413.594 L1966.9 413.594 L1966.9 401.531 L1971.45 401.531 L1971.45 413.594 L1990.8 413.594 Q1995.16 413.594 1996.4 412.417 Q1997.65 411.207 1997.65 407.547 L1997.65 401.531 L2002.55 401.531 L2002.55 407.547 Q2002.55 414.326 2000.03 416.904 Q1997.49 419.483 1990.8 419.483 L1971.45 419.483 L1971.45 423.779 L1966.9 423.779 L1966.9 419.483 L1956.78 419.483 L1956.78 413.594 Z" fill="#000000" fill-rule="evenodd" fill-opacity="1" /><path clip-path="url(#clip510)" d="M2005.86 378.997 Q2012.22 381.479 2014.16 383.835 Q2016.11 386.19 2016.11 390.137 L2016.11 394.815 L2011.2 394.815 L2011.2 391.378 Q2011.2 388.959 2010.06 387.622 Q2008.91 386.285 2004.65 384.662 L2001.97 383.612 L1966.9 398.03 L1966.9 391.824 L1994.78 380.684 L1966.9 369.544 L1966.9 363.337 L2005.86 378.997 Z" fill="#000000" fill-rule="evenodd" fill-opacity="1" /><path clip-path="url(#clip510)" d="M3092.22 43.8146 L3066.42 43.8146 Q3067.02 55.9268 3069.82 61.0714 Q3073.3 67.3908 3079.34 67.3908 Q3085.42 67.3908 3088.78 61.0309 Q3091.74 55.4407 3092.22 43.8146 M3092.1 36.928 Q3090.97 25.4235 3088.78 21.3726 Q3085.29 14.9721 3079.34 14.9721 Q3073.14 14.9721 3069.86 21.2916 Q3067.27 26.3957 3066.5 36.928 L3092.1 36.928 M3079.34 8.89579 Q3089.06 8.89579 3094.61 17.4837 Q3100.16 26.0311 3100.16 41.1815 Q3100.16 56.2914 3094.61 64.8793 Q3089.06 73.5077 3079.34 73.5077 Q3069.58 73.5077 3064.07 64.8793 Q3058.52 56.2914 3058.52 41.1815 Q3058.52 26.0311 3064.07 17.4837 Q3069.58 8.89579 3079.34 8.89579 Z" fill="#000000" fill-rule="evenodd" fill-opacity="1" /><polyline clip-path="url(#clip513)" style="stroke:#009af9; stroke-linecap:round; stroke-linejoin:round; stroke-width:4; stroke-opacity:1; fill:none" points="
  2255.36,857.985 2266.28,857.553 2277.19,857.067 2288.1,856.495 2299.02,855.8 2309.93,854.949 2320.84,853.917 2331.76,852.692 2342.67,851.273 2353.58,849.676 
  2364.5,847.926 2375.41,846.055 2386.33,844.096 2397.24,842.075 2408.15,840.005 2419.07,837.886 2429.98,835.694 2440.89,833.388 2451.81,830.907 2462.72,828.179 
  2473.63,825.119 2484.55,821.641 2495.46,817.662 2506.37,813.108 2517.29,807.922 2528.2,802.07 2539.12,795.547 2550.03,788.379 2560.94,780.628 2571.86,772.393 
  2582.77,763.805 2593.68,755.023 2604.6,746.224 2615.51,737.594 2626.42,729.312 2637.34,721.537 2648.25,714.39 2659.17,707.945 2670.08,702.214 2680.99,697.138 
  2691.91,692.592 2702.82,688.382 2713.73,684.263 2724.65,679.959 2735.56,675.181 2746.47,669.659 2757.39,663.167 2768.3,655.537 2779.22,646.675 2790.13,636.558 
  2801.04,625.228 2811.96,612.777 2822.87,599.322 2833.78,584.985 2844.7,569.879 2855.61,554.093 2866.52,537.692 2877.44,520.718 2888.35,503.204 2899.26,485.188 
  2910.18,466.721 2921.09,447.883 2932.01,428.789 2942.92,409.585 2953.83,390.448 2964.75,371.574 2975.66,353.168 2986.57,335.426 2997.49,318.529 3008.4,302.625 
  3019.31,287.82 3030.23,274.169 3041.14,261.671 3052.06,250.263 3062.97,239.825 3073.88,230.184 3084.8,221.127 3095.71,212.417 3106.62,203.821 3117.54,195.132 
  3128.45,186.197 3139.36,176.944 3150.28,167.395 3161.19,157.68 3172.11,148.023 3183.02,138.731 3193.93,130.155 3204.85,122.649 3215.76,116.529 3226.67,112.025 
  3237.59,109.246 3248.5,108.167 3259.41,108.623 3270.33,110.332 3281.24,112.931 3292.15,116.023 3303.07,119.231 3313.98,122.247 3324.9,124.873 3335.81,127.04 
  3346.72,128.815 3357.64,130.382 3368.55,132.011 3379.46,134.013 3390.38,136.693 3401.29,140.313 3412.2,145.059 3423.12,151.032 3434.03,158.253 3444.95,166.681 
  3455.86,176.247 3466.77,186.879 3477.69,198.535 3488.6,211.211 3499.51,224.945 3510.43,239.806 3521.34,255.867 3532.25,273.184 3543.17,291.766 3554.08,311.565 
  3565,332.465 3575.91,354.292 3586.82,376.828 3597.74,399.836 3608.65,423.076 3619.56,446.333 3630.48,469.424 3641.39,492.202 3652.3,514.558 3663.22,536.409 
  3674.13,557.689 3685.05,578.338 3695.96,598.295 3706.87,617.492 3717.79,635.857 3728.7,653.316 3739.61,669.802 3750.53,685.265 3761.44,699.679 3772.35,713.051 
  3783.27,725.423 3794.18,736.871 3805.09,747.496 3816.01,757.417 3826.92,766.755 3837.84,775.622 3848.75,784.106 3859.66,792.265 3870.58,800.121 3881.49,807.667 
  3892.4,814.865 3903.32,821.66 
  "/>
</svg>
