<?xml version="1.0" encoding="utf-8"?>
<svg xmlns="http://www.w3.org/2000/svg" xmlns:xlink="http://www.w3.org/1999/xlink" width="1000" height="250" viewBox="0 0 4000 1000">
<defs>
  <clipPath id="clip360">
    <rect x="0" y="0" width="4000" height="1000"/>
  </clipPath>
</defs>
<path clip-path="url(#clip360)" d="
M0 1000 L4000 1000 L4000 0 L0 0  Z
  " fill="#ffffff" fill-rule="evenodd" fill-opacity="1"/>
<defs>
  <clipPath id="clip361">
    <rect x="800" y="0" width="2801" height="1000"/>
  </clipPath>
</defs>
<path clip-path="url(#clip360)" d="
M206.166 880.48 L1953 880.48 L1953 85.6721 L206.166 85.6721  Z
  " fill="#ffffff" fill-rule="evenodd" fill-opacity="1"/>
<defs>
  <clipPath id="clip362">
    <rect x="206" y="85" width="1748" height="796"/>
  </clipPath>
</defs>
<polyline clip-path="url(#clip362)" style="stroke:#000000; stroke-linecap:butt; stroke-linejoin:round; stroke-width:2; stroke-opacity:0.1; fill:none" points="
  418.916,880.48 418.916,85.6721 
  "/>
<polyline clip-path="url(#clip362)" style="stroke:#000000; stroke-linecap:butt; stroke-linejoin:round; stroke-width:2; stroke-opacity:0.1; fill:none" points="
  748.837,880.48 748.837,85.6721 
  "/>
<polyline clip-path="url(#clip362)" style="stroke:#000000; stroke-linecap:butt; stroke-linejoin:round; stroke-width:2; stroke-opacity:0.1; fill:none" points="
  1078.76,880.48 1078.76,85.6721 
  "/>
<polyline clip-path="url(#clip362)" style="stroke:#000000; stroke-linecap:butt; stroke-linejoin:round; stroke-width:2; stroke-opacity:0.1; fill:none" points="
  1408.68,880.48 1408.68,85.6721 
  "/>
<polyline clip-path="url(#clip362)" style="stroke:#000000; stroke-linecap:butt; stroke-linejoin:round; stroke-width:2; stroke-opacity:0.1; fill:none" points="
  1738.6,880.48 1738.6,85.6721 
  "/>
<polyline clip-path="url(#clip360)" style="stroke:#000000; stroke-linecap:butt; stroke-linejoin:round; stroke-width:4; stroke-opacity:1; fill:none" points="
  206.166,880.48 1953,880.48 
  "/>
<polyline clip-path="url(#clip360)" style="stroke:#000000; stroke-linecap:butt; stroke-linejoin:round; stroke-width:4; stroke-opacity:1; fill:none" points="
  418.916,880.48 418.916,870.942 
  "/>
<polyline clip-path="url(#clip360)" style="stroke:#000000; stroke-linecap:butt; stroke-linejoin:round; stroke-width:4; stroke-opacity:1; fill:none" points="
  748.837,880.48 748.837,870.942 
  "/>
<polyline clip-path="url(#clip360)" style="stroke:#000000; stroke-linecap:butt; stroke-linejoin:round; stroke-width:4; stroke-opacity:1; fill:none" points="
  1078.76,880.48 1078.76,870.942 
  "/>
<polyline clip-path="url(#clip360)" style="stroke:#000000; stroke-linecap:butt; stroke-linejoin:round; stroke-width:4; stroke-opacity:1; fill:none" points="
  1408.68,880.48 1408.68,870.942 
  "/>
<polyline clip-path="url(#clip360)" style="stroke:#000000; stroke-linecap:butt; stroke-linejoin:round; stroke-width:4; stroke-opacity:1; fill:none" points="
  1738.6,880.48 1738.6,870.942 
  "/>
<path clip-path="url(#clip360)" d="M389.24 934.808 Q386.092 934.808 384.24 936.961 Q382.411 939.114 382.411 942.864 Q382.411 946.591 384.24 948.767 Q386.092 950.919 389.24 950.919 Q392.388 950.919 394.217 948.767 Q396.069 946.591 396.069 942.864 Q396.069 939.114 394.217 936.961 Q392.388 934.808 389.24 934.808 M398.522 920.156 L398.522 924.415 Q396.763 923.582 394.958 923.142 Q393.175 922.702 391.416 922.702 Q386.786 922.702 384.333 925.827 Q381.902 928.952 381.555 935.271 Q382.921 933.258 384.981 932.193 Q387.041 931.105 389.518 931.105 Q394.726 931.105 397.735 934.276 Q400.768 937.424 400.768 942.864 Q400.768 948.188 397.62 951.406 Q394.472 954.623 389.24 954.623 Q383.245 954.623 380.073 950.04 Q376.902 945.433 376.902 936.707 Q376.902 928.512 380.791 923.651 Q384.68 918.767 391.231 918.767 Q392.99 918.767 394.772 919.114 Q396.578 919.461 398.522 920.156 Z" fill="#000000" fill-rule="evenodd" fill-opacity="1" /><path clip-path="url(#clip360)" d="M418.823 922.471 Q415.212 922.471 413.383 926.035 Q411.578 929.577 411.578 936.707 Q411.578 943.813 413.383 947.378 Q415.212 950.919 418.823 950.919 Q422.457 950.919 424.263 947.378 Q426.092 943.813 426.092 936.707 Q426.092 929.577 424.263 926.035 Q422.457 922.471 418.823 922.471 M418.823 918.767 Q424.633 918.767 427.689 923.373 Q430.768 927.957 430.768 936.707 Q430.768 945.433 427.689 950.04 Q424.633 954.623 418.823 954.623 Q413.013 954.623 409.934 950.04 Q406.879 945.433 406.879 936.707 Q406.879 927.957 409.934 923.373 Q413.013 918.767 418.823 918.767 Z" fill="#000000" fill-rule="evenodd" fill-opacity="1" /><path clip-path="url(#clip360)" d="M448.985 922.471 Q445.374 922.471 443.545 926.035 Q441.74 929.577 441.74 936.707 Q441.74 943.813 443.545 947.378 Q445.374 950.919 448.985 950.919 Q452.619 950.919 454.425 947.378 Q456.254 943.813 456.254 936.707 Q456.254 929.577 454.425 926.035 Q452.619 922.471 448.985 922.471 M448.985 918.767 Q454.795 918.767 457.851 923.373 Q460.929 927.957 460.929 936.707 Q460.929 945.433 457.851 950.04 Q454.795 954.623 448.985 954.623 Q443.175 954.623 440.096 950.04 Q437.041 945.433 437.041 936.707 Q437.041 927.957 440.096 923.373 Q443.175 918.767 448.985 918.767 Z" fill="#000000" fill-rule="evenodd" fill-opacity="1" /><path clip-path="url(#clip360)" d="M718.629 937.54 Q715.295 937.54 713.374 939.322 Q711.476 941.105 711.476 944.23 Q711.476 947.355 713.374 949.137 Q715.295 950.919 718.629 950.919 Q721.962 950.919 723.883 949.137 Q725.805 947.332 725.805 944.23 Q725.805 941.105 723.883 939.322 Q721.985 937.54 718.629 937.54 M713.953 935.549 Q710.943 934.808 709.254 932.748 Q707.587 930.688 707.587 927.725 Q707.587 923.582 710.527 921.174 Q713.49 918.767 718.629 918.767 Q723.791 918.767 726.73 921.174 Q729.67 923.582 729.67 927.725 Q729.67 930.688 727.98 932.748 Q726.314 934.808 723.328 935.549 Q726.707 936.336 728.582 938.628 Q730.48 940.92 730.48 944.23 Q730.48 949.253 727.402 951.938 Q724.346 954.623 718.629 954.623 Q712.911 954.623 709.832 951.938 Q706.777 949.253 706.777 944.23 Q706.777 940.92 708.675 938.628 Q710.573 936.336 713.953 935.549 M712.24 928.165 Q712.24 930.85 713.906 932.355 Q715.596 933.859 718.629 933.859 Q721.638 933.859 723.328 932.355 Q725.041 930.85 725.041 928.165 Q725.041 925.48 723.328 923.975 Q721.638 922.471 718.629 922.471 Q715.596 922.471 713.906 923.975 Q712.24 925.48 712.24 928.165 Z" fill="#000000" fill-rule="evenodd" fill-opacity="1" /><path clip-path="url(#clip360)" d="M748.791 922.471 Q745.179 922.471 743.351 926.035 Q741.545 929.577 741.545 936.707 Q741.545 943.813 743.351 947.378 Q745.179 950.919 748.791 950.919 Q752.425 950.919 754.23 947.378 Q756.059 943.813 756.059 936.707 Q756.059 929.577 754.23 926.035 Q752.425 922.471 748.791 922.471 M748.791 918.767 Q754.601 918.767 757.656 923.373 Q760.735 927.957 760.735 936.707 Q760.735 945.433 757.656 950.04 Q754.601 954.623 748.791 954.623 Q742.98 954.623 739.902 950.04 Q736.846 945.433 736.846 936.707 Q736.846 927.957 739.902 923.373 Q742.98 918.767 748.791 918.767 Z" fill="#000000" fill-rule="evenodd" fill-opacity="1" /><path clip-path="url(#clip360)" d="M778.952 922.471 Q775.341 922.471 773.513 926.035 Q771.707 929.577 771.707 936.707 Q771.707 943.813 773.513 947.378 Q775.341 950.919 778.952 950.919 Q782.587 950.919 784.392 947.378 Q786.221 943.813 786.221 936.707 Q786.221 929.577 784.392 926.035 Q782.587 922.471 778.952 922.471 M778.952 918.767 Q784.763 918.767 787.818 923.373 Q790.897 927.957 790.897 936.707 Q790.897 945.433 787.818 950.04 Q784.763 954.623 778.952 954.623 Q773.142 954.623 770.064 950.04 Q767.008 945.433 767.008 936.707 Q767.008 927.957 770.064 923.373 Q773.142 918.767 778.952 918.767 Z" fill="#000000" fill-rule="evenodd" fill-opacity="1" /><path clip-path="url(#clip360)" d="M1023.28 950.017 L1030.92 950.017 L1030.92 923.651 L1022.61 925.318 L1022.61 921.059 L1030.88 919.392 L1035.55 919.392 L1035.55 950.017 L1043.19 950.017 L1043.19 953.952 L1023.28 953.952 L1023.28 950.017 Z" fill="#000000" fill-rule="evenodd" fill-opacity="1" /><path clip-path="url(#clip360)" d="M1062.64 922.471 Q1059.02 922.471 1057.2 926.035 Q1055.39 929.577 1055.39 936.707 Q1055.39 943.813 1057.2 947.378 Q1059.02 950.919 1062.64 950.919 Q1066.27 950.919 1068.07 947.378 Q1069.9 943.813 1069.9 936.707 Q1069.9 929.577 1068.07 926.035 Q1066.27 922.471 1062.64 922.471 M1062.64 918.767 Q1068.45 918.767 1071.5 923.373 Q1074.58 927.957 1074.58 936.707 Q1074.58 945.433 1071.5 950.04 Q1068.45 954.623 1062.64 954.623 Q1056.83 954.623 1053.75 950.04 Q1050.69 945.433 1050.69 936.707 Q1050.69 927.957 1053.75 923.373 Q1056.83 918.767 1062.64 918.767 Z" fill="#000000" fill-rule="evenodd" fill-opacity="1" /><path clip-path="url(#clip360)" d="M1092.8 922.471 Q1089.19 922.471 1087.36 926.035 Q1085.55 929.577 1085.55 936.707 Q1085.55 943.813 1087.36 947.378 Q1089.19 950.919 1092.8 950.919 Q1096.43 950.919 1098.24 947.378 Q1100.07 943.813 1100.07 936.707 Q1100.07 929.577 1098.24 926.035 Q1096.43 922.471 1092.8 922.471 M1092.8 918.767 Q1098.61 918.767 1101.66 923.373 Q1104.74 927.957 1104.74 936.707 Q1104.74 945.433 1101.66 950.04 Q1098.61 954.623 1092.8 954.623 Q1086.99 954.623 1083.91 950.04 Q1080.85 945.433 1080.85 936.707 Q1080.85 927.957 1083.91 923.373 Q1086.99 918.767 1092.8 918.767 Z" fill="#000000" fill-rule="evenodd" fill-opacity="1" /><path clip-path="url(#clip360)" d="M1122.96 922.471 Q1119.35 922.471 1117.52 926.035 Q1115.71 929.577 1115.71 936.707 Q1115.71 943.813 1117.52 947.378 Q1119.35 950.919 1122.96 950.919 Q1126.59 950.919 1128.4 947.378 Q1130.23 943.813 1130.23 936.707 Q1130.23 929.577 1128.4 926.035 Q1126.59 922.471 1122.96 922.471 M1122.96 918.767 Q1128.77 918.767 1131.82 923.373 Q1134.9 927.957 1134.9 936.707 Q1134.9 945.433 1131.82 950.04 Q1128.77 954.623 1122.96 954.623 Q1117.15 954.623 1114.07 950.04 Q1111.01 945.433 1111.01 936.707 Q1111.01 927.957 1114.07 923.373 Q1117.15 918.767 1122.96 918.767 Z" fill="#000000" fill-rule="evenodd" fill-opacity="1" /><path clip-path="url(#clip360)" d="M1353.2 950.017 L1360.84 950.017 L1360.84 923.651 L1352.53 925.318 L1352.53 921.059 L1360.8 919.392 L1365.47 919.392 L1365.47 950.017 L1373.11 950.017 L1373.11 953.952 L1353.2 953.952 L1353.2 950.017 Z" fill="#000000" fill-rule="evenodd" fill-opacity="1" /><path clip-path="url(#clip360)" d="M1386.58 950.017 L1402.9 950.017 L1402.9 953.952 L1380.96 953.952 L1380.96 950.017 Q1383.62 947.262 1388.2 942.632 Q1392.81 937.98 1393.99 936.637 Q1396.24 934.114 1397.12 932.378 Q1398.02 930.619 1398.02 928.929 Q1398.02 926.174 1396.07 924.438 Q1394.15 922.702 1391.05 922.702 Q1388.85 922.702 1386.4 923.466 Q1383.97 924.23 1381.19 925.781 L1381.19 921.059 Q1384.01 919.924 1386.47 919.346 Q1388.92 918.767 1390.96 918.767 Q1396.33 918.767 1399.52 921.452 Q1402.72 924.137 1402.72 928.628 Q1402.72 930.758 1401.91 932.679 Q1401.12 934.577 1399.01 937.17 Q1398.44 937.841 1395.33 941.058 Q1392.23 944.253 1386.58 950.017 Z" fill="#000000" fill-rule="evenodd" fill-opacity="1" /><path clip-path="url(#clip360)" d="M1422.72 922.471 Q1419.11 922.471 1417.28 926.035 Q1415.47 929.577 1415.47 936.707 Q1415.47 943.813 1417.28 947.378 Q1419.11 950.919 1422.72 950.919 Q1426.35 950.919 1428.16 947.378 Q1429.99 943.813 1429.99 936.707 Q1429.99 929.577 1428.16 926.035 Q1426.35 922.471 1422.72 922.471 M1422.72 918.767 Q1428.53 918.767 1431.58 923.373 Q1434.66 927.957 1434.66 936.707 Q1434.66 945.433 1431.58 950.04 Q1428.53 954.623 1422.72 954.623 Q1416.91 954.623 1413.83 950.04 Q1410.77 945.433 1410.77 936.707 Q1410.77 927.957 1413.83 923.373 Q1416.91 918.767 1422.72 918.767 Z" fill="#000000" fill-rule="evenodd" fill-opacity="1" /><path clip-path="url(#clip360)" d="M1452.88 922.471 Q1449.27 922.471 1447.44 926.035 Q1445.63 929.577 1445.63 936.707 Q1445.63 943.813 1447.44 947.378 Q1449.27 950.919 1452.88 950.919 Q1456.51 950.919 1458.32 947.378 Q1460.15 943.813 1460.15 936.707 Q1460.15 929.577 1458.32 926.035 Q1456.51 922.471 1452.88 922.471 M1452.88 918.767 Q1458.69 918.767 1461.75 923.373 Q1464.82 927.957 1464.82 936.707 Q1464.82 945.433 1461.75 950.04 Q1458.69 954.623 1452.88 954.623 Q1447.07 954.623 1443.99 950.04 Q1440.94 945.433 1440.94 936.707 Q1440.94 927.957 1443.99 923.373 Q1447.07 918.767 1452.88 918.767 Z" fill="#000000" fill-rule="evenodd" fill-opacity="1" /><path clip-path="url(#clip360)" d="M1683.13 950.017 L1690.76 950.017 L1690.76 923.651 L1682.45 925.318 L1682.45 921.059 L1690.72 919.392 L1695.39 919.392 L1695.39 950.017 L1703.03 950.017 L1703.03 953.952 L1683.13 953.952 L1683.13 950.017 Z" fill="#000000" fill-rule="evenodd" fill-opacity="1" /><path clip-path="url(#clip360)" d="M1725.32 923.466 L1713.52 941.915 L1725.32 941.915 L1725.32 923.466 M1724.1 919.392 L1729.98 919.392 L1729.98 941.915 L1734.91 941.915 L1734.91 945.804 L1729.98 945.804 L1729.98 953.952 L1725.32 953.952 L1725.32 945.804 L1709.72 945.804 L1709.72 941.29 L1724.1 919.392 Z" fill="#000000" fill-rule="evenodd" fill-opacity="1" /><path clip-path="url(#clip360)" d="M1752.64 922.471 Q1749.03 922.471 1747.2 926.035 Q1745.39 929.577 1745.39 936.707 Q1745.39 943.813 1747.2 947.378 Q1749.03 950.919 1752.64 950.919 Q1756.27 950.919 1758.08 947.378 Q1759.91 943.813 1759.91 936.707 Q1759.91 929.577 1758.08 926.035 Q1756.27 922.471 1752.64 922.471 M1752.64 918.767 Q1758.45 918.767 1761.5 923.373 Q1764.58 927.957 1764.58 936.707 Q1764.58 945.433 1761.5 950.04 Q1758.45 954.623 1752.64 954.623 Q1746.83 954.623 1743.75 950.04 Q1740.69 945.433 1740.69 936.707 Q1740.69 927.957 1743.75 923.373 Q1746.83 918.767 1752.64 918.767 Z" fill="#000000" fill-rule="evenodd" fill-opacity="1" /><path clip-path="url(#clip360)" d="M1782.8 922.471 Q1779.19 922.471 1777.36 926.035 Q1775.56 929.577 1775.56 936.707 Q1775.56 943.813 1777.36 947.378 Q1779.19 950.919 1782.8 950.919 Q1786.44 950.919 1788.24 947.378 Q1790.07 943.813 1790.07 936.707 Q1790.07 929.577 1788.24 926.035 Q1786.44 922.471 1782.8 922.471 M1782.8 918.767 Q1788.61 918.767 1791.67 923.373 Q1794.75 927.957 1794.75 936.707 Q1794.75 945.433 1791.67 950.04 Q1788.61 954.623 1782.8 954.623 Q1776.99 954.623 1773.91 950.04 Q1770.86 945.433 1770.86 936.707 Q1770.86 927.957 1773.91 923.373 Q1776.99 918.767 1782.8 918.767 Z" fill="#000000" fill-rule="evenodd" fill-opacity="1" /><path clip-path="url(#clip360)" d="M947.303 1001.82 L953.733 1001.82 L953.733 1049.34 L947.303 1049.34 L947.303 1001.82 Z" fill="#000000" fill-rule="evenodd" fill-opacity="1" /><path clip-path="url(#clip360)" d="M972.066 1003.57 L972.066 1013.7 L984.129 1013.7 L984.129 1018.25 L972.066 1018.25 L972.066 1037.6 Q972.066 1041.96 973.243 1043.2 Q974.453 1044.44 978.113 1044.44 L984.129 1044.44 L984.129 1049.34 L978.113 1049.34 Q971.334 1049.34 968.756 1046.83 Q966.178 1044.28 966.178 1037.6 L966.178 1018.25 L961.881 1018.25 L961.881 1013.7 L966.178 1013.7 L966.178 1003.57 L972.066 1003.57 Z" fill="#000000" fill-rule="evenodd" fill-opacity="1" /><path clip-path="url(#clip360)" d="M1022.32 1030.06 L1022.32 1032.92 L995.396 1032.92 Q995.778 1038.97 999.025 1042.15 Q1002.3 1045.3 1008.13 1045.3 Q1011.5 1045.3 1014.65 1044.47 Q1017.84 1043.65 1020.95 1041.99 L1020.95 1047.53 Q1017.8 1048.87 1014.49 1049.57 Q1011.18 1050.27 1007.78 1050.27 Q999.247 1050.27 994.25 1045.3 Q989.285 1040.34 989.285 1031.87 Q989.285 1023.12 993.996 1017.99 Q998.738 1012.84 1006.76 1012.84 Q1013.95 1012.84 1018.12 1017.48 Q1022.32 1022.1 1022.32 1030.06 M1016.47 1028.34 Q1016.4 1023.53 1013.76 1020.67 Q1011.15 1017.8 1006.82 1017.8 Q1001.92 1017.8 998.961 1020.57 Q996.033 1023.34 995.587 1028.37 L1016.47 1028.34 Z" fill="#000000" fill-rule="evenodd" fill-opacity="1" /><path clip-path="url(#clip360)" d="M1052.59 1019.17 Q1051.61 1018.6 1050.43 1018.34 Q1049.28 1018.06 1047.88 1018.06 Q1042.92 1018.06 1040.24 1021.3 Q1037.6 1024.52 1037.6 1030.57 L1037.6 1049.34 L1031.71 1049.34 L1031.71 1013.7 L1037.6 1013.7 L1037.6 1019.23 Q1039.45 1015.99 1042.41 1014.43 Q1045.37 1012.84 1049.6 1012.84 Q1050.2 1012.84 1050.94 1012.93 Q1051.67 1013 1052.56 1013.15 L1052.59 1019.17 Z" fill="#000000" fill-rule="evenodd" fill-opacity="1" /><path clip-path="url(#clip360)" d="M1074.94 1031.42 Q1067.84 1031.42 1065.1 1033.05 Q1062.36 1034.67 1062.36 1038.59 Q1062.36 1041.7 1064.4 1043.55 Q1066.47 1045.37 1070 1045.37 Q1074.87 1045.37 1077.8 1041.93 Q1080.76 1038.46 1080.76 1032.73 L1080.76 1031.42 L1074.94 1031.42 M1086.62 1029.01 L1086.62 1049.34 L1080.76 1049.34 L1080.76 1043.93 Q1078.76 1047.18 1075.76 1048.74 Q1072.77 1050.27 1068.44 1050.27 Q1062.97 1050.27 1059.72 1047.21 Q1056.51 1044.12 1056.51 1038.97 Q1056.51 1032.95 1060.52 1029.9 Q1064.56 1026.84 1072.55 1026.84 L1080.76 1026.84 L1080.76 1026.27 Q1080.76 1022.23 1078.09 1020.03 Q1075.44 1017.8 1070.64 1017.8 Q1067.58 1017.8 1064.69 1018.53 Q1061.79 1019.27 1059.12 1020.73 L1059.12 1015.32 Q1062.33 1014.08 1065.36 1013.47 Q1068.38 1012.84 1071.24 1012.84 Q1078.98 1012.84 1082.8 1016.85 Q1086.62 1020.86 1086.62 1029.01 Z" fill="#000000" fill-rule="evenodd" fill-opacity="1" /><path clip-path="url(#clip360)" d="M1104.47 1003.57 L1104.47 1013.7 L1116.54 1013.7 L1116.54 1018.25 L1104.47 1018.25 L1104.47 1037.6 Q1104.47 1041.96 1105.65 1043.2 Q1106.86 1044.44 1110.52 1044.44 L1116.54 1044.44 L1116.54 1049.34 L1110.52 1049.34 Q1103.74 1049.34 1101.16 1046.83 Q1098.58 1044.28 1098.58 1037.6 L1098.58 1018.25 L1094.29 1018.25 L1094.29 1013.7 L1098.58 1013.7 L1098.58 1003.57 L1104.47 1003.57 Z" fill="#000000" fill-rule="evenodd" fill-opacity="1" /><path clip-path="url(#clip360)" d="M1124.24 1013.7 L1130.09 1013.7 L1130.09 1049.34 L1124.24 1049.34 L1124.24 1013.7 M1124.24 999.819 L1130.09 999.819 L1130.09 1007.23 L1124.24 1007.23 L1124.24 999.819 Z" fill="#000000" fill-rule="evenodd" fill-opacity="1" /><path clip-path="url(#clip360)" d="M1156.16 1017.8 Q1151.45 1017.8 1148.71 1021.49 Q1145.98 1025.15 1145.98 1031.55 Q1145.98 1037.95 1148.68 1041.64 Q1151.42 1045.3 1156.16 1045.3 Q1160.84 1045.3 1163.58 1041.61 Q1166.32 1037.92 1166.32 1031.55 Q1166.32 1025.22 1163.58 1021.53 Q1160.84 1017.8 1156.16 1017.8 M1156.16 1012.84 Q1163.8 1012.84 1168.16 1017.8 Q1172.52 1022.77 1172.52 1031.55 Q1172.52 1040.3 1168.16 1045.3 Q1163.8 1050.27 1156.16 1050.27 Q1148.49 1050.27 1144.13 1045.3 Q1139.8 1040.3 1139.8 1031.55 Q1139.8 1022.77 1144.13 1017.8 Q1148.49 1012.84 1156.16 1012.84 Z" fill="#000000" fill-rule="evenodd" fill-opacity="1" /><path clip-path="url(#clip360)" d="M1211.86 1027.83 L1211.86 1049.34 L1206.01 1049.34 L1206.01 1028.02 Q1206.01 1022.96 1204.03 1020.44 Q1202.06 1017.93 1198.11 1017.93 Q1193.37 1017.93 1190.63 1020.95 Q1187.9 1023.98 1187.9 1029.2 L1187.9 1049.34 L1182.01 1049.34 L1182.01 1013.7 L1187.9 1013.7 L1187.9 1019.23 Q1190 1016.02 1192.83 1014.43 Q1195.69 1012.84 1199.42 1012.84 Q1205.56 1012.84 1208.71 1016.66 Q1211.86 1020.44 1211.86 1027.83 Z" fill="#000000" fill-rule="evenodd" fill-opacity="1" /><polyline clip-path="url(#clip362)" style="stroke:#000000; stroke-linecap:butt; stroke-linejoin:round; stroke-width:2; stroke-opacity:0.1; fill:none" points="
  206.166,814.386 1953,814.386 
  "/>
<polyline clip-path="url(#clip362)" style="stroke:#000000; stroke-linecap:butt; stroke-linejoin:round; stroke-width:2; stroke-opacity:0.1; fill:none" points="
  206.166,626.428 1953,626.428 
  "/>
<polyline clip-path="url(#clip362)" style="stroke:#000000; stroke-linecap:butt; stroke-linejoin:round; stroke-width:2; stroke-opacity:0.1; fill:none" points="
  206.166,438.47 1953,438.47 
  "/>
<polyline clip-path="url(#clip362)" style="stroke:#000000; stroke-linecap:butt; stroke-linejoin:round; stroke-width:2; stroke-opacity:0.1; fill:none" points="
  206.166,250.512 1953,250.512 
  "/>
<polyline clip-path="url(#clip360)" style="stroke:#000000; stroke-linecap:butt; stroke-linejoin:round; stroke-width:4; stroke-opacity:1; fill:none" points="
  206.166,880.48 206.166,85.6721 
  "/>
<polyline clip-path="url(#clip360)" style="stroke:#000000; stroke-linecap:butt; stroke-linejoin:round; stroke-width:4; stroke-opacity:1; fill:none" points="
  206.166,814.386 227.128,814.386 
  "/>
<polyline clip-path="url(#clip360)" style="stroke:#000000; stroke-linecap:butt; stroke-linejoin:round; stroke-width:4; stroke-opacity:1; fill:none" points="
  206.166,626.428 227.128,626.428 
  "/>
<polyline clip-path="url(#clip360)" style="stroke:#000000; stroke-linecap:butt; stroke-linejoin:round; stroke-width:4; stroke-opacity:1; fill:none" points="
  206.166,438.47 227.128,438.47 
  "/>
<polyline clip-path="url(#clip360)" style="stroke:#000000; stroke-linecap:butt; stroke-linejoin:round; stroke-width:4; stroke-opacity:1; fill:none" points="
  206.166,250.512 227.128,250.512 
  "/>
<path clip-path="url(#clip360)" d="M90.5879 800.184 Q86.9768 800.184 85.1481 803.749 Q83.3425 807.291 83.3425 814.42 Q83.3425 821.527 85.1481 825.092 Q86.9768 828.633 90.5879 828.633 Q94.2221 828.633 96.0276 825.092 Q97.8563 821.527 97.8563 814.42 Q97.8563 807.291 96.0276 803.749 Q94.2221 800.184 90.5879 800.184 M90.5879 796.481 Q96.398 796.481 99.4536 801.087 Q102.532 805.671 102.532 814.42 Q102.532 823.147 99.4536 827.754 Q96.398 832.337 90.5879 832.337 Q84.7777 832.337 81.699 827.754 Q78.6435 823.147 78.6435 814.42 Q78.6435 805.671 81.699 801.087 Q84.7777 796.481 90.5879 796.481 Z" fill="#000000" fill-rule="evenodd" fill-opacity="1" /><path clip-path="url(#clip360)" d="M110.75 825.786 L115.634 825.786 L115.634 831.666 L110.75 831.666 L110.75 825.786 Z" fill="#000000" fill-rule="evenodd" fill-opacity="1" /><path clip-path="url(#clip360)" d="M129.847 827.731 L146.166 827.731 L146.166 831.666 L124.222 831.666 L124.222 827.731 Q126.884 824.976 131.467 820.346 Q136.074 815.694 137.254 814.351 Q139.5 811.828 140.379 810.092 Q141.282 808.333 141.282 806.643 Q141.282 803.888 139.338 802.152 Q137.416 800.416 134.314 800.416 Q132.115 800.416 129.662 801.18 Q127.231 801.944 124.453 803.495 L124.453 798.772 Q127.277 797.638 129.731 797.059 Q132.185 796.481 134.222 796.481 Q139.592 796.481 142.787 799.166 Q145.981 801.851 145.981 806.342 Q145.981 808.471 145.171 810.393 Q144.384 812.291 142.277 814.883 Q141.699 815.555 138.597 818.772 Q135.495 821.967 129.847 827.731 Z" fill="#000000" fill-rule="evenodd" fill-opacity="1" /><path clip-path="url(#clip360)" d="M88.5045 612.226 Q84.8934 612.226 83.0648 615.791 Q81.2592 619.333 81.2592 626.463 Q81.2592 633.569 83.0648 637.134 Q84.8934 640.675 88.5045 640.675 Q92.1388 640.675 93.9443 637.134 Q95.773 633.569 95.773 626.463 Q95.773 619.333 93.9443 615.791 Q92.1388 612.226 88.5045 612.226 M88.5045 608.523 Q94.3147 608.523 97.3702 613.129 Q100.449 617.713 100.449 626.463 Q100.449 635.189 97.3702 639.796 Q94.3147 644.379 88.5045 644.379 Q82.6944 644.379 79.6157 639.796 Q76.5602 635.189 76.5602 626.463 Q76.5602 617.713 79.6157 613.129 Q82.6944 608.523 88.5045 608.523 Z" fill="#000000" fill-rule="evenodd" fill-opacity="1" /><path clip-path="url(#clip360)" d="M108.666 637.828 L113.551 637.828 L113.551 643.708 L108.666 643.708 L108.666 637.828 Z" fill="#000000" fill-rule="evenodd" fill-opacity="1" /><path clip-path="url(#clip360)" d="M136.583 613.222 L124.777 631.671 L136.583 631.671 L136.583 613.222 M135.356 609.148 L141.236 609.148 L141.236 631.671 L146.166 631.671 L146.166 635.56 L141.236 635.56 L141.236 643.708 L136.583 643.708 L136.583 635.56 L120.981 635.56 L120.981 631.046 L135.356 609.148 Z" fill="#000000" fill-rule="evenodd" fill-opacity="1" /><path clip-path="url(#clip360)" d="M88.8286 424.269 Q85.2175 424.269 83.3888 427.833 Q81.5833 431.375 81.5833 438.505 Q81.5833 445.611 83.3888 449.176 Q85.2175 452.717 88.8286 452.717 Q92.4629 452.717 94.2684 449.176 Q96.0971 445.611 96.0971 438.505 Q96.0971 431.375 94.2684 427.833 Q92.4629 424.269 88.8286 424.269 M88.8286 420.565 Q94.6388 420.565 97.6943 425.171 Q100.773 429.755 100.773 438.505 Q100.773 447.231 97.6943 451.838 Q94.6388 456.421 88.8286 456.421 Q83.0185 456.421 79.9398 451.838 Q76.8842 447.231 76.8842 438.505 Q76.8842 429.755 79.9398 425.171 Q83.0185 420.565 88.8286 420.565 Z" fill="#000000" fill-rule="evenodd" fill-opacity="1" /><path clip-path="url(#clip360)" d="M108.991 449.87 L113.875 449.87 L113.875 455.75 L108.991 455.75 L108.991 449.87 Z" fill="#000000" fill-rule="evenodd" fill-opacity="1" /><path clip-path="url(#clip360)" d="M134.639 436.606 Q131.49 436.606 129.639 438.759 Q127.81 440.912 127.81 444.662 Q127.81 448.389 129.639 450.565 Q131.49 452.717 134.639 452.717 Q137.787 452.717 139.615 450.565 Q141.467 448.389 141.467 444.662 Q141.467 440.912 139.615 438.759 Q137.787 436.606 134.639 436.606 M143.921 421.954 L143.921 426.213 Q142.162 425.38 140.356 424.94 Q138.574 424.5 136.814 424.5 Q132.185 424.5 129.731 427.625 Q127.301 430.75 126.953 437.069 Q128.319 435.055 130.379 433.991 Q132.439 432.903 134.916 432.903 Q140.125 432.903 143.134 436.074 Q146.166 439.222 146.166 444.662 Q146.166 449.986 143.018 453.204 Q139.87 456.421 134.639 456.421 Q128.643 456.421 125.472 451.838 Q122.301 447.231 122.301 438.505 Q122.301 430.31 126.19 425.449 Q130.078 420.565 136.629 420.565 Q138.389 420.565 140.171 420.912 Q141.976 421.259 143.921 421.954 Z" fill="#000000" fill-rule="evenodd" fill-opacity="1" /><path clip-path="url(#clip360)" d="M89.0832 236.311 Q85.4721 236.311 83.6435 239.875 Q81.8379 243.417 81.8379 250.547 Q81.8379 257.653 83.6435 261.218 Q85.4721 264.759 89.0832 264.759 Q92.7175 264.759 94.523 261.218 Q96.3517 257.653 96.3517 250.547 Q96.3517 243.417 94.523 239.875 Q92.7175 236.311 89.0832 236.311 M89.0832 232.607 Q94.8934 232.607 97.9489 237.213 Q101.028 241.797 101.028 250.547 Q101.028 259.273 97.9489 263.88 Q94.8934 268.463 89.0832 268.463 Q83.2731 268.463 80.1944 263.88 Q77.1389 259.273 77.1389 250.547 Q77.1389 241.797 80.1944 237.213 Q83.2731 232.607 89.0832 232.607 Z" fill="#000000" fill-rule="evenodd" fill-opacity="1" /><path clip-path="url(#clip360)" d="M109.245 261.912 L114.129 261.912 L114.129 267.792 L109.245 267.792 L109.245 261.912 Z" fill="#000000" fill-rule="evenodd" fill-opacity="1" /><path clip-path="url(#clip360)" d="M134.314 251.38 Q130.981 251.38 129.06 253.162 Q127.162 254.945 127.162 258.07 Q127.162 261.195 129.06 262.977 Q130.981 264.759 134.314 264.759 Q137.648 264.759 139.569 262.977 Q141.49 261.172 141.49 258.07 Q141.49 254.945 139.569 253.162 Q137.671 251.38 134.314 251.38 M129.639 249.389 Q126.629 248.648 124.94 246.588 Q123.273 244.528 123.273 241.565 Q123.273 237.422 126.213 235.014 Q129.176 232.607 134.314 232.607 Q139.476 232.607 142.416 235.014 Q145.356 237.422 145.356 241.565 Q145.356 244.528 143.666 246.588 Q142 248.648 139.014 249.389 Q142.393 250.176 144.268 252.468 Q146.166 254.76 146.166 258.07 Q146.166 263.093 143.088 265.778 Q140.032 268.463 134.314 268.463 Q128.597 268.463 125.518 265.778 Q122.463 263.093 122.463 258.07 Q122.463 254.76 124.361 252.468 Q126.259 250.176 129.639 249.389 M127.926 242.005 Q127.926 244.69 129.592 246.195 Q131.282 247.699 134.314 247.699 Q137.324 247.699 139.014 246.195 Q140.726 244.69 140.726 242.005 Q140.726 239.32 139.014 237.815 Q137.324 236.311 134.314 236.311 Q131.282 236.311 129.592 237.815 Q127.926 239.32 127.926 242.005 Z" fill="#000000" fill-rule="evenodd" fill-opacity="1" /><path clip-path="url(#clip360)" d="M-43.6562 670.196 L-37.386 670.196 Q-39.1366 673.856 -39.996 677.103 Q-40.8553 680.349 -40.8553 683.373 Q-40.8553 688.625 -38.8183 691.489 Q-36.7813 694.322 -33.0255 694.322 Q-29.8745 694.322 -28.2512 692.444 Q-26.6598 690.534 -25.6731 685.251 L-24.8774 681.368 Q-23.5088 674.174 -20.0395 670.769 Q-16.602 667.331 -10.8092 667.331 Q-3.90241 667.331 -0.337611 671.978 Q3.22718 676.593 3.22718 685.537 Q3.22718 688.911 2.4633 692.731 Q1.69942 696.518 0.203474 700.592 L-6.41686 700.592 Q-4.22069 696.677 -3.10669 692.922 Q-1.99269 689.166 -1.99269 685.537 Q-1.99269 680.031 -4.15703 677.039 Q-6.32138 674.047 -10.3318 674.047 Q-13.8329 674.047 -15.8063 676.212 Q-17.7796 678.344 -18.7663 683.246 L-19.5302 687.161 Q-20.9625 694.354 -24.018 697.568 Q-27.0736 700.783 -32.5163 700.783 Q-38.8183 700.783 -42.4468 696.359 Q-46.0752 691.903 -46.0752 684.105 Q-46.0752 680.763 -45.4705 677.294 Q-44.8657 673.824 -43.6562 670.196 Z" fill="#000000" fill-rule="evenodd" fill-opacity="1" /><path clip-path="url(#clip360)" d="M-15.6153 641.359 Q-15.6153 648.457 -13.9921 651.194 Q-12.3688 653.932 -8.45389 653.932 Q-5.33469 653.932 -3.48864 651.895 Q-1.67441 649.826 -1.67441 646.293 Q-1.67441 641.423 -5.11189 638.495 Q-8.5812 635.535 -14.3103 635.535 L-15.6153 635.535 L-15.6153 641.359 M-18.0343 629.678 L2.30416 629.678 L2.30416 635.535 L-3.10669 635.535 Q0.139817 637.54 1.69942 640.532 Q3.22718 643.524 3.22718 647.852 Q3.22718 653.327 0.171646 656.573 Q-2.91572 659.788 -8.07194 659.788 Q-14.0875 659.788 -17.1431 655.778 Q-20.1986 651.735 -20.1986 643.746 L-20.1986 635.535 L-20.7715 635.535 Q-24.8138 635.535 -27.0099 638.208 Q-29.2379 640.85 -29.2379 645.656 Q-29.2379 648.712 -28.5059 651.608 Q-27.7738 654.504 -26.3097 657.178 L-31.7205 657.178 Q-32.9619 653.963 -33.5666 650.94 Q-34.2032 647.916 -34.2032 645.051 Q-34.2032 637.317 -30.1928 633.498 Q-26.1824 629.678 -18.0343 629.678 Z" fill="#000000" fill-rule="evenodd" fill-opacity="1" /><path clip-path="url(#clip360)" d="M-26.5007 589.861 Q-30.4474 587.665 -32.3253 584.609 Q-34.2032 581.553 -34.2032 577.416 Q-34.2032 571.846 -30.2883 568.822 Q-26.4052 565.798 -19.2119 565.798 L2.30416 565.798 L2.30416 571.687 L-19.021 571.687 Q-24.1454 571.687 -26.628 573.501 Q-29.1106 575.315 -29.1106 579.039 Q-29.1106 583.59 -26.0869 586.232 Q-23.0632 588.874 -17.8433 588.874 L2.30416 588.874 L2.30416 594.762 L-19.021 594.762 Q-24.1772 594.762 -26.628 596.577 Q-29.1106 598.391 -29.1106 602.178 Q-29.1106 606.666 -26.0551 609.308 Q-23.0314 611.95 -17.8433 611.95 L2.30416 611.95 L2.30416 617.838 L-33.3438 617.838 L-33.3438 611.95 L-27.8056 611.95 Q-31.084 609.945 -32.6436 607.144 Q-34.2032 604.343 -34.2032 600.491 Q-34.2032 596.608 -32.2298 593.903 Q-30.2564 591.166 -26.5007 589.861 Z" fill="#000000" fill-rule="evenodd" fill-opacity="1" /><path clip-path="url(#clip360)" d="M-3.04304 548.452 L15.8631 548.452 L15.8631 554.34 L-33.3438 554.34 L-33.3438 548.452 L-27.9329 548.452 Q-31.1158 546.606 -32.6436 543.805 Q-34.2032 540.972 -34.2032 537.057 Q-34.2032 530.564 -29.0469 526.522 Q-23.8907 522.448 -15.488 522.448 Q-7.08526 522.448 -1.92904 526.522 Q3.22718 530.564 3.22718 537.057 Q3.22718 540.972 1.69942 543.805 Q0.139817 546.606 -3.04304 548.452 M-15.488 528.527 Q-21.9492 528.527 -25.6095 531.201 Q-29.3016 533.842 -29.3016 538.489 Q-29.3016 543.136 -25.6095 545.81 Q-21.9492 548.452 -15.488 548.452 Q-9.0268 548.452 -5.33469 545.81 Q-1.67441 543.136 -1.67441 538.489 Q-1.67441 533.842 -5.33469 531.201 Q-9.0268 528.527 -15.488 528.527 Z" fill="#000000" fill-rule="evenodd" fill-opacity="1" /><path clip-path="url(#clip360)" d="M-47.221 512.74 L-47.221 506.884 L2.30416 506.884 L2.30416 512.74 L-47.221 512.74 Z" fill="#000000" fill-rule="evenodd" fill-opacity="1" /><path clip-path="url(#clip360)" d="M-16.9839 464.138 L-14.1194 464.138 L-14.1194 491.065 Q-8.07194 490.683 -4.88909 487.436 Q-1.73807 484.158 -1.73807 478.334 Q-1.73807 474.96 -2.56561 471.809 Q-3.39315 468.626 -5.04823 465.507 L0.489931 465.507 Q1.82673 468.658 2.52696 471.968 Q3.22718 475.278 3.22718 478.684 Q3.22718 487.214 -1.73807 492.211 Q-6.70332 497.176 -15.1697 497.176 Q-23.9226 497.176 -29.0469 492.465 Q-34.2032 487.723 -34.2032 479.702 Q-34.2032 472.509 -29.5562 468.339 Q-24.9411 464.138 -16.9839 464.138 M-18.7027 469.994 Q-23.5088 470.058 -26.3734 472.7 Q-29.2379 475.31 -29.2379 479.639 Q-29.2379 484.54 -26.4688 487.5 Q-23.6998 490.428 -18.6708 490.874 L-18.7027 469.994 Z" fill="#000000" fill-rule="evenodd" fill-opacity="1" /><path clip-path="url(#clip360)" d="M-33.3438 438.007 L-33.3438 431.8 L-3.42498 420.66 L-33.3438 409.52 L-33.3438 403.314 L2.30416 416.682 L2.30416 424.639 L-33.3438 438.007 Z" fill="#000000" fill-rule="evenodd" fill-opacity="1" /><path clip-path="url(#clip360)" d="M-15.6153 379.029 Q-15.6153 386.126 -13.9921 388.864 Q-12.3688 391.601 -8.45389 391.601 Q-5.33469 391.601 -3.48864 389.564 Q-1.67441 387.495 -1.67441 383.962 Q-1.67441 379.092 -5.11189 376.164 Q-8.5812 373.204 -14.3103 373.204 L-15.6153 373.204 L-15.6153 379.029 M-18.0343 367.347 L2.30416 367.347 L2.30416 373.204 L-3.10669 373.204 Q0.139817 375.209 1.69942 378.201 Q3.22718 381.193 3.22718 385.522 Q3.22718 390.996 0.171646 394.243 Q-2.91572 397.457 -8.07194 397.457 Q-14.0875 397.457 -17.1431 393.447 Q-20.1986 389.405 -20.1986 381.416 L-20.1986 373.204 L-20.7715 373.204 Q-24.8138 373.204 -27.0099 375.877 Q-29.2379 378.519 -29.2379 383.325 Q-29.2379 386.381 -28.5059 389.277 Q-27.7738 392.174 -26.3097 394.847 L-31.7205 394.847 Q-32.9619 391.633 -33.5666 388.609 Q-34.2032 385.585 -34.2032 382.721 Q-34.2032 374.986 -30.1928 371.167 Q-26.1824 367.347 -18.0343 367.347 Z" fill="#000000" fill-rule="evenodd" fill-opacity="1" /><path clip-path="url(#clip360)" d="M-47.221 355.284 L-47.221 349.428 L2.30416 349.428 L2.30416 355.284 L-47.221 355.284 Z" fill="#000000" fill-rule="evenodd" fill-opacity="1" /><path clip-path="url(#clip360)" d="M-11.7641 337.779 L-33.3438 337.779 L-33.3438 331.922 L-11.9869 331.922 Q-6.92612 331.922 -4.37983 329.949 Q-1.86538 327.976 -1.86538 324.029 Q-1.86538 319.286 -4.88909 316.549 Q-7.9128 313.78 -13.1327 313.78 L-33.3438 313.78 L-33.3438 307.924 L2.30416 307.924 L2.30416 313.78 L-3.17035 313.78 Q0.0761602 315.913 1.66759 318.745 Q3.22718 321.546 3.22718 325.27 Q3.22718 331.413 -0.592239 334.596 Q-4.41166 337.779 -11.7641 337.779 M-34.2032 323.042 L-34.2032 323.042 Z" fill="#000000" fill-rule="evenodd" fill-opacity="1" /><path clip-path="url(#clip360)" d="M-16.9839 265.369 L-14.1194 265.369 L-14.1194 292.296 Q-8.07194 291.914 -4.88909 288.667 Q-1.73807 285.389 -1.73807 279.564 Q-1.73807 276.191 -2.56561 273.039 Q-3.39315 269.857 -5.04823 266.737 L0.489931 266.737 Q1.82673 269.888 2.52696 273.199 Q3.22718 276.509 3.22718 279.914 Q3.22718 288.445 -1.73807 293.442 Q-6.70332 298.407 -15.1697 298.407 Q-23.9226 298.407 -29.0469 293.696 Q-34.2032 288.954 -34.2032 280.933 Q-34.2032 273.74 -29.5562 269.57 Q-24.9411 265.369 -16.9839 265.369 M-18.7027 271.225 Q-23.5088 271.289 -26.3734 273.931 Q-29.2379 276.541 -29.2379 280.869 Q-29.2379 285.771 -26.4688 288.731 Q-23.6998 291.659 -18.6708 292.105 L-18.7027 271.225 Z" fill="#000000" fill-rule="evenodd" fill-opacity="1" /><path clip-path="url(#clip360)" d="M1092.46 43.8146 L1066.66 43.8146 Q1067.27 55.9268 1070.06 61.0714 Q1073.55 67.3908 1079.58 67.3908 Q1085.66 67.3908 1089.02 61.0309 Q1091.98 55.4407 1092.46 43.8146 M1092.34 36.928 Q1091.21 25.4235 1089.02 21.3726 Q1085.54 14.9721 1079.58 14.9721 Q1073.38 14.9721 1070.1 21.2916 Q1067.51 26.3957 1066.74 36.928 L1092.34 36.928 M1079.58 8.89579 Q1089.3 8.89579 1094.85 17.4837 Q1100.4 26.0311 1100.4 41.1815 Q1100.4 56.2914 1094.85 64.8793 Q1089.3 73.5077 1079.58 73.5077 Q1069.82 73.5077 1064.31 64.8793 Q1058.76 56.2914 1058.76 41.1815 Q1058.76 26.0311 1064.31 17.4837 Q1069.82 8.89579 1079.58 8.89579 Z" fill="#000000" fill-rule="evenodd" fill-opacity="1" /><polyline clip-path="url(#clip362)" style="stroke:#009af9; stroke-linecap:butt; stroke-linejoin:round; stroke-width:4; stroke-opacity:1; fill:none" points="
  255.605,482.174 257.255,519.069 258.904,467.687 260.554,492.569 262.203,323.153 263.853,496.054 265.503,304.966 267.152,264.321 268.802,305.402 270.451,281.473 
  272.101,230.769 273.751,230.769 275.4,397.572 277.05,604.052 278.699,465.97 280.349,547.206 281.999,709.452 283.648,527.836 285.298,297.317 286.947,297.317 
  288.597,272.756 290.247,274.297 291.896,276.927 293.546,276.927 295.195,557.111 296.845,478.681 298.495,333.293 300.144,333.293 301.794,255.316 303.443,283.363 
  305.093,547.091 306.743,480.757 308.392,480.757 310.042,562.156 311.691,460.419 313.341,557.271 314.991,276.187 316.64,281.564 318.29,272.261 319.94,188.004 
  321.589,313.188 323.239,506.894 324.888,668.893 326.538,222.441 328.188,301.629 329.837,391.737 331.487,245.661 333.136,199.104 334.786,814.201 336.436,323.751 
  338.085,332.88 339.735,273.27 341.384,586.107 343.034,522.364 344.684,541.201 346.333,624.62 347.983,188.319 349.632,305.491 351.282,352.081 352.932,403.019 
  354.581,404.677 356.231,404.677 357.88,404.677 359.53,505.442 361.18,428.327 362.829,540.981 364.479,271.795 366.128,516.115 367.778,503.613 369.428,419.218 
  371.077,390.098 372.727,605.442 374.376,293.871 376.026,475.77 377.676,314.407 379.325,500.176 380.975,462.559 382.625,496.676 384.274,443.808 385.924,448.211 
  387.573,446.729 389.223,355.715 390.873,364.026 392.522,413.424 394.172,296.658 395.821,347.202 397.471,463.156 399.121,542.323 400.77,404.22 402.42,404.22 
  404.069,423.915 405.719,621.404 407.369,571.594 409.018,436.507 410.668,436.507 412.317,371.902 413.967,309.124 415.617,397.728 417.266,397.728 418.916,388.241 
  420.565,388.241 422.215,397.435 423.865,190.079 425.514,162.321 427.164,293.798 428.813,260.127 430.463,572.329 432.113,167.682 433.762,330.488 435.412,195.2 
  437.061,291.999 438.711,350.267 440.361,350.267 442.01,375.753 443.66,404.836 445.309,495.818 446.959,567.436 448.609,498.676 450.258,416.369 451.908,416.369 
  453.558,407.174 455.207,407.174 456.857,565.177 458.506,565.177 460.156,469.569 461.806,469.162 463.455,453.433 465.105,448.475 466.754,667.339 468.404,420.172 
  470.054,432.963 471.703,541.128 473.353,498.551 475.002,506.094 476.652,577.817 478.302,428.966 479.951,381.611 481.601,380.588 483.25,344.861 484.9,344.861 
  486.55,395.736 488.199,405.611 489.849,407.568 491.498,405.653 493.148,178.926 494.798,602.659 496.447,431.865 498.097,537.222 499.746,483.281 501.396,411.204 
  503.046,396.184 504.695,289.026 506.345,266.381 507.994,151.996 509.644,272.124 511.294,349.596 512.943,323.257 514.593,381.934 516.243,331.798 517.892,369.274 
  519.542,433.56 521.191,370.19 522.841,370.19 524.491,432.232 526.14,432.232 527.79,527.359 529.439,293.012 531.089,324.943 532.739,307.654 534.388,301.866 
  536.038,237.091 537.687,187.253 539.337,258.705 540.987,144.083 542.636,184.47 544.286,184.47 545.935,503.96 547.585,312.511 549.235,312.511 550.884,500.054 
  552.534,560.755 554.183,273.227 555.833,333.623 557.483,482.263 559.132,589.506 560.782,421.315 562.431,411.992 564.081,389.944 565.731,416.25 567.38,416.25 
  569.03,373.46 570.679,297.178 572.329,506.934 573.979,454.103 575.628,724.903 577.278,717.466 578.928,765.653 580.577,300.064 582.227,365.371 583.876,385.671 
  585.526,321.475 587.176,192.408 588.825,686.011 590.475,185.38 592.124,240.96 593.774,240.96 595.424,468.804 597.073,533.162 598.723,290.304 600.372,319.505 
  602.022,339.206 603.672,339.206 605.321,259.72 606.971,291.029 608.62,529.779 610.27,511.201 611.92,511.201 613.569,303.895 615.219,384.03 616.868,285.849 
  618.518,465.71 620.168,465.71 621.817,465.71 623.467,584.626 625.116,584.626 626.766,434.115 628.416,556.728 630.065,274.944 631.715,287.269 633.364,440.652 
  635.014,383.272 636.664,400.358 638.313,345.315 639.963,273.133 641.612,311.112 643.262,306.141 644.912,510.83 646.561,415.407 648.211,415.407 649.861,377.288 
  651.51,365.767 653.16,357.977 654.809,351.311 656.459,341.894 658.109,477.951 659.758,330.512 661.408,334.729 663.057,473.668 664.707,437.536 666.357,445.472 
  668.006,462.33 669.656,504.432 671.305,313.468 672.955,380.089 674.605,383.027 676.254,383.027 677.904,384.55 679.553,666.019 681.203,437.407 682.853,449.177 
  684.502,449.177 686.152,612.099 687.801,553.515 689.451,384.186 691.101,237.185 692.75,346.49 694.4,305.46 696.049,277.556 697.699,125.802 699.349,149.191 
  700.998,725.571 702.648,325.325 704.297,299.011 705.947,332.895 707.597,388.903 709.246,374.477 710.896,284.701 712.546,356.735 714.195,354.4 715.845,390.871 
  717.494,419.121 719.144,419.121 720.794,419.121 722.443,420.262 724.093,576.867 725.742,249.518 727.392,249.518 729.042,347.213 730.691,388.19 732.341,267.453 
  733.99,570.047 735.64,463.485 737.29,346.188 738.939,407.386 740.589,323.04 742.238,370.63 743.888,300.271 745.538,362.27 747.187,378.901 748.837,384.106 
  750.486,336.821 752.136,289.986 753.786,538.77 755.435,687.462 757.085,195.755 758.734,466.329 760.384,529.032 762.034,293.781 763.683,188.138 765.333,239.26 
  766.982,373.47 768.632,743.702 770.282,304.062 771.931,219.033 773.581,496.888 775.23,529.013 776.88,529.184 778.53,553.783 780.179,545.358 781.829,574.265 
  783.479,444.664 785.128,435.848 786.778,426.406 788.427,473.888 790.077,473.888 791.727,603.714 793.376,620.025 795.026,371.486 796.675,180.049 798.325,257.746 
  799.975,167.822 801.624,167.822 803.274,259.538 804.923,259.538 806.573,196.408 808.223,298.565 809.872,291.943 811.522,531.715 813.171,473.607 814.821,296.306 
  816.471,201.468 818.12,256.168 819.77,581.393 821.419,467.718 823.069,467.718 824.719,346.081 826.368,318.28 828.018,305.675 829.667,350.567 831.317,322.815 
  832.967,321.132 834.616,498.304 836.266,320.746 837.915,357.884 839.565,357.884 841.215,398.96 842.864,563.239 844.514,272.716 846.164,240.722 847.813,232.722 
  849.463,326.492 851.112,222.84 852.762,222.84 854.412,639.211 856.061,394.585 857.711,254.058 859.36,168.172 861.01,308.235 862.66,308.235 864.309,582.305 
  865.959,679.085 867.608,448.762 869.258,448.762 870.908,186.897 872.557,440.924 874.207,668.379 875.856,453.393 877.506,567.973 879.156,265.044 880.805,387.579 
  882.455,551.019 884.104,456.696 885.754,405.416 887.404,666.711 889.053,500.959 890.703,511.995 892.352,537.152 894.002,475.44 895.652,419.317 897.301,431.751 
  898.951,596.954 900.6,408.134 902.25,483.223 903.9,325.951 905.549,325.951 907.199,313.822 908.848,371.845 910.498,439.31 912.148,470.773 913.797,343.995 
  915.447,343.995 917.097,464.164 918.746,603.671 920.396,556.474 922.045,638.483 923.695,647.331 925.345,537.255 926.994,857.985 928.644,379.165 930.293,379.392 
  931.943,267.601 933.593,320.298 935.242,468.129 936.892,199.608 938.541,227.613 940.191,632.522 941.841,691.337 943.49,664.526 945.14,377.899 946.789,291.502 
  948.439,343.776 950.089,234.304 951.738,276.445 953.388,554.044 955.037,438.594 956.687,595.979 958.337,381.645 959.986,239.592 961.636,287.93 963.285,298.329 
  964.935,188.624 966.585,503.781 968.234,453.231 969.884,336.023 971.533,391.401 973.183,380.173 974.833,631.082 976.482,226.438 978.132,201.618 979.782,285.025 
  981.431,366.391 983.081,230.398 984.73,277.544 986.38,221.508 988.03,227.987 989.679,193.638 991.329,363.988 992.978,413.519 994.628,457.845 996.278,465.307 
  997.927,461.158 999.577,434.863 1001.23,556.592 1002.88,656.417 1004.53,391.882 1006.18,391.882 1007.82,312.693 1009.47,220.09 1011.12,208.884 1012.77,138.043 
  1014.42,190.882 1016.07,617.613 1017.72,415.64 1019.37,386.881 1021.02,252.743 1022.67,377.267 1024.32,299.049 1025.97,377.134 1027.62,359.858 1029.27,630.551 
  1030.92,420.78 1032.57,420.78 1034.22,529.083 1035.87,294.979 1037.52,316.895 1039.17,376.903 1040.82,370.486 1042.47,340.045 1044.12,410.276 1045.77,484.081 
  1047.42,446.842 1049.06,446.842 1050.71,446.842 1052.36,362.573 1054.01,426.614 1055.66,498.63 1057.31,318.442 1058.96,341.375 1060.61,342.042 1062.26,465.234 
  1063.91,347.105 1065.56,347.105 1067.21,250.053 1068.86,339.296 1070.51,420.38 1072.16,418.765 1073.81,418.765 1075.46,558.885 1077.11,500.967 1078.76,323.939 
  1080.41,485.754 1082.06,324.466 1083.71,324.466 1085.36,324.466 1087.01,320.93 1088.66,498.618 1090.31,321.062 1091.95,350.06 1093.6,392.886 1095.25,350.008 
  1096.9,192.243 1098.55,201.067 1100.2,222.104 1101.85,568.69 1103.5,471.855 1105.15,454.27 1106.8,350.35 1108.45,462.439 1110.1,630.051 1111.75,389.892 
  1113.4,411.608 1115.05,436.676 1116.7,807.329 1118.35,807.329 1120,267.336 1121.65,195.96 1123.3,268.515 1124.95,335.635 1126.6,235.218 1128.25,201.51 
  1129.9,432.597 1131.55,737.271 1133.19,514.718 1134.84,425.255 1136.49,371.266 1138.14,371.266 1139.79,397.201 1141.44,335.223 1143.09,335.223 1144.74,478.53 
  1146.39,414.428 1148.04,409.782 1149.69,420.652 1151.34,507.965 1152.99,507.965 1154.64,433.833 1156.29,350.816 1157.94,319.969 1159.59,492.211 1161.24,569.611 
  1162.89,569.611 1164.54,706.394 1166.19,547.611 1167.84,665.448 1169.49,208.322 1171.14,251.72 1172.79,448.964 1174.43,599.396 1176.08,395.613 1177.73,604.831 
  1179.38,244.485 1181.03,198.268 1182.68,281.252 1184.33,368.043 1185.98,250.346 1187.63,277.879 1189.28,265.529 1190.93,567.76 1192.58,477.441 1194.23,449.273 
  1195.88,461.877 1197.53,455.64 1199.18,547.948 1200.83,491.162 1202.48,473.347 1204.13,508.653 1205.78,468.208 1207.43,338.419 1209.08,391.612 1210.73,157.093 
  1212.38,295.857 1214.03,256.828 1215.68,198.89 1217.32,198.89 1218.97,344.298 1220.62,317.27 1222.27,718.015 1223.92,514.013 1225.57,400.677 1227.22,473.784 
  1228.87,409.736 1230.52,389.162 1232.17,317.809 1233.82,397.968 1235.47,497.589 1237.12,497.589 1238.77,497.589 1240.42,266.479 1242.07,173.013 1243.72,239.12 
  1245.37,295.453 1247.02,311.961 1248.67,373.295 1250.32,333.6 1251.97,250.732 1253.62,295.626 1255.27,519.437 1256.92,108.167 1258.56,175.975 1260.21,249.306 
  1261.86,325.622 1263.51,335.329 1265.16,205.596 1266.81,211.133 1268.46,340.832 1270.11,733.421 1271.76,446.072 1273.41,445.783 1275.06,590.232 1276.71,610.14 
  1278.36,198.2 1280.01,222.116 1281.66,400.78 1283.31,400.78 1284.96,310.716 1286.61,291.57 1288.26,291.57 1289.91,473.444 1291.56,322.117 1293.21,324.166 
  1294.86,476.638 1296.51,504.455 1298.16,423.468 1299.8,379.726 1301.45,379.726 1303.1,429.151 1304.75,600.062 1306.4,538.306 1308.05,283.997 1309.7,546.32 
  1311.35,280.518 1313,234.415 1314.65,173.497 1316.3,228.317 1317.95,360.242 1319.6,137.952 1321.25,491.005 1322.9,567.447 1324.55,588.802 1326.2,408.258 
  1327.85,408.258 1329.5,393.069 1331.15,429.383 1332.8,447.582 1334.45,447.582 1336.1,726.24 1337.75,411.252 1339.4,458.47 1341.05,454.668 1342.69,454.668 
  1344.34,454.668 1345.99,312.006 1347.64,312.006 1349.29,285.891 1350.94,381.307 1352.59,278.795 1354.24,277.336 1355.89,194.29 1357.54,656.565 1359.19,534.639 
  1360.84,488.788 1362.49,507.92 1364.14,236.507 1365.79,570.026 1367.44,442.059 1369.09,497.419 1370.74,319.34 1372.39,270.595 1374.04,558.349 1375.69,498.478 
  1377.34,315.917 1378.99,341.187 1380.64,362.167 1382.29,350.432 1383.93,284.794 1385.58,282.555 1387.23,521.019 1388.88,296.551 1390.53,309.626 1392.18,507.866 
  1393.83,486.56 1395.48,452.373 1397.13,504.631 1398.78,559.594 1400.43,273.451 1402.08,267.269 1403.73,271.034 1405.38,271.034 1407.03,565.731 1408.68,523.613 
  1410.33,298.586 1411.98,523.729 1413.63,434.96 1415.28,412.677 1416.93,412.02 1418.58,695.514 1420.23,461.39 1421.88,350.517 1423.53,334.773 1425.17,308.876 
  1426.82,340.891 1428.47,340.891 1430.12,286.426 1431.77,204.496 1433.42,340.893 1435.07,352.222 1436.72,461.005 1438.37,351.95 1440.02,262.939 1441.67,550.507 
  1443.32,500.419 1444.97,395.6 1446.62,413.309 1448.27,465.44 1449.92,569.824 1451.57,569.824 1453.22,246.359 1454.87,275.869 1456.52,529.545 1458.17,290.147 
  1459.82,392.002 1461.47,357.359 1463.12,348.441 1464.77,265.28 1466.41,356.413 1468.06,342.528 1469.71,375.028 1471.36,345.038 1473.01,279.695 1474.66,292.237 
  1476.31,532.84 1477.96,532.84 1479.61,410.651 1481.26,421.631 1482.91,465.148 1484.56,344.856 1486.21,400.399 1487.86,400.399 1489.51,374.94 1491.16,374.94 
  1492.81,397.856 1494.46,405.477 1496.11,443.337 1497.76,462.083 1499.41,555.379 1501.06,542.414 1502.71,291.924 1504.36,327.914 1506.01,263.878 1507.66,286.473 
  1509.3,190.54 1510.95,366.137 1512.6,404.928 1514.25,507.106 1515.9,409.762 1517.55,449.565 1519.2,474.641 1520.85,601.255 1522.5,244.064 1524.15,194.779 
  1525.8,563.281 1527.45,393.191 1529.1,326.835 1530.75,484.492 1532.4,471.788 1534.05,471.755 1535.7,471.755 1537.35,519.43 1539,268.093 1540.65,364.644 
  1542.3,440.249 1543.95,157.007 1545.6,159.726 1547.25,205.025 1548.9,319.486 1550.54,319.486 1552.19,383.847 1553.84,335.163 1555.49,314.375 1557.14,371.666 
  1558.79,349.735 1560.44,225.971 1562.09,225.971 1563.74,496.52 1565.39,535.686 1567.04,482.01 1568.69,473.356 1570.34,364.408 1571.99,316.194 1573.64,342.608 
  1575.29,342.608 1576.94,324.355 1578.59,366.046 1580.24,345.001 1581.89,383.822 1583.54,553.692 1585.19,457.479 1586.84,556.974 1588.49,556.974 1590.14,223.518 
  1591.78,269.181 1593.43,378.245 1595.08,378.245 1596.73,402.801 1598.38,602.634 1600.03,388.256 1601.68,149.758 1603.33,161.175 1604.98,333.098 1606.63,472.88 
  1608.28,488.464 1609.93,322.731 1611.58,342.159 1613.23,476.691 1614.88,326.322 1616.53,290.451 1618.18,538.338 1619.83,531.308 1621.48,648.051 1623.13,633.58 
  1624.78,541.477 1626.43,286.153 1628.08,326.384 1629.73,211.51 1631.38,276.928 1633.03,316.129 1634.67,397.896 1636.32,270.38 1637.97,236.533 1639.62,267.808 
  1641.27,259.196 1642.92,309.776 1644.57,343.814 1646.22,750.148 1647.87,785.912 1649.52,813.201 1651.17,588.01 1652.82,510.518 1654.47,548.199 1656.12,465.535 
  1657.77,418.88 1659.42,529.033 1661.07,536.898 1662.72,451.08 1664.37,163.164 1666.02,397.989 1667.67,411.204 1669.32,411.204 1670.97,510.283 1672.62,576.607 
  1674.27,494.584 1675.91,546.141 1677.56,385.62 1679.21,378.089 1680.86,400.761 1682.51,378.33 1684.16,270.194 1685.81,145.378 1687.46,148.578 1689.11,150.48 
  1690.76,150.48 1692.41,371.628 1694.06,653.542 1695.71,653.542 1697.36,476.318 1699.01,338.964 1700.66,338.964 1702.31,302.605 1703.96,311.291 1705.61,334.219 
  1707.26,148.841 1708.91,225.715 1710.56,229.598 1712.21,168.651 1713.86,279.878 1715.51,279.878 1717.15,550.772 1718.8,270.191 1720.45,347.068 1722.1,347.068 
  1723.75,206.932 1725.4,113.567 1727.05,717.801 1728.7,491.57 1730.35,596.826 1732,426.973 1733.65,778.419 1735.3,822.822 1736.95,690.309 1738.6,596.484 
  1740.25,517.411 1741.9,301.015 1743.55,340.081 1745.2,289.175 1746.85,423.223 1748.5,525.698 1750.15,293.459 1751.8,175.016 1753.45,727.304 1755.1,301.986 
  1756.75,269.684 1758.4,236.224 1760.04,145.836 1761.69,182.386 1763.34,335.667 1764.99,335.667 1766.64,387.187 1768.29,387.187 1769.94,387.187 1771.59,416.905 
  1773.24,450.394 1774.89,554.959 1776.54,704.235 1778.19,186.987 1779.84,266.991 1781.49,267.269 1783.14,288.883 1784.79,288.883 1786.44,357.425 1788.09,454.653 
  1789.74,171.905 1791.39,308.804 1793.04,511.12 1794.69,565.846 1796.34,421.033 1797.99,279.881 1799.64,155.689 1801.28,231.619 1802.93,322.695 1804.58,322.695 
  1806.23,379.32 1807.88,312.403 1809.53,323.733 1811.18,255.847 1812.83,330.623 1814.48,355.884 1816.13,355.884 1817.78,311.253 1819.43,331.494 1821.08,481.771 
  1822.73,481.771 1824.38,565.43 1826.03,448.069 1827.68,466.479 1829.33,344.166 1830.98,277.77 1832.63,200.353 1834.28,262.347 1835.93,286.458 1837.58,286.458 
  1839.23,232.259 1840.88,219.491 1842.52,152.715 1844.17,328.447 1845.82,188.145 1847.47,250.338 1849.12,353.156 1850.77,353.156 1852.42,270.931 1854.07,494.664 
  1855.72,461.192 1857.37,352.375 1859.02,341.505 1860.67,373.768 1862.32,451.798 1863.97,589.4 1865.62,464.75 1867.27,347.428 1868.92,281.938 1870.57,270.795 
  1872.22,566.002 1873.87,534.85 1875.52,535.635 1877.17,503.724 1878.82,489.031 1880.47,455.191 1882.12,357.187 1883.77,842.946 1885.41,527.129 1887.06,442.12 
  1888.71,420.521 1890.36,433.378 1892.01,377.521 1893.66,377.521 1895.31,333.215 1896.96,480.692 1898.61,488.548 1900.26,435.617 1901.91,439.052 1903.56,498.859 
  
  "/>
<path clip-path="url(#clip360)" d="
M2205.92 880.48 L3952.76 880.48 L3952.76 85.6721 L2205.92 85.6721  Z
  " fill="#ffffff" fill-rule="evenodd" fill-opacity="1"/>
<defs>
  <clipPath id="clip363">
    <rect x="2205" y="85" width="1748" height="796"/>
  </clipPath>
</defs>
<polyline clip-path="url(#clip363)" style="stroke:#000000; stroke-linecap:butt; stroke-linejoin:round; stroke-width:2; stroke-opacity:0.1; fill:none" points="
  2341.85,880.48 2341.85,85.6721 
  "/>
<polyline clip-path="url(#clip363)" style="stroke:#000000; stroke-linecap:butt; stroke-linejoin:round; stroke-width:2; stroke-opacity:0.1; fill:none" points="
  2760.24,880.48 2760.24,85.6721 
  "/>
<polyline clip-path="url(#clip363)" style="stroke:#000000; stroke-linecap:butt; stroke-linejoin:round; stroke-width:2; stroke-opacity:0.1; fill:none" points="
  3178.63,880.48 3178.63,85.6721 
  "/>
<polyline clip-path="url(#clip363)" style="stroke:#000000; stroke-linecap:butt; stroke-linejoin:round; stroke-width:2; stroke-opacity:0.1; fill:none" points="
  3597.02,880.48 3597.02,85.6721 
  "/>
<polyline clip-path="url(#clip360)" style="stroke:#000000; stroke-linecap:butt; stroke-linejoin:round; stroke-width:4; stroke-opacity:1; fill:none" points="
  2205.92,880.48 3952.76,880.48 
  "/>
<polyline clip-path="url(#clip360)" style="stroke:#000000; stroke-linecap:butt; stroke-linejoin:round; stroke-width:4; stroke-opacity:1; fill:none" points="
  2341.85,880.48 2341.85,870.942 
  "/>
<polyline clip-path="url(#clip360)" style="stroke:#000000; stroke-linecap:butt; stroke-linejoin:round; stroke-width:4; stroke-opacity:1; fill:none" points="
  2760.24,880.48 2760.24,870.942 
  "/>
<polyline clip-path="url(#clip360)" style="stroke:#000000; stroke-linecap:butt; stroke-linejoin:round; stroke-width:4; stroke-opacity:1; fill:none" points="
  3178.63,880.48 3178.63,870.942 
  "/>
<polyline clip-path="url(#clip360)" style="stroke:#000000; stroke-linecap:butt; stroke-linejoin:round; stroke-width:4; stroke-opacity:1; fill:none" points="
  3597.02,880.48 3597.02,870.942 
  "/>
<path clip-path="url(#clip360)" d="M2320.04 922.471 Q2316.42 922.471 2314.6 926.035 Q2312.79 929.577 2312.79 936.707 Q2312.79 943.813 2314.6 947.378 Q2316.42 950.919 2320.04 950.919 Q2323.67 950.919 2325.48 947.378 Q2327.3 943.813 2327.3 936.707 Q2327.3 929.577 2325.48 926.035 Q2323.67 922.471 2320.04 922.471 M2320.04 918.767 Q2325.85 918.767 2328.9 923.373 Q2331.98 927.957 2331.98 936.707 Q2331.98 945.433 2328.9 950.04 Q2325.85 954.623 2320.04 954.623 Q2314.23 954.623 2311.15 950.04 Q2308.09 945.433 2308.09 936.707 Q2308.09 927.957 2311.15 923.373 Q2314.23 918.767 2320.04 918.767 Z" fill="#000000" fill-rule="evenodd" fill-opacity="1" /><path clip-path="url(#clip360)" d="M2340.2 948.072 L2345.08 948.072 L2345.08 953.952 L2340.2 953.952 L2340.2 948.072 Z" fill="#000000" fill-rule="evenodd" fill-opacity="1" /><path clip-path="url(#clip360)" d="M2359.29 950.017 L2375.61 950.017 L2375.61 953.952 L2353.67 953.952 L2353.67 950.017 Q2356.33 947.262 2360.92 942.632 Q2365.52 937.98 2366.7 936.637 Q2368.95 934.114 2369.83 932.378 Q2370.73 930.619 2370.73 928.929 Q2370.73 926.174 2368.79 924.438 Q2366.86 922.702 2363.76 922.702 Q2361.56 922.702 2359.11 923.466 Q2356.68 924.23 2353.9 925.781 L2353.9 921.059 Q2356.73 919.924 2359.18 919.346 Q2361.63 918.767 2363.67 918.767 Q2369.04 918.767 2372.23 921.452 Q2375.43 924.137 2375.43 928.628 Q2375.43 930.758 2374.62 932.679 Q2373.83 934.577 2371.73 937.17 Q2371.15 937.841 2368.04 941.058 Q2364.94 944.253 2359.29 950.017 Z" fill="#000000" fill-rule="evenodd" fill-opacity="1" /><path clip-path="url(#clip360)" d="M2737.38 922.471 Q2733.77 922.471 2731.94 926.035 Q2730.14 929.577 2730.14 936.707 Q2730.14 943.813 2731.94 947.378 Q2733.77 950.919 2737.38 950.919 Q2741.02 950.919 2742.82 947.378 Q2744.65 943.813 2744.65 936.707 Q2744.65 929.577 2742.82 926.035 Q2741.02 922.471 2737.38 922.471 M2737.38 918.767 Q2743.19 918.767 2746.25 923.373 Q2749.33 927.957 2749.33 936.707 Q2749.33 945.433 2746.25 950.04 Q2743.19 954.623 2737.38 954.623 Q2731.57 954.623 2728.49 950.04 Q2725.44 945.433 2725.44 936.707 Q2725.44 927.957 2728.49 923.373 Q2731.57 918.767 2737.38 918.767 Z" fill="#000000" fill-rule="evenodd" fill-opacity="1" /><path clip-path="url(#clip360)" d="M2757.55 948.072 L2762.43 948.072 L2762.43 953.952 L2757.55 953.952 L2757.55 948.072 Z" fill="#000000" fill-rule="evenodd" fill-opacity="1" /><path clip-path="url(#clip360)" d="M2785.46 923.466 L2773.66 941.915 L2785.46 941.915 L2785.46 923.466 M2784.24 919.392 L2790.11 919.392 L2790.11 941.915 L2795.05 941.915 L2795.05 945.804 L2790.11 945.804 L2790.11 953.952 L2785.46 953.952 L2785.46 945.804 L2769.86 945.804 L2769.86 941.29 L2784.24 919.392 Z" fill="#000000" fill-rule="evenodd" fill-opacity="1" /><path clip-path="url(#clip360)" d="M3155.94 922.471 Q3152.32 922.471 3150.5 926.035 Q3148.69 929.577 3148.69 936.707 Q3148.69 943.813 3150.5 947.378 Q3152.32 950.919 3155.94 950.919 Q3159.57 950.919 3161.37 947.378 Q3163.2 943.813 3163.2 936.707 Q3163.2 929.577 3161.37 926.035 Q3159.57 922.471 3155.94 922.471 M3155.94 918.767 Q3161.75 918.767 3164.8 923.373 Q3167.88 927.957 3167.88 936.707 Q3167.88 945.433 3164.8 950.04 Q3161.75 954.623 3155.94 954.623 Q3150.12 954.623 3147.05 950.04 Q3143.99 945.433 3143.99 936.707 Q3143.99 927.957 3147.05 923.373 Q3150.12 918.767 3155.94 918.767 Z" fill="#000000" fill-rule="evenodd" fill-opacity="1" /><path clip-path="url(#clip360)" d="M3176.1 948.072 L3180.98 948.072 L3180.98 953.952 L3176.1 953.952 L3176.1 948.072 Z" fill="#000000" fill-rule="evenodd" fill-opacity="1" /><path clip-path="url(#clip360)" d="M3201.74 934.808 Q3198.6 934.808 3196.74 936.961 Q3194.92 939.114 3194.92 942.864 Q3194.92 946.591 3196.74 948.767 Q3198.6 950.919 3201.74 950.919 Q3204.89 950.919 3206.72 948.767 Q3208.57 946.591 3208.57 942.864 Q3208.57 939.114 3206.72 936.961 Q3204.89 934.808 3201.74 934.808 M3211.03 920.156 L3211.03 924.415 Q3209.27 923.582 3207.46 923.142 Q3205.68 922.702 3203.92 922.702 Q3199.29 922.702 3196.84 925.827 Q3194.41 928.952 3194.06 935.271 Q3195.43 933.258 3197.49 932.193 Q3199.55 931.105 3202.02 931.105 Q3207.23 931.105 3210.24 934.276 Q3213.27 937.424 3213.27 942.864 Q3213.27 948.188 3210.12 951.406 Q3206.98 954.623 3201.74 954.623 Q3195.75 954.623 3192.58 950.04 Q3189.41 945.433 3189.41 936.707 Q3189.41 928.512 3193.3 923.651 Q3197.18 918.767 3203.74 918.767 Q3205.49 918.767 3207.28 919.114 Q3209.08 919.461 3211.03 920.156 Z" fill="#000000" fill-rule="evenodd" fill-opacity="1" /><path clip-path="url(#clip360)" d="M3574.45 922.471 Q3570.84 922.471 3569.01 926.035 Q3567.21 929.577 3567.21 936.707 Q3567.21 943.813 3569.01 947.378 Q3570.84 950.919 3574.45 950.919 Q3578.09 950.919 3579.89 947.378 Q3581.72 943.813 3581.72 936.707 Q3581.72 929.577 3579.89 926.035 Q3578.09 922.471 3574.45 922.471 M3574.45 918.767 Q3580.26 918.767 3583.32 923.373 Q3586.4 927.957 3586.4 936.707 Q3586.4 945.433 3583.32 950.04 Q3580.26 954.623 3574.45 954.623 Q3568.64 954.623 3565.56 950.04 Q3562.51 945.433 3562.51 936.707 Q3562.51 927.957 3565.56 923.373 Q3568.64 918.767 3574.45 918.767 Z" fill="#000000" fill-rule="evenodd" fill-opacity="1" /><path clip-path="url(#clip360)" d="M3594.61 948.072 L3599.5 948.072 L3599.5 953.952 L3594.61 953.952 L3594.61 948.072 Z" fill="#000000" fill-rule="evenodd" fill-opacity="1" /><path clip-path="url(#clip360)" d="M3619.68 937.54 Q3616.35 937.54 3614.43 939.322 Q3612.53 941.105 3612.53 944.23 Q3612.53 947.355 3614.43 949.137 Q3616.35 950.919 3619.68 950.919 Q3623.02 950.919 3624.94 949.137 Q3626.86 947.332 3626.86 944.23 Q3626.86 941.105 3624.94 939.322 Q3623.04 937.54 3619.68 937.54 M3615.01 935.549 Q3612 934.808 3610.31 932.748 Q3608.64 930.688 3608.64 927.725 Q3608.64 923.582 3611.58 921.174 Q3614.54 918.767 3619.68 918.767 Q3624.84 918.767 3627.78 921.174 Q3630.72 923.582 3630.72 927.725 Q3630.72 930.688 3629.03 932.748 Q3627.37 934.808 3624.38 935.549 Q3627.76 936.336 3629.64 938.628 Q3631.53 940.92 3631.53 944.23 Q3631.53 949.253 3628.46 951.938 Q3625.4 954.623 3619.68 954.623 Q3613.97 954.623 3610.89 951.938 Q3607.83 949.253 3607.83 944.23 Q3607.83 940.92 3609.73 938.628 Q3611.63 936.336 3615.01 935.549 M3613.29 928.165 Q3613.29 930.85 3614.96 932.355 Q3616.65 933.859 3619.68 933.859 Q3622.69 933.859 3624.38 932.355 Q3626.09 930.85 3626.09 928.165 Q3626.09 925.48 3624.38 923.975 Q3622.69 922.471 3619.68 922.471 Q3616.65 922.471 3614.96 923.975 Q3613.29 925.48 3613.29 928.165 Z" fill="#000000" fill-rule="evenodd" fill-opacity="1" /><path clip-path="url(#clip360)" d="M2892.22 1003.38 L2892.22 1009.65 Q2888.56 1007.9 2885.31 1007.04 Q2882.07 1006.18 2879.04 1006.18 Q2873.79 1006.18 2870.93 1008.22 Q2868.09 1010.26 2868.09 1014.01 Q2868.09 1017.17 2869.97 1018.79 Q2871.88 1020.38 2877.16 1021.37 L2881.05 1022.16 Q2888.24 1023.53 2891.65 1027 Q2895.08 1030.44 2895.08 1036.23 Q2895.08 1043.14 2890.44 1046.7 Q2885.82 1050.27 2876.88 1050.27 Q2873.5 1050.27 2869.69 1049.5 Q2865.9 1048.74 2861.82 1047.24 L2861.82 1040.62 Q2865.74 1042.82 2869.49 1043.93 Q2873.25 1045.05 2876.88 1045.05 Q2882.38 1045.05 2885.38 1042.88 Q2888.37 1040.72 2888.37 1036.71 Q2888.37 1033.21 2886.2 1031.23 Q2884.07 1029.26 2879.17 1028.27 L2875.26 1027.51 Q2868.06 1026.08 2864.85 1023.02 Q2861.63 1019.97 2861.63 1014.52 Q2861.63 1008.22 2866.06 1004.59 Q2870.51 1000.96 2878.31 1000.96 Q2881.65 1000.96 2885.12 1001.57 Q2888.59 1002.17 2892.22 1003.38 Z" fill="#000000" fill-rule="evenodd" fill-opacity="1" /><path clip-path="url(#clip360)" d="M2921.06 1031.42 Q2913.96 1031.42 2911.22 1033.05 Q2908.48 1034.67 2908.48 1038.59 Q2908.48 1041.7 2910.52 1043.55 Q2912.59 1045.37 2916.12 1045.37 Q2920.99 1045.37 2923.92 1041.93 Q2926.88 1038.46 2926.88 1032.73 L2926.88 1031.42 L2921.06 1031.42 M2932.74 1029.01 L2932.74 1049.34 L2926.88 1049.34 L2926.88 1043.93 Q2924.88 1047.18 2921.88 1048.74 Q2918.89 1050.27 2914.56 1050.27 Q2909.09 1050.27 2905.84 1047.21 Q2902.63 1044.12 2902.63 1038.97 Q2902.63 1032.95 2906.64 1029.9 Q2910.68 1026.84 2918.67 1026.84 L2926.88 1026.84 L2926.88 1026.27 Q2926.88 1022.23 2924.21 1020.03 Q2921.57 1017.8 2916.76 1017.8 Q2913.7 1017.8 2910.81 1018.53 Q2907.91 1019.27 2905.24 1020.73 L2905.24 1015.32 Q2908.45 1014.08 2911.48 1013.47 Q2914.5 1012.84 2917.36 1012.84 Q2925.1 1012.84 2928.92 1016.85 Q2932.74 1020.86 2932.74 1029.01 Z" fill="#000000" fill-rule="evenodd" fill-opacity="1" /><path clip-path="url(#clip360)" d="M2972.55 1020.54 Q2974.75 1016.59 2977.81 1014.71 Q2980.86 1012.84 2985 1012.84 Q2990.57 1012.84 2993.59 1016.75 Q2996.62 1020.63 2996.62 1027.83 L2996.62 1049.34 L2990.73 1049.34 L2990.73 1028.02 Q2990.73 1022.89 2988.91 1020.41 Q2987.1 1017.93 2983.38 1017.93 Q2978.83 1017.93 2976.18 1020.95 Q2973.54 1023.98 2973.54 1029.2 L2973.54 1049.34 L2967.65 1049.34 L2967.65 1028.02 Q2967.65 1022.86 2965.84 1020.41 Q2964.02 1017.93 2960.24 1017.93 Q2955.75 1017.93 2953.11 1020.98 Q2950.47 1024.01 2950.47 1029.2 L2950.47 1049.34 L2944.58 1049.34 L2944.58 1013.7 L2950.47 1013.7 L2950.47 1019.23 Q2952.47 1015.96 2955.27 1014.4 Q2958.07 1012.84 2961.92 1012.84 Q2965.81 1012.84 2968.51 1014.81 Q2971.25 1016.78 2972.55 1020.54 Z" fill="#000000" fill-rule="evenodd" fill-opacity="1" /><path clip-path="url(#clip360)" d="M3013.96 1044 L3013.96 1062.9 L3008.08 1062.9 L3008.08 1013.7 L3013.96 1013.7 L3013.96 1019.11 Q3015.81 1015.92 3018.61 1014.4 Q3021.44 1012.84 3025.36 1012.84 Q3031.85 1012.84 3035.89 1017.99 Q3039.97 1023.15 3039.97 1031.55 Q3039.97 1039.95 3035.89 1045.11 Q3031.85 1050.27 3025.36 1050.27 Q3021.44 1050.27 3018.61 1048.74 Q3015.81 1047.18 3013.96 1044 M3033.89 1031.55 Q3033.89 1025.09 3031.21 1021.43 Q3028.57 1017.74 3023.93 1017.74 Q3019.28 1017.74 3016.61 1021.43 Q3013.96 1025.09 3013.96 1031.55 Q3013.96 1038.01 3016.61 1041.7 Q3019.28 1045.37 3023.93 1045.37 Q3028.57 1045.37 3031.21 1041.7 Q3033.89 1038.01 3033.89 1031.55 Z" fill="#000000" fill-rule="evenodd" fill-opacity="1" /><path clip-path="url(#clip360)" d="M3049.68 999.819 L3055.53 999.819 L3055.53 1049.34 L3049.68 1049.34 L3049.68 999.819 Z" fill="#000000" fill-rule="evenodd" fill-opacity="1" /><path clip-path="url(#clip360)" d="M3098.28 1030.06 L3098.28 1032.92 L3071.35 1032.92 Q3071.73 1038.97 3074.98 1042.15 Q3078.26 1045.3 3084.08 1045.3 Q3087.46 1045.3 3090.61 1044.47 Q3093.79 1043.65 3096.91 1041.99 L3096.91 1047.53 Q3093.76 1048.87 3090.45 1049.57 Q3087.14 1050.27 3083.73 1050.27 Q3075.2 1050.27 3070.2 1045.3 Q3065.24 1040.34 3065.24 1031.87 Q3065.24 1023.12 3069.95 1017.99 Q3074.69 1012.84 3082.71 1012.84 Q3089.91 1012.84 3094.08 1017.48 Q3098.28 1022.1 3098.28 1030.06 M3092.42 1028.34 Q3092.36 1023.53 3089.72 1020.67 Q3087.11 1017.8 3082.78 1017.8 Q3077.88 1017.8 3074.92 1020.57 Q3071.99 1023.34 3071.54 1028.37 L3092.42 1028.34 Z" fill="#000000" fill-rule="evenodd" fill-opacity="1" /><path clip-path="url(#clip360)" d="M3124.41 1013.7 L3130.62 1013.7 L3141.76 1043.61 L3152.9 1013.7 L3159.1 1013.7 L3145.73 1049.34 L3137.78 1049.34 L3124.41 1013.7 Z" fill="#000000" fill-rule="evenodd" fill-opacity="1" /><path clip-path="url(#clip360)" d="M3183.39 1031.42 Q3176.29 1031.42 3173.55 1033.05 Q3170.81 1034.67 3170.81 1038.59 Q3170.81 1041.7 3172.85 1043.55 Q3174.92 1045.37 3178.45 1045.37 Q3183.32 1045.37 3186.25 1041.93 Q3189.21 1038.46 3189.21 1032.73 L3189.21 1031.42 L3183.39 1031.42 M3195.07 1029.01 L3195.07 1049.34 L3189.21 1049.34 L3189.21 1043.93 Q3187.21 1047.18 3184.21 1048.74 Q3181.22 1050.27 3176.89 1050.27 Q3171.42 1050.27 3168.17 1047.21 Q3164.96 1044.12 3164.96 1038.97 Q3164.96 1032.95 3168.97 1029.9 Q3173.01 1026.84 3181 1026.84 L3189.21 1026.84 L3189.21 1026.27 Q3189.21 1022.23 3186.54 1020.03 Q3183.9 1017.8 3179.09 1017.8 Q3176.03 1017.8 3173.14 1018.53 Q3170.24 1019.27 3167.57 1020.73 L3167.57 1015.32 Q3170.78 1014.08 3173.81 1013.47 Q3176.83 1012.84 3179.69 1012.84 Q3187.43 1012.84 3191.25 1016.85 Q3195.07 1020.86 3195.07 1029.01 Z" fill="#000000" fill-rule="evenodd" fill-opacity="1" /><path clip-path="url(#clip360)" d="M3207.13 999.819 L3212.99 999.819 L3212.99 1049.34 L3207.13 1049.34 L3207.13 999.819 Z" fill="#000000" fill-rule="evenodd" fill-opacity="1" /><path clip-path="url(#clip360)" d="M3224.64 1035.28 L3224.64 1013.7 L3230.49 1013.7 L3230.49 1035.05 Q3230.49 1040.11 3232.47 1042.66 Q3234.44 1045.17 3238.39 1045.17 Q3243.13 1045.17 3245.87 1042.15 Q3248.64 1039.13 3248.64 1033.91 L3248.64 1013.7 L3254.49 1013.7 L3254.49 1049.34 L3248.64 1049.34 L3248.64 1043.87 Q3246.5 1047.12 3243.67 1048.71 Q3240.87 1050.27 3237.15 1050.27 Q3231 1050.27 3227.82 1046.45 Q3224.64 1042.63 3224.64 1035.28 M3239.37 1012.84 L3239.37 1012.84 Z" fill="#000000" fill-rule="evenodd" fill-opacity="1" /><path clip-path="url(#clip360)" d="M3297.05 1030.06 L3297.05 1032.92 L3270.12 1032.92 Q3270.5 1038.97 3273.75 1042.15 Q3277.03 1045.3 3282.85 1045.3 Q3286.23 1045.3 3289.38 1044.47 Q3292.56 1043.65 3295.68 1041.99 L3295.68 1047.53 Q3292.53 1048.87 3289.22 1049.57 Q3285.91 1050.27 3282.5 1050.27 Q3273.97 1050.27 3268.97 1045.3 Q3264.01 1040.34 3264.01 1031.87 Q3264.01 1023.12 3268.72 1017.99 Q3273.46 1012.84 3281.48 1012.84 Q3288.68 1012.84 3292.85 1017.48 Q3297.05 1022.1 3297.05 1030.06 M3291.19 1028.34 Q3291.13 1023.53 3288.48 1020.67 Q3285.87 1017.8 3281.55 1017.8 Q3276.64 1017.8 3273.68 1020.57 Q3270.76 1023.34 3270.31 1028.37 L3291.19 1028.34 Z" fill="#000000" fill-rule="evenodd" fill-opacity="1" /><polyline clip-path="url(#clip363)" style="stroke:#000000; stroke-linecap:butt; stroke-linejoin:round; stroke-width:2; stroke-opacity:0.1; fill:none" points="
  2205.92,871.985 3952.76,871.985 
  "/>
<polyline clip-path="url(#clip363)" style="stroke:#000000; stroke-linecap:butt; stroke-linejoin:round; stroke-width:2; stroke-opacity:0.1; fill:none" points="
  2205.92,736.507 3952.76,736.507 
  "/>
<polyline clip-path="url(#clip363)" style="stroke:#000000; stroke-linecap:butt; stroke-linejoin:round; stroke-width:2; stroke-opacity:0.1; fill:none" points="
  2205.92,601.029 3952.76,601.029 
  "/>
<polyline clip-path="url(#clip363)" style="stroke:#000000; stroke-linecap:butt; stroke-linejoin:round; stroke-width:2; stroke-opacity:0.1; fill:none" points="
  2205.92,465.551 3952.76,465.551 
  "/>
<polyline clip-path="url(#clip363)" style="stroke:#000000; stroke-linecap:butt; stroke-linejoin:round; stroke-width:2; stroke-opacity:0.1; fill:none" points="
  2205.92,330.073 3952.76,330.073 
  "/>
<polyline clip-path="url(#clip363)" style="stroke:#000000; stroke-linecap:butt; stroke-linejoin:round; stroke-width:2; stroke-opacity:0.1; fill:none" points="
  2205.92,194.595 3952.76,194.595 
  "/>
<polyline clip-path="url(#clip360)" style="stroke:#000000; stroke-linecap:butt; stroke-linejoin:round; stroke-width:4; stroke-opacity:1; fill:none" points="
  2205.92,880.48 2205.92,85.6721 
  "/>
<polyline clip-path="url(#clip360)" style="stroke:#000000; stroke-linecap:butt; stroke-linejoin:round; stroke-width:4; stroke-opacity:1; fill:none" points="
  2205.92,871.985 2226.89,871.985 
  "/>
<polyline clip-path="url(#clip360)" style="stroke:#000000; stroke-linecap:butt; stroke-linejoin:round; stroke-width:4; stroke-opacity:1; fill:none" points="
  2205.92,736.507 2226.89,736.507 
  "/>
<polyline clip-path="url(#clip360)" style="stroke:#000000; stroke-linecap:butt; stroke-linejoin:round; stroke-width:4; stroke-opacity:1; fill:none" points="
  2205.92,601.029 2226.89,601.029 
  "/>
<polyline clip-path="url(#clip360)" style="stroke:#000000; stroke-linecap:butt; stroke-linejoin:round; stroke-width:4; stroke-opacity:1; fill:none" points="
  2205.92,465.551 2226.89,465.551 
  "/>
<polyline clip-path="url(#clip360)" style="stroke:#000000; stroke-linecap:butt; stroke-linejoin:round; stroke-width:4; stroke-opacity:1; fill:none" points="
  2205.92,330.073 2226.89,330.073 
  "/>
<polyline clip-path="url(#clip360)" style="stroke:#000000; stroke-linecap:butt; stroke-linejoin:round; stroke-width:4; stroke-opacity:1; fill:none" points="
  2205.92,194.595 2226.89,194.595 
  "/>
<path clip-path="url(#clip360)" d="M2088.75 857.783 Q2085.14 857.783 2083.31 861.348 Q2081.5 864.89 2081.5 872.019 Q2081.5 879.126 2083.31 882.691 Q2085.14 886.232 2088.75 886.232 Q2092.38 886.232 2094.19 882.691 Q2096.02 879.126 2096.02 872.019 Q2096.02 864.89 2094.19 861.348 Q2092.38 857.783 2088.75 857.783 M2088.75 854.08 Q2094.56 854.08 2097.61 858.686 Q2100.69 863.269 2100.69 872.019 Q2100.69 880.746 2097.61 885.353 Q2094.56 889.936 2088.75 889.936 Q2082.94 889.936 2079.86 885.353 Q2076.8 880.746 2076.8 872.019 Q2076.8 863.269 2079.86 858.686 Q2082.94 854.08 2088.75 854.08 Z" fill="#000000" fill-rule="evenodd" fill-opacity="1" /><path clip-path="url(#clip360)" d="M2108.91 883.385 L2113.79 883.385 L2113.79 889.265 L2108.91 889.265 L2108.91 883.385 Z" fill="#000000" fill-rule="evenodd" fill-opacity="1" /><path clip-path="url(#clip360)" d="M2133.98 857.783 Q2130.37 857.783 2128.54 861.348 Q2126.73 864.89 2126.73 872.019 Q2126.73 879.126 2128.54 882.691 Q2130.37 886.232 2133.98 886.232 Q2137.61 886.232 2139.42 882.691 Q2141.25 879.126 2141.25 872.019 Q2141.25 864.89 2139.42 861.348 Q2137.61 857.783 2133.98 857.783 M2133.98 854.08 Q2139.79 854.08 2142.84 858.686 Q2145.92 863.269 2145.92 872.019 Q2145.92 880.746 2142.84 885.353 Q2139.79 889.936 2133.98 889.936 Q2128.17 889.936 2125.09 885.353 Q2122.03 880.746 2122.03 872.019 Q2122.03 863.269 2125.09 858.686 Q2128.17 854.08 2133.98 854.08 Z" fill="#000000" fill-rule="evenodd" fill-opacity="1" /><path clip-path="url(#clip360)" d="M2089.74 722.305 Q2086.13 722.305 2084.3 725.87 Q2082.5 729.412 2082.5 736.541 Q2082.5 743.648 2084.3 747.213 Q2086.13 750.754 2089.74 750.754 Q2093.38 750.754 2095.18 747.213 Q2097.01 743.648 2097.01 736.541 Q2097.01 729.412 2095.18 725.87 Q2093.38 722.305 2089.74 722.305 M2089.74 718.602 Q2095.55 718.602 2098.61 723.208 Q2101.69 727.791 2101.69 736.541 Q2101.69 745.268 2098.61 749.875 Q2095.55 754.458 2089.74 754.458 Q2083.93 754.458 2080.85 749.875 Q2077.8 745.268 2077.8 736.541 Q2077.8 727.791 2080.85 723.208 Q2083.93 718.602 2089.74 718.602 Z" fill="#000000" fill-rule="evenodd" fill-opacity="1" /><path clip-path="url(#clip360)" d="M2109.9 747.907 L2114.79 747.907 L2114.79 753.787 L2109.9 753.787 L2109.9 747.907 Z" fill="#000000" fill-rule="evenodd" fill-opacity="1" /><path clip-path="url(#clip360)" d="M2125.02 719.227 L2143.38 719.227 L2143.38 723.162 L2129.3 723.162 L2129.3 731.634 Q2130.32 731.287 2131.34 731.125 Q2132.36 730.94 2133.38 730.94 Q2139.16 730.94 2142.54 734.111 Q2145.92 737.282 2145.92 742.699 Q2145.92 748.277 2142.45 751.379 Q2138.98 754.458 2132.66 754.458 Q2130.48 754.458 2128.21 754.088 Q2125.97 753.717 2123.56 752.977 L2123.56 748.277 Q2125.65 749.412 2127.87 749.967 Q2130.09 750.523 2132.57 750.523 Q2136.57 750.523 2138.91 748.416 Q2141.25 746.31 2141.25 742.699 Q2141.25 739.088 2138.91 736.981 Q2136.57 734.875 2132.57 734.875 Q2130.69 734.875 2128.82 735.291 Q2126.96 735.708 2125.02 736.588 L2125.02 719.227 Z" fill="#000000" fill-rule="evenodd" fill-opacity="1" /><path clip-path="url(#clip360)" d="M2079.56 614.374 L2087.2 614.374 L2087.2 588.008 L2078.89 589.675 L2078.89 585.415 L2087.15 583.749 L2091.83 583.749 L2091.83 614.374 L2099.47 614.374 L2099.47 618.309 L2079.56 618.309 L2079.56 614.374 Z" fill="#000000" fill-rule="evenodd" fill-opacity="1" /><path clip-path="url(#clip360)" d="M2108.91 612.429 L2113.79 612.429 L2113.79 618.309 L2108.91 618.309 L2108.91 612.429 Z" fill="#000000" fill-rule="evenodd" fill-opacity="1" /><path clip-path="url(#clip360)" d="M2133.98 586.827 Q2130.37 586.827 2128.54 590.392 Q2126.73 593.934 2126.73 601.063 Q2126.73 608.17 2128.54 611.735 Q2130.37 615.276 2133.98 615.276 Q2137.61 615.276 2139.42 611.735 Q2141.25 608.17 2141.25 601.063 Q2141.25 593.934 2139.42 590.392 Q2137.61 586.827 2133.98 586.827 M2133.98 583.124 Q2139.79 583.124 2142.84 587.73 Q2145.92 592.314 2145.92 601.063 Q2145.92 609.79 2142.84 614.397 Q2139.79 618.98 2133.98 618.98 Q2128.17 618.98 2125.09 614.397 Q2122.03 609.79 2122.03 601.063 Q2122.03 592.314 2125.09 587.73 Q2128.17 583.124 2133.98 583.124 Z" fill="#000000" fill-rule="evenodd" fill-opacity="1" /><path clip-path="url(#clip360)" d="M2080.55 478.896 L2088.19 478.896 L2088.19 452.53 L2079.88 454.197 L2079.88 449.937 L2088.15 448.271 L2092.82 448.271 L2092.82 478.896 L2100.46 478.896 L2100.46 482.831 L2080.55 482.831 L2080.55 478.896 Z" fill="#000000" fill-rule="evenodd" fill-opacity="1" /><path clip-path="url(#clip360)" d="M2109.9 476.951 L2114.79 476.951 L2114.79 482.831 L2109.9 482.831 L2109.9 476.951 Z" fill="#000000" fill-rule="evenodd" fill-opacity="1" /><path clip-path="url(#clip360)" d="M2125.02 448.271 L2143.38 448.271 L2143.38 452.206 L2129.3 452.206 L2129.3 460.678 Q2130.32 460.331 2131.34 460.169 Q2132.36 459.984 2133.38 459.984 Q2139.16 459.984 2142.54 463.155 Q2145.92 466.326 2145.92 471.743 Q2145.92 477.322 2142.45 480.423 Q2138.98 483.502 2132.66 483.502 Q2130.48 483.502 2128.21 483.132 Q2125.97 482.761 2123.56 482.021 L2123.56 477.322 Q2125.65 478.456 2127.87 479.011 Q2130.09 479.567 2132.57 479.567 Q2136.57 479.567 2138.91 477.46 Q2141.25 475.354 2141.25 471.743 Q2141.25 468.132 2138.91 466.025 Q2136.57 463.919 2132.57 463.919 Q2130.69 463.919 2128.82 464.336 Q2126.96 464.752 2125.02 465.632 L2125.02 448.271 Z" fill="#000000" fill-rule="evenodd" fill-opacity="1" /><path clip-path="url(#clip360)" d="M2082.78 343.418 L2099.09 343.418 L2099.09 347.353 L2077.15 347.353 L2077.15 343.418 Q2079.81 340.663 2084.4 336.034 Q2089 331.381 2090.18 330.038 Q2092.43 327.515 2093.31 325.779 Q2094.21 324.02 2094.21 322.33 Q2094.21 319.575 2092.27 317.839 Q2090.34 316.103 2087.24 316.103 Q2085.04 316.103 2082.59 316.867 Q2080.16 317.631 2077.38 319.182 L2077.38 314.46 Q2080.21 313.325 2082.66 312.747 Q2085.11 312.168 2087.15 312.168 Q2092.52 312.168 2095.72 314.853 Q2098.91 317.538 2098.91 322.029 Q2098.91 324.159 2098.1 326.08 Q2097.31 327.978 2095.21 330.571 Q2094.63 331.242 2091.53 334.459 Q2088.42 337.654 2082.78 343.418 Z" fill="#000000" fill-rule="evenodd" fill-opacity="1" /><path clip-path="url(#clip360)" d="M2108.91 341.473 L2113.79 341.473 L2113.79 347.353 L2108.91 347.353 L2108.91 341.473 Z" fill="#000000" fill-rule="evenodd" fill-opacity="1" /><path clip-path="url(#clip360)" d="M2133.98 315.872 Q2130.37 315.872 2128.54 319.436 Q2126.73 322.978 2126.73 330.108 Q2126.73 337.214 2128.54 340.779 Q2130.37 344.321 2133.98 344.321 Q2137.61 344.321 2139.42 340.779 Q2141.25 337.214 2141.25 330.108 Q2141.25 322.978 2139.42 319.436 Q2137.61 315.872 2133.98 315.872 M2133.98 312.168 Q2139.79 312.168 2142.84 316.774 Q2145.92 321.358 2145.92 330.108 Q2145.92 338.834 2142.84 343.441 Q2139.79 348.024 2133.98 348.024 Q2128.17 348.024 2125.09 343.441 Q2122.03 338.834 2122.03 330.108 Q2122.03 321.358 2125.09 316.774 Q2128.17 312.168 2133.98 312.168 Z" fill="#000000" fill-rule="evenodd" fill-opacity="1" /><path clip-path="url(#clip360)" d="M2083.77 207.94 L2100.09 207.94 L2100.09 211.875 L2078.15 211.875 L2078.15 207.94 Q2080.81 205.185 2085.39 200.556 Q2090 195.903 2091.18 194.56 Q2093.42 192.037 2094.3 190.301 Q2095.21 188.542 2095.21 186.852 Q2095.21 184.097 2093.26 182.361 Q2091.34 180.625 2088.24 180.625 Q2086.04 180.625 2083.59 181.389 Q2081.16 182.153 2078.38 183.704 L2078.38 178.982 Q2081.2 177.847 2083.66 177.269 Q2086.11 176.69 2088.15 176.69 Q2093.52 176.69 2096.71 179.375 Q2099.9 182.06 2099.9 186.551 Q2099.9 188.681 2099.09 190.602 Q2098.31 192.5 2096.2 195.093 Q2095.62 195.764 2092.52 198.982 Q2089.42 202.176 2083.77 207.94 Z" fill="#000000" fill-rule="evenodd" fill-opacity="1" /><path clip-path="url(#clip360)" d="M2109.9 205.995 L2114.79 205.995 L2114.79 211.875 L2109.9 211.875 L2109.9 205.995 Z" fill="#000000" fill-rule="evenodd" fill-opacity="1" /><path clip-path="url(#clip360)" d="M2125.02 177.315 L2143.38 177.315 L2143.38 181.25 L2129.3 181.25 L2129.3 189.722 Q2130.32 189.375 2131.34 189.213 Q2132.36 189.028 2133.38 189.028 Q2139.16 189.028 2142.54 192.199 Q2145.92 195.37 2145.92 200.787 Q2145.92 206.366 2142.45 209.468 Q2138.98 212.546 2132.66 212.546 Q2130.48 212.546 2128.21 212.176 Q2125.97 211.806 2123.56 211.065 L2123.56 206.366 Q2125.65 207.5 2127.87 208.056 Q2130.09 208.611 2132.57 208.611 Q2136.57 208.611 2138.91 206.505 Q2141.25 204.398 2141.25 200.787 Q2141.25 197.176 2138.91 195.07 Q2136.57 192.963 2132.57 192.963 Q2130.69 192.963 2128.82 193.38 Q2126.96 193.796 2125.02 194.676 L2125.02 177.315 Z" fill="#000000" fill-rule="evenodd" fill-opacity="1" /><path clip-path="url(#clip360)" d="M1960.31 596.386 L1997.26 596.386 L1997.26 588.619 Q1997.26 578.784 1992.81 574.233 Q1988.35 569.65 1978.74 569.65 Q1969.19 569.65 1964.77 574.233 Q1960.31 578.784 1960.31 588.619 L1960.31 596.386 M1955.03 602.815 L1955.03 589.606 Q1955.03 575.793 1960.79 569.331 Q1966.52 562.87 1978.74 562.87 Q1991.03 562.87 1996.79 569.363 Q2002.55 575.856 2002.55 589.606 L2002.55 602.815 L1955.03 602.815 Z" fill="#000000" fill-rule="evenodd" fill-opacity="1" /><path clip-path="url(#clip360)" d="M1983.26 522.384 L1986.12 522.384 L1986.12 549.311 Q1992.17 548.929 1995.35 545.683 Q1998.5 542.404 1998.5 536.58 Q1998.5 533.206 1997.68 530.055 Q1996.85 526.872 1995.19 523.753 L2000.73 523.753 Q2002.07 526.904 2002.77 530.214 Q2003.47 533.524 2003.47 536.93 Q2003.47 545.46 1998.5 550.457 Q1993.54 555.422 1985.07 555.422 Q1976.32 555.422 1971.2 550.712 Q1966.04 545.969 1966.04 537.948 Q1966.04 530.755 1970.69 526.586 Q1975.3 522.384 1983.26 522.384 M1981.54 528.241 Q1976.73 528.304 1973.87 530.946 Q1971.01 533.556 1971.01 537.885 Q1971.01 542.786 1973.77 545.746 Q1976.54 548.675 1981.57 549.12 L1981.54 528.241 Z" fill="#000000" fill-rule="evenodd" fill-opacity="1" /><path clip-path="url(#clip360)" d="M1981.03 483.14 L2002.55 483.14 L2002.55 488.996 L1981.22 488.996 Q1976.16 488.996 1973.65 490.969 Q1971.13 492.943 1971.13 496.89 Q1971.13 501.632 1974.16 504.369 Q1977.18 507.107 1982.4 507.107 L2002.55 507.107 L2002.55 512.995 L1966.9 512.995 L1966.9 507.107 L1972.44 507.107 Q1969.22 505.006 1967.63 502.173 Q1966.04 499.309 1966.04 495.585 Q1966.04 489.442 1969.86 486.291 Q1973.65 483.14 1981.03 483.14 Z" fill="#000000" fill-rule="evenodd" fill-opacity="1" /><path clip-path="url(#clip360)" d="M1967.95 448.733 L1973.49 448.733 Q1972.21 451.216 1971.58 453.889 Q1970.94 456.563 1970.94 459.427 Q1970.94 463.788 1972.28 465.984 Q1973.62 468.148 1976.29 468.148 Q1978.33 468.148 1979.5 466.589 Q1980.65 465.029 1981.7 460.319 L1982.15 458.313 Q1983.48 452.075 1985.93 449.465 Q1988.35 446.823 1992.71 446.823 Q1997.68 446.823 2000.57 450.77 Q2003.47 454.685 2003.47 461.56 Q2003.47 464.424 2002.9 467.544 Q2002.36 470.631 2001.24 474.069 L1995.19 474.069 Q1996.88 470.822 1997.74 467.671 Q1998.57 464.52 1998.57 461.433 Q1998.57 457.295 1997.17 455.067 Q1995.74 452.839 1993.16 452.839 Q1990.77 452.839 1989.5 454.462 Q1988.22 456.054 1987.05 461.496 L1986.57 463.533 Q1985.42 468.976 1983.07 471.395 Q1980.68 473.814 1976.54 473.814 Q1971.51 473.814 1968.78 470.249 Q1966.04 466.684 1966.04 460.128 Q1966.04 456.881 1966.52 454.017 Q1966.99 451.152 1967.95 448.733 Z" fill="#000000" fill-rule="evenodd" fill-opacity="1" /><path clip-path="url(#clip360)" d="M1966.9 437.498 L1966.9 431.641 L2002.55 431.641 L2002.55 437.498 L1966.9 437.498 M1953.02 437.498 L1953.02 431.641 L1960.44 431.641 L1960.44 437.498 L1953.02 437.498 Z" fill="#000000" fill-rule="evenodd" fill-opacity="1" /><path clip-path="url(#clip360)" d="M1956.78 413.594 L1966.9 413.594 L1966.9 401.531 L1971.45 401.531 L1971.45 413.594 L1990.8 413.594 Q1995.16 413.594 1996.4 412.417 Q1997.65 411.207 1997.65 407.547 L1997.65 401.531 L2002.55 401.531 L2002.55 407.547 Q2002.55 414.326 2000.03 416.904 Q1997.49 419.483 1990.8 419.483 L1971.45 419.483 L1971.45 423.779 L1966.9 423.779 L1966.9 419.483 L1956.78 419.483 L1956.78 413.594 Z" fill="#000000" fill-rule="evenodd" fill-opacity="1" /><path clip-path="url(#clip360)" d="M2005.86 378.997 Q2012.22 381.479 2014.16 383.835 Q2016.11 386.19 2016.11 390.137 L2016.11 394.815 L2011.2 394.815 L2011.2 391.378 Q2011.2 388.959 2010.06 387.622 Q2008.91 386.285 2004.65 384.662 L2001.97 383.612 L1966.9 398.03 L1966.9 391.824 L1994.78 380.684 L1966.9 369.544 L1966.9 363.337 L2005.86 378.997 Z" fill="#000000" fill-rule="evenodd" fill-opacity="1" /><path clip-path="url(#clip360)" d="M3092.22 43.8146 L3066.42 43.8146 Q3067.02 55.9268 3069.82 61.0714 Q3073.3 67.3908 3079.34 67.3908 Q3085.42 67.3908 3088.78 61.0309 Q3091.74 55.4407 3092.22 43.8146 M3092.1 36.928 Q3090.97 25.4235 3088.78 21.3726 Q3085.29 14.9721 3079.34 14.9721 Q3073.14 14.9721 3069.86 21.2916 Q3067.27 26.3957 3066.5 36.928 L3092.1 36.928 M3079.34 8.89579 Q3089.06 8.89579 3094.61 17.4837 Q3100.16 26.0311 3100.16 41.1815 Q3100.16 56.2914 3094.61 64.8793 Q3089.06 73.5077 3079.34 73.5077 Q3069.58 73.5077 3064.07 64.8793 Q3058.52 56.2914 3058.52 41.1815 Q3058.52 26.0311 3064.07 17.4837 Q3069.58 8.89579 3079.34 8.89579 Z" fill="#000000" fill-rule="evenodd" fill-opacity="1" /><polyline clip-path="url(#clip363)" style="stroke:#009af9; stroke-linecap:butt; stroke-linejoin:round; stroke-width:4; stroke-opacity:1; fill:none" points="
  2255.36,857.985 2266.42,856.184 2277.48,854.387 2288.54,852.64 2299.6,850.991 2310.66,849.486 2321.72,848.163 2332.78,847.044 2343.84,846.138 2354.9,845.428 
  2365.96,844.872 2377.02,844.406 2388.08,843.949 2399.14,843.403 2410.2,842.669 2421.26,841.655 2432.32,840.283 2443.38,838.504 2454.44,836.298 2465.5,833.681 
  2476.56,830.705 2487.62,827.449 2498.68,824.015 2509.74,820.512 2520.8,817.046 2531.86,813.709 2542.92,810.564 2553.98,807.644 2565.04,804.949 2576.1,802.45 
  2587.16,800.096 2598.23,797.824 2609.29,795.57 2620.35,793.275 2631.41,790.891 2642.47,788.376 2653.53,785.697 2664.59,782.813 2675.65,779.674 2686.71,776.209 
  2697.77,772.323 2708.83,767.894 2719.89,762.781 2730.95,756.825 2742.01,749.868 2753.07,741.761 2764.13,732.378 2775.19,721.629 2786.25,709.471 2797.31,695.916 
  2808.37,681.037 2819.43,664.973 2830.49,647.926 2841.55,630.156 2852.61,611.97 2863.67,593.7 2874.73,575.68 2885.79,558.219 2896.85,541.565 2907.91,525.883 
  2918.97,511.234 2930.03,497.569 2941.09,484.735 2952.15,472.493 2963.21,460.556 2974.27,448.62 2985.33,436.409 2996.39,423.707 3007.45,410.389 3018.51,396.433 
  3029.57,381.925 3040.63,367.045 3051.69,352.049 3062.75,337.241 3073.81,322.935 3084.87,309.42 3095.93,296.926 3106.99,285.593 3118.05,275.454 3129.11,266.43 
  3140.17,258.337 3151.23,250.912 3162.29,243.852 3173.35,236.857 3184.41,229.678 3195.47,222.147 3206.53,214.206 3217.59,205.903 3228.65,197.38 3239.71,188.838 
  3250.77,180.49 3261.83,172.526 3272.89,165.071 3283.95,158.166 3295.01,151.775 3306.07,145.795 3317.13,140.103 3328.19,134.591 3339.25,129.211 3350.31,124.004 
  3361.37,119.113 3372.43,114.775 3383.49,111.289 3394.55,108.983 3405.61,108.167 3416.67,109.101 3427.73,111.974 3438.79,116.897 3449.85,123.922 3460.91,133.059 
  3471.97,144.308 3483.03,157.672 3494.09,173.169 3505.15,190.815 3516.21,210.604 3527.27,232.471 3538.33,256.263 3549.39,281.712 3560.45,308.429 3571.51,335.916 
  3582.57,363.597 3593.63,390.867 3604.69,417.143 3615.75,441.919 3626.81,464.808 3637.87,485.576 3648.93,504.154 3659.99,520.635 3671.06,535.253 3682.12,548.358 
  3693.18,560.367 3704.24,571.731 3715.3,582.888 3726.36,594.226 3737.42,606.06 3748.48,618.61 3759.54,631.997 3770.6,646.247 3781.66,661.297 3792.72,677.016 
  3803.78,693.214 3814.84,709.668 3825.9,726.13 3836.96,742.343 3848.02,758.06 3859.08,773.048 3870.14,787.106 3881.2,800.072 3892.26,811.828 3903.32,822.307 
  
  "/>
</svg>
